<?xml version="1.0" standalone="no"?>
<!DOCTYPE svg PUBLIC "-//W3C//DTD SVG 1.1//EN" "http://www.w3.org/Graphics/SVG/1.1/DTD/svg11.dtd" >
<svg xmlns="http://www.w3.org/2000/svg">
<metadata></metadata>
<defs>
<font id="paaymaayregular" horiz-adv-x="0" >
<font-face units-per-em="2048" ascent="1638" descent="-410" />
<missing-glyph horiz-adv-x="512" />
<glyph unicode="&#x3b;&#x3b;For&#x20;Education&#x20;Used&#x20;Only&#x3b;&#x3b;" horiz-adv-x="921" d="M61 387q0 84 32 156.5t85 127t126 86t155 31.5q84 0 156.5 -31.5t127 -86t86 -127t31.5 -156.5q0 -82 -31.5 -154.5t-86 -126t-127 -85t-156.5 -31.5q-82 0 -155 31.5t-126 85t-85 126t-32 154.5zM143 387q0 -66 25 -123t68 -100t100 -67.5t123 -24.5q68 0 126 24.5 t101 67.5t67.5 100.5t24.5 122.5q0 68 -24.5 126t-67.5 101t-101.5 68t-125.5 25q-66 0 -123 -25t-100 -68t-68 -101t-25 -126zM266 289v198q2 37 25 68q18 27 57 48.5t113 21.5q59 0 98 -10.5t61.5 -26t32 -30.5t9.5 -28q0 -23 -15.5 -33t-34.5 -10q-16 0 -27.5 7.5 t-26.5 14.5t-37.5 14t-59.5 7q-20 2 -35 -6q-14 -6 -24.5 -19t-10.5 -36v-164q0 -23 10.5 -35t24.5 -18q14 -8 35 -8q37 0 59.5 7t37.5 15t26.5 15.5t27.5 7.5q18 0 34 -11.5t16 -33.5q0 -12 -9.5 -28.5t-32 -33t-61.5 -28t-98 -11.5q-74 0 -113 21.5t-57 50.5 q-23 33 -25 74z" />
<glyph unicode="&#x3b;&#x3b;Registered&#x3b;&#x3b;" horiz-adv-x="921" d="M61 387q0 84 32 156.5t85 127t126 86t155 31.5q84 0 156.5 -31.5t127 -86t86 -127t31.5 -156.5q0 -82 -31.5 -154.5t-86 -126t-127 -85t-156.5 -31.5q-82 0 -155 31.5t-126 85t-85 126t-32 154.5zM143 387q0 -66 25 -123t68 -100t100 -67.5t123 -24.5q68 0 126 24.5 t101 67.5t67.5 100.5t24.5 122.5q0 68 -24.5 126t-67.5 101t-101.5 68t-125.5 25q-66 0 -123 -25t-100 -68t-68 -101t-25 -126zM289 199v383q-2 12 4 22q6 20 37 27h149q86 0 124 -39t38 -111q0 -47 -20.5 -77.5t-55.5 -47.5l76 -137q6 -12 6 -24q0 -10 -5 -21.5t-21 -19.5 q-16 -10 -27.5 -8.5t-22.5 8.5q-10 8 -18 20l-90 162l-74 -10v-127q0 -16 -6 -27q-4 -10 -15.5 -17.5t-29.5 -7.5t-28.5 7.5t-14.5 17.5q-6 10 -6 27zM389 412l111 8q12 4 26.5 15t14.5 46t-15.5 47.5t-36.5 12.5h-100v-129z" />
<glyph unicode="&#x3b;&#x3b;multiply&#x3b;&#x3b;" horiz-adv-x="778" d="M127 211.5q-2 26.5 4 46.5q8 23 27 45l86 86l-86 86q-18 23 -27 45q-6 20 -4 46t31 55q27 27 53.5 29.5t46.5 -3.5q23 -8 45 -26l86 -86l86 86q23 18 45 26q20 6 46 3t55 -29q27 -29 29.5 -54.5t-3.5 -46.5q-8 -23 -26 -45l-86 -86l86 -86q18 -23 26 -45q6 -20 3.5 -46.5 t-29.5 -53.5q-29 -29 -54.5 -31t-46.5 4q-23 8 -45 27l-86 86l-86 -86q-23 -18 -45 -27q-20 -6 -47 -4t-53 31q-29 27 -31 53.5z" />
<glyph unicode="&#x3b;&#x3b;Divide&#x3b;&#x3b;" horiz-adv-x="778" d="M61 389q0 39 15.5 59.5t36.5 30.5q23 10 51 13h450q29 -2 52 -13q18 -10 34.5 -30.5t16.5 -59.5t-16.5 -59.5t-34.5 -30.5q-23 -10 -52 -12h-450q-29 2 -51 12q-20 10 -36 30.5t-16 59.5zM287 164q0 43 29.5 72.5t72.5 29.5t73 -29.5t30 -72.5t-30 -73t-73 -30t-72.5 30 t-29.5 73zM287 614q0 43 29.5 73t72.5 30t73 -30t30 -73t-30 -72.5t-73 -29.5t-72.5 29.5t-29.5 72.5z" />
<glyph unicode="&#x2018;&#x2018;" horiz-adv-x="552" d="M61 778v103q2 29 13 51q10 18 30.5 34.5t59.5 16.5t59.5 -16.5t30.5 -34.5q10 -23 12 -51v-103q-2 -29 -12 -51q-10 -20 -30.5 -35.5t-59.5 -15.5t-59.5 15.5t-30.5 35.5q-10 23 -13 51zM307 778v103q2 29 12 51q10 18 31 34.5t60 16.5t59 -16.5t31 -34.5q10 -23 12 -51 v-103q-2 -29 -12 -51q-10 -20 -30.5 -35.5t-59.5 -15.5t-59.5 15.5t-31.5 35.5q-10 23 -12 51z" />
<glyph unicode="&#x2019;&#x2019;" horiz-adv-x="552" d="M61 778v103q2 29 13 51q10 18 30.5 34.5t59.5 16.5t59.5 -16.5t30.5 -34.5q10 -23 12 -51v-103q-2 -29 -12 -51q-10 -20 -30.5 -35.5t-59.5 -15.5t-59.5 15.5t-30.5 35.5q-10 23 -13 51zM307 778v103q2 29 12 51q10 18 31 34.5t60 16.5t59 -16.5t31 -34.5q10 -23 12 -51 v-103q-2 -29 -12 -51q-10 -20 -30.5 -35.5t-59.5 -15.5t-59.5 15.5t-31.5 35.5q-10 23 -12 51z" />
<glyph unicode="&#x3b;&#x3b;Trademark&#x3b;&#x3b;" horiz-adv-x="1464" d="M61 891q0 35 15.5 52.5t36.5 27.5q23 10 51 12h409q29 -2 52 -12q18 -10 34.5 -27.5t16.5 -52.5t-16.5 -52.5t-34.5 -27.5q-23 -10 -52 -12h-102v-307q-2 -29 -12 -52q-10 -20 -30.5 -35.5t-59.5 -15.5t-59.5 15.5t-30.5 35.5q-10 23 -13 52v307h-102q-29 2 -51 12 q-20 10 -36 27.5t-16 52.5zM737 492v389q2 29 13 51q10 18 30.5 34.5t59.5 16.5q45 0 71.5 -16.5t47 -35t41 -34.5t55.5 -16t55 16t40.5 34.5t46.5 35t73 16.5q39 0 59.5 -16.5t30.5 -34.5q10 -23 12 -51v-389q-2 -29 -12 -52q-10 -20 -30.5 -35.5t-59.5 -15.5t-59.5 15.5 t-30.5 35.5q-10 23 -13 52v243q-6 -10 -30.5 -34.5t-81.5 -24.5q-31 0 -52.5 9t-35.5 22q-17 12 -25 30v-245q-2 -29 -12 -52q-10 -20 -30.5 -35.5t-59.5 -15.5t-59.5 15.5t-30.5 35.5q-10 23 -13 52z" />
<glyph unicode=" "  horiz-adv-x="512" />
<glyph unicode="&#x09;" horiz-adv-x="512" />
<glyph unicode="&#xa0;" horiz-adv-x="512" />
<glyph unicode="!" horiz-adv-x="413" d="M84 111q0 53 35 89t86 36q53 0 89 -36t36 -89q0 -51 -36 -86t-89 -35q-51 0 -86 35t-35 86zM102 891q2 29 13 51q10 18 30.5 34.5t59.5 16.5t59.5 -16t30.5 -35q10 -23 12 -51l-16 -481q-4 -23 -12 -41q-10 -16 -26.5 -28.5t-47.5 -12.5t-48.5 12t-25.5 29q-10 18 -12 41 z" />
<glyph unicode="&#x22;" horiz-adv-x="552" d="M61 778v103q2 29 13 51q10 18 30.5 34.5t59.5 16.5t59.5 -16.5t30.5 -34.5q10 -23 12 -51v-103q-2 -29 -12 -51q-10 -20 -30.5 -35.5t-59.5 -15.5t-59.5 15.5t-30.5 35.5q-10 23 -13 51zM307 778v103q2 29 12 51q10 18 31 34.5t60 16.5t59 -16.5t31 -34.5q10 -23 12 -51 v-103q-2 -29 -12 -51q-10 -20 -30.5 -35.5t-59.5 -15.5t-59.5 15.5t-31.5 35.5q-10 23 -12 51z" />
<glyph unicode="#" horiz-adv-x="1105" d="M61 297q0 39 15.5 59.5t36.5 30.5q23 10 51 12h53v195h-53q-29 2 -51 12q-20 10 -36 30.5t-16 59.5t15.5 59.5t36.5 30.5q23 10 51 13h53v92q2 29 12 51q10 18 31 34.5t59 16.5q39 0 59.5 -16t31.5 -35q10 -23 12 -51v-92h235v92q2 29 13 51q10 18 30.5 34.5t59.5 16.5 t59.5 -16t30.5 -35q10 -23 12 -51v-92h49q29 -2 52 -13q18 -10 34.5 -30.5t16.5 -59.5t-16.5 -59.5t-34.5 -30.5q-23 -10 -52 -12h-49v-195h49q29 -2 52 -12q18 -10 34.5 -30.5t16.5 -59.5t-16.5 -59.5t-34.5 -30.5q-23 -10 -52 -12h-49v-93q-2 -29 -12 -51 q-10 -20 -30.5 -35.5t-59.5 -15.5t-59.5 15.5t-30.5 35.5q-10 23 -13 51v93h-235v-93q-2 -29 -12 -51q-10 -20 -31 -35.5t-60 -15.5t-59 15.5t-31 35.5q-10 23 -12 51v93h-53q-29 2 -51 12q-20 10 -36 30.5t-16 59.5zM422 399h235v195h-235v-195z" />
<glyph unicode="$" horiz-adv-x="761" d="M41 154q0 39 17.5 70.5t64.5 31.5q35 0 55.5 -14.5t43 -31.5t56 -31.5t95.5 -14.5q61 0 107 31.5t46 101.5q0 41 -34.5 66.5t-87 47t-114 45t-113.5 58.5t-87 88t-35 135q0 35 10.5 76t37 78t71.5 64.5t113 35.5v53q2 29 12 52q10 18 30.5 34.5t59.5 16.5t59.5 -16.5 t30.5 -34.5q10 -23 13 -52v-69q49 -12 82.5 -30.5t53 -39t28 -41t8.5 -35.5q0 -39 -26 -55t-56 -16q-27 0 -49.5 8t-48 17.5t-56.5 17.5t-76 8q-31 0 -61.5 -19.5t-30.5 -72.5q0 -39 35 -63.5t87 -46t113.5 -46t114 -61.5t87 -93.5t34.5 -140.5q0 -39 -12 -80t-40 -77.5 t-74 -65.5t-113 -43v-61q-2 -29 -13 -52q-10 -20 -30.5 -35.5t-59.5 -15.5t-59.5 15.5t-30.5 35.5q-10 23 -12 52v55q-74 8 -121 27.5t-75 43t-39 48t-11 41.5z" />
<glyph unicode="%" horiz-adv-x="1204" d="M61 633v219q2 39 25 70q18 27 58 49t114 22t115 -22.5t59 -48.5q23 -31 25 -70v-219q-2 -41 -25 -72q-18 -27 -59 -48t-115 -21t-114 21.5t-58 47.5q-23 31 -25 72zM149 59.5q-4 24.5 3 46.5q8 25 26 50l649 784q23 23 45 33q20 10 47 10.5t56 -22.5t33 -47.5t-2 -47.5 q-8 -25 -27 -49l-649 -784q-23 -23 -45 -33q-20 -10 -47 -10t-56 22q-29 23 -33 47.5zM205 633q0 -18 6 -31q4 -12 15.5 -21.5t31.5 -9.5t32.5 9.5t16.5 21.5q6 12 6 31v219q0 16 -6 31q-4 10 -16 20t-33 10q-20 0 -31.5 -10t-15.5 -20q-6 -14 -6 -31v-219zM717 131v219 q2 39 24 70q18 27 58.5 49.5t113.5 22.5q74 0 115 -23t59 -49q23 -31 25 -70v-219q-2 -41 -25 -72q-18 -27 -59 -48t-115 -21t-113.5 21.5t-58.5 47.5q-23 31 -24 72zM860 131q0 -18 6 -31q4 -12 15.5 -21t31.5 -9t32.5 9t17.5 21q6 12 6 31v219q0 16 -6 31 q-4 10 -16.5 20.5t-33.5 10.5q-20 0 -31.5 -10.5t-15.5 -20.5q-6 -14 -6 -31v-219z" />
<glyph unicode="&#x26;" horiz-adv-x="819" d="M61 225v123q2 31 13 62q10 27 28.5 56.5t55.5 55.5q-29 27 -43.5 55.5t-22.5 53.5q-8 29 -10 55v72q4 63 39 116q29 45 91 82t177 37t177.5 -36.5t90.5 -82.5q35 -53 39 -116v-21q-2 -27 -12 -47q-10 -16 -27.5 -30.5t-52.5 -14.5t-52 14.5t-28 30.5q-10 20 -12 47v21 q-4 29 -16 51q-12 18 -36 34.5t-71 16.5t-72.5 -16.5t-35.5 -34.5q-14 -23 -15 -51v-72q0 -29 15 -51q10 -20 35.5 -35.5t72.5 -15.5h328q14 0 26 -9q10 -6 18.5 -19t8.5 -38q0 -27 -8 -40t-19 -19q-12 -8 -26 -8h-31q10 -20 16.5 -38t10.5 -32q4 -16 4 -33v-123 q-4 -66 -41 -119q-31 -45 -97.5 -80.5t-189.5 -35.5t-189.5 35.5t-97.5 80.5q-37 53 -41 119zM266 225q0 -29 15 -51q10 -20 35.5 -35.5t72.5 -15.5t70.5 15.5t36.5 35.5q12 22 16 51v123q-4 29 -16 51q-12 18 -36 35t-71 17h-10q-43 -4 -65.5 -19.5t-32.5 -34.5 q-12 -23 -15 -49v-123z" />
<glyph unicode="'" horiz-adv-x="307" d="M61 778v103q2 29 13 51q10 18 30.5 34.5t59.5 16.5t59.5 -16.5t30.5 -34.5q10 -23 12 -51v-103q-2 -29 -12 -51q-10 -20 -30.5 -35.5t-59.5 -15.5t-59.5 15.5t-30.5 35.5q-10 23 -13 51z" />
<glyph unicode="(" horiz-adv-x="645" d="M61 492q0 119 26 236.5t81 212.5t140 156.5t204 69.5q47 4 74.5 -20.5t27.5 -71.5t-27.5 -61.5t-74.5 -30.5q-43 -8 -86 -44t-79 -98.5t-58.5 -150t-22.5 -198.5t22.5 -199t58.5 -150.5t79 -98.5t86 -44q47 -16 74.5 -30.5t27.5 -61.5t-27.5 -71.5t-74.5 -20.5 q-119 8 -204 69.5t-140 156.5t-81 213t-26 237z" />
<glyph unicode=")" horiz-adv-x="645" d="M31 -92q0 47 27.5 61.5t74.5 30.5q43 8 86 44t79 98.5t58.5 150.5t22.5 199t-22.5 198.5t-58.5 150t-79 98.5t-86 44q-47 16 -74.5 30.5t-27.5 61.5t27.5 71.5t74.5 20.5q119 -8 204 -69.5t140 -156.5t81 -212.5t26 -236.5t-26 -237t-81 -213t-140 -156.5t-204 -69.5 q-47 -4 -74.5 20.5t-27.5 71.5z" />
<glyph unicode="*" horiz-adv-x="778" d="M61 655q0 39 15.5 59.5t36.5 30.5q23 10 51 13l86 -21l-64 62q-12 27 -14 51q-2 23 7 45.5t44 42.5q35 18 60.5 15t44.5 -15q23 -14 37 -37l24 -104l25 104q14 23 37 37q18 12 43.5 15t60.5 -15q33 -20 43 -43t8 -45q-2 -25 -14 -51l-66 -62l88 21q29 -2 52 -13 q18 -10 34.5 -30.5t16.5 -59.5t-16.5 -59.5t-34.5 -30.5q-23 -10 -52 -12l-88 20l66 -61q12 -27 14 -51q2 -23 -8 -46.5t-43 -41.5q-35 -20 -60.5 -16.5t-43.5 16.5q-23 14 -37 37l-25 102l-24 -102q-14 -23 -37 -37q-18 -12 -44 -16.5t-61 16.5q-35 18 -44 41.5t-7 46.5 q2 25 14 51l64 61l-86 -20q-29 2 -51 12q-20 10 -36 30.5t-16 59.5z" />
<glyph unicode="+" horiz-adv-x="778" d="M61 389q0 39 15.5 59.5t36.5 30.5q23 10 51 13h123v122q2 29 12 52q10 18 30.5 34.5t59.5 16.5t59.5 -16.5t30.5 -34.5q10 -23 13 -52v-122h122q29 -2 52 -13q18 -10 34.5 -30.5t16.5 -59.5t-16.5 -59.5t-34.5 -30.5q-23 -10 -52 -12h-122v-123q-2 -29 -13 -51 q-10 -20 -30.5 -36t-59.5 -16t-59.5 15.5t-30.5 36.5q-10 23 -12 51v123h-123q-29 2 -51 12q-20 10 -36 30.5t-16 59.5z" />
<glyph unicode="," horiz-adv-x="307" d="M61 -41v143q2 29 13 52q10 18 30.5 34.5t59.5 16.5t59.5 -16.5t30.5 -34.5q10 -23 12 -52v-143q-2 -29 -12 -51q-10 -20 -30.5 -35.5t-59.5 -15.5t-59.5 15t-30.5 36q-10 23 -13 51z" />
<glyph unicode="-" horiz-adv-x="778" d="M61 389q0 39 15.5 59.5t36.5 30.5q23 10 51 13h450q29 -2 52 -13q18 -10 34.5 -30.5t16.5 -59.5t-16.5 -59.5t-34.5 -30.5q-23 -10 -52 -12h-450q-29 2 -51 12q-20 10 -36 30.5t-16 59.5z" />
<glyph unicode="." horiz-adv-x="327" d="M41 111q0 53 35 89t86 36q53 0 89 -36t36 -89q0 -51 -36 -86t-89 -35q-51 0 -86 35t-35 86z" />
<glyph unicode="/" horiz-adv-x="565" d="M35 -37l297 1108q8 27 24 47q14 16 39 26.5t62 0.5t53 -29.5t20 -42.5q6 -25 0 -53l-297 -1108q-10 -27 -26 -47q-14 -16 -38 -26.5t-60 -0.5q-39 10 -54.5 29.5t-19.5 42.5q-6 25 0 53z" />
<glyph unicode="0" horiz-adv-x="778" d="M61 225v533q4 63 41 116q31 45 97.5 82t189.5 37t189.5 -36.5t97.5 -82.5q37 -53 41 -116v-533q-4 -66 -41 -119q-31 -45 -97.5 -80.5t-189.5 -35.5t-189.5 35.5t-97.5 80.5q-37 53 -41 119zM266 225q0 -29 15 -51q10 -20 35.5 -35.5t72.5 -15.5t70.5 15.5t36.5 35.5 q12 23 16 51v344l-246 -293v-51zM266 424l246 291v43q-4 29 -16 51q-12 18 -36 34.5t-71 16.5t-72.5 -16.5t-35.5 -34.5q-14 -23 -15 -51v-334z" />
<glyph unicode="1" horiz-adv-x="778" d="M61 102q0 39 15.5 59.5t36.5 31.5q23 10 51 12h164v573h-62q-29 2 -51 13q-20 10 -35.5 30.5t-15.5 59.5t15.5 59.5t35.5 30.5q23 10 51 12h164q39 0 59.5 -16.5t30.5 -34.5q10 -23 12 -51v-676h82q29 -2 52 -12q18 -10 34.5 -31t16.5 -60t-16.5 -59t-34.5 -31 q-23 -10 -52 -12h-450q-29 2 -51 12q-20 10 -36 30.5t-16 59.5z" />
<glyph unicode="2" horiz-adv-x="778" d="M61 102q0 31 10.5 50.5t26.5 29.5l414 484v92q-4 29 -16 51q-12 18 -36 34.5t-71 16.5t-72.5 -16.5t-35.5 -34.5q-14 -23 -15 -51v-82q-2 -29 -12 -51q-10 -20 -30.5 -36t-59.5 -16t-59.5 15.5t-30.5 36.5q-10 23 -13 51v82q4 63 41 116q31 45 97.5 82t189.5 37 t189.5 -36.5t97.5 -82.5q37 -53 41 -116v-72q0 -23 -6 -43t-15 -37q-8 -19 -20 -33l-314 -368h252q29 -2 52 -12q18 -10 34.5 -31t16.5 -60t-16.5 -59t-34.5 -31q-23 -10 -52 -12h-450q-29 2 -51 12q-20 10 -36 30.5t-16 59.5z" />
<glyph unicode="3" horiz-adv-x="778" d="M61 225v62q2 29 13 51q10 18 30.5 34.5t59.5 16.5t59.5 -16.5t30.5 -34.5q10 -23 12 -51v-62q0 -29 15 -51q10 -20 35.5 -35.5t72.5 -15.5t70.5 25.5t36.5 56.5q12 37 16 82q0 66 -22.5 103.5t-49 60t-49 38t-22.5 33.5t22.5 31.5t49 34t49 54.5t22.5 95v21q-2 29 -14 51 q-10 18 -34 34.5t-65 16.5q-43 0 -65.5 -16.5t-32.5 -34.5q-12 -23 -14 -51q-2 -29 -13 -51q-10 -20 -30.5 -36t-59.5 -16t-59.5 15.5t-30.5 36.5q-10 23 -12 51q0 63 35 116q29 45 94 82t188 37q119 0 184.5 -36.5t94.5 -82.5q35 -53 39 -116v-31q0 -47 -19.5 -85 t-42.5 -64q-27 -33 -61 -56q35 -27 61 -63q23 -31 42.5 -75t19.5 -97q-4 -84 -41 -150q-31 -55 -97.5 -101t-189.5 -46t-189.5 35.5t-97.5 80.5q-37 53 -41 119z" />
<glyph unicode="4" horiz-adv-x="778" d="M41 297q0 14 4 31l240 606q12 23 32 39q16 12 42 19t61 -9t47 -38.5t12 -45.5q0 -25 -10 -51l-180 -459h141v62q2 29 12 51q10 18 30.5 34.5t59.5 16.5t59.5 -16.5t31.5 -34.5q10 -23 12 -51v-62q23 -2 41 -12q16 -10 28.5 -27.5t12.5 -52.5t-12.5 -52.5t-28.5 -27.5 q-18 -10 -41 -12v-113q-2 -29 -12 -51q-10 -20 -31 -35.5t-60 -15.5t-59 15t-31 36q-10 23 -12 51v113h-287q-29 2 -51 12q-20 10 -35.5 27.5t-15.5 52.5z" />
<glyph unicode="5" horiz-adv-x="778" d="M61 225v62q2 29 13 51q10 18 30.5 34.5t59.5 16.5t59.5 -16.5t30.5 -34.5q10 -23 12 -51v-62q0 -29 15 -51q10 -20 35.5 -35.5t72.5 -15.5t70.5 15.5t36.5 35.5q12 23 16 51v113q0 59 -30.5 88t-78 44t-101.5 21.5t-101 21.5t-78 44t-31 88v174q0 92 52.5 128t121.5 36 h369q31 0 48 -28.5t17 -59.5t-17 -58.5t-48 -27.5h-348v-113q0 -37 31.5 -49t79.5 -17t103.5 -10.5t103.5 -28t80 -69.5t32 -133v-164q-4 -66 -41 -119q-31 -45 -97.5 -80.5t-189.5 -35.5t-189.5 35.5t-97.5 80.5q-37 53 -41 119z" />
<glyph unicode="6" horiz-adv-x="778" d="M61 225v533q4 63 41 116q31 45 97.5 82t189.5 37t189.5 -36.5t97.5 -82.5q37 -53 41 -116q-2 -29 -12 -51q-10 -20 -31 -36t-60 -16t-59 15.5t-31 36.5q-10 23 -12 51q-4 29 -16 51q-12 18 -36 34.5t-71 16.5t-72.5 -16.5t-35.5 -34.5q-14 -23 -15 -51v-189 q27 6 56.5 10.5t66.5 4.5q123 0 189.5 -37t97.5 -82q37 -53 41 -117v-123q-4 -66 -41 -119q-31 -45 -97.5 -80.5t-189.5 -35.5t-189.5 35.5t-97.5 80.5q-37 53 -41 119zM266 225q0 -29 15 -51q10 -20 35.5 -35.5t72.5 -15.5t70.5 15.5t36.5 35.5q12 22 16 51v123 q-4 29 -16 51q-12 18 -36 35t-71 17q-41 0 -64.5 -12.5t-37 -29t-17.5 -33t-4 -22.5v-129z" />
<glyph unicode="7" horiz-adv-x="778" d="M61 758v133q0 35 15.5 52.5t36.5 27.5q23 10 51 12h450q29 -2 52 -12q18 -10 34.5 -27.5t16.5 -52.5q0 -14 -4 -31l-281 -807q-12 -25 -33 -41q-16 -14 -41.5 -19t-60.5 11t-47 39t-12 45q0 25 10 51l252 670h-234v-51q-2 -29 -12 -51q-10 -20 -30.5 -36t-59.5 -16 t-59.5 15.5t-30.5 36.5q-10 23 -13 51z" />
<glyph unicode="8" horiz-adv-x="778" d="M61 225v123q2 31 13 62q10 27 28.5 56.5t55.5 55.5q-29 27 -43.5 55.5t-22.5 53.5q-8 29 -10 55v72q4 63 39 116q29 45 91 82t177 37t177.5 -36.5t90.5 -82.5q35 -53 39 -116v-72q-2 -27 -10 -55q-8 -25 -23.5 -53.5t-44.5 -55.5q35 -27 54.5 -56.5t29.5 -55.5 q10 -31 15 -62v-123q-4 -66 -41 -119q-31 -45 -97.5 -80.5t-189.5 -35.5t-189.5 35.5t-97.5 80.5q-37 53 -41 119zM266 225q0 -29 15 -51q10 -20 35.5 -35.5t72.5 -15.5t70.5 15.5t36.5 35.5q12 22 16 51v123q-4 29 -16 51q-12 18 -36 35t-71 17t-72.5 -16.5t-35.5 -35.5 q-14 -23 -15 -51v-123zM266 686q2 -27 15 -49q10 -18 32.5 -34.5t65.5 -18.5h18q43 2 66.5 18t34.5 35q12 22 14 49v72q-4 29 -16 51q-12 18 -36 34.5t-71 16.5t-72.5 -16.5t-35.5 -34.5q-14 -23 -15 -51v-72z" />
<glyph unicode="9" horiz-adv-x="778" d="M61 225q2 29 13 51q10 18 30.5 35t59.5 17t59.5 -16.5t30.5 -35.5q10 -23 12 -51q0 -29 15 -51q10 -20 35.5 -35.5t72.5 -15.5t70.5 15.5t36.5 35.5q12 23 16 51v187q-53 -12 -123 -13q-123 0 -189.5 36t-97.5 81q-37 53 -41 119v123q4 63 41 116q31 45 97.5 82t189.5 37 t189.5 -36.5t97.5 -82.5q37 -53 41 -116v-533q-4 -66 -41 -119q-31 -45 -97.5 -80.5t-189.5 -35.5t-189.5 35.5t-97.5 80.5q-37 53 -41 119zM266 635q0 -29 15 -51q10 -20 35.5 -36t72.5 -16q39 0 63.5 12.5t37 29t17.5 32t5 23.5v129q-4 29 -16 51q-12 18 -36 34.5 t-71 16.5t-72.5 -16.5t-35.5 -34.5q-15 -22 -15 -51v-123z" />
<glyph unicode=":" horiz-adv-x="395" d="M61 205q0 53 35 89t86 36q53 0 89 -36t36 -89q0 -51 -35.5 -86t-89.5 -35q-51 0 -86 35t-35 86zM61 614q0 53 35 89t86 36q53 0 89 -35.5t36 -89.5q0 -51 -35.5 -85.5t-89.5 -34.5q-51 0 -86 34.5t-35 85.5z" />
<glyph unicode=";" horiz-adv-x="395" d="M61 614q0 53 35 89t86 36q53 0 89 -35.5t36 -89.5q0 -51 -35.5 -85.5t-89.5 -34.5q-51 0 -86 34.5t-35 85.5zM80 125v102q2 29 12 52q10 18 30.5 34.5t59.5 16.5t59.5 -16.5t30.5 -34.5q10 -23 13 -52v-102q-2 -29 -13 -51q-10 -20 -30.5 -35.5t-59.5 -15.5t-59.5 15 t-30.5 36q-10 23 -12 51z" />
<glyph unicode="&#x3c;" horiz-adv-x="724" d="M61 418q0 23 8.5 40t18.5 27q11 13 27 23l391 225q27 12 51 15q23 2 45.5 -8.5t42.5 -43.5q18 -35 15 -60.5t-15 -43.5q-14 -23 -37 -37l-280 -137l280 -137q23 -14 37 -37q12 -18 15.5 -44t-15.5 -61q-20 -35 -42.5 -44t-45.5 -7q-25 2 -51 14l-391 226q-16 10 -27 22 q-10 10 -18.5 27.5t-8.5 40.5z" />
<glyph unicode="=" horiz-adv-x="778" d="M61 246q0 39 15.5 59.5t36.5 30.5q23 10 51 12h450q29 -2 52 -12q18 -10 34.5 -30.5t16.5 -59.5t-16.5 -59.5t-34.5 -30.5q-23 -10 -52 -13h-450q-29 2 -51 13q-20 10 -36 30.5t-16 59.5zM61 532q0 39 15.5 59.5t36.5 31.5q23 10 51 12h450q29 -2 52 -12q18 -10 34.5 -31 t16.5 -60t-16.5 -59t-34.5 -31q-23 -10 -52 -12h-450q-29 2 -51 12q-20 10 -36 30.5t-16 59.5z" />
<glyph unicode="&#x3e;" horiz-adv-x="724" d="M61.5 636q-4.5 26 16.5 60q18 33 41.5 43.5t46.5 8.5q25 -2 51 -15l391 -225q14 -10 27 -23q10 -10 18.5 -27.5t8.5 -39.5q0 -23 -8.5 -40.5t-18.5 -27.5q-12 -12 -27 -22l-391 -226q-27 -12 -51 -14q-23 -2 -46.5 7t-41.5 44q-20 35 -16 60.5t16 44.5q14 23 37 37 l280 137l-280 137q-23 14 -37 37q-12 18 -16.5 44z" />
<glyph unicode="?" horiz-adv-x="737" d="M20 696v62q4 63 41 116q31 45 97.5 82t189.5 37t189.5 -36.5t97.5 -82.5q37 -53 41 -116v-37q0 -78 -32 -112t-70.5 -52t-70.5 -37.5t-32 -70.5v-60q-2 -29 -12 -51q-10 -20 -30.5 -35.5t-59.5 -15.5t-59.5 15t-30.5 36q-10 23 -13 51v53q0 72 32 108t71 56.5t70.5 36.5 t31.5 49v45q-4 29 -16 51q-12 18 -36 35t-71 17t-72.5 -16.5t-35.5 -35.5q-14 -23 -15 -51v-41q-2 -29 -12 -51q-10 -20 -30.5 -35.5t-59.5 -15.5t-59.5 15.5t-30.5 35.5q-10 23 -13 51zM248 111q0 53 34.5 89t86.5 36q53 0 89 -36t36 -89q0 -51 -36 -86t-89 -35 q-51 0 -86 35t-35 86z" />
<glyph unicode="@" horiz-adv-x="921" d="M61 387q0 84 32 156.5t85 127t126 86t155 31.5q84 0 156.5 -31.5t127 -86t86 -127t31.5 -156.5q0 -82 -31.5 -154.5t-86 -126t-127 -85t-156.5 -31.5q-82 0 -155 31.5t-126 85t-85 126t-32 154.5zM143 387q0 -66 25 -123t68 -100t100 -67.5t123 -24.5q68 0 126 24.5 t101 67.5t67.5 100.5t24.5 122.5q0 68 -24.5 126t-67.5 101t-101.5 68t-125.5 25q-66 0 -123 -25t-100 -68t-68 -101t-25 -126zM266 295q2 41 25 74q18 29 57 51t113 22q45 0 82 -6v33q0 23 -10.5 36t-22.5 19q-14 8 -33 6q-37 0 -59.5 -7t-37.5 -14t-26.5 -14.5t-27.5 -7.5 q-20 0 -36 10.5t-16 32.5q0 12 9.5 27.5t32 31t61.5 26t100 10.5q72 0 109 -21.5t55 -48.5q20 -31 25 -68v-213q0 -23 -6.5 -45t-27 -41.5t-61.5 -32t-110 -12.5q-74 0 -113 21.5t-57.5 48.5t-21.5 51.5t-3 30.5zM391 295q0 -20 10.5 -30.5t24.5 -14.5q15 -6 35 -6 q29 0 47 4t35 10v78q-16 4 -35 9t-47 5q-20 0 -35 -6q-14 -4 -24.5 -16.5t-10.5 -32.5z" />
<glyph unicode="A" horiz-adv-x="897" d="M31 80q-1 7 -1 15q0 18 7 38l315 791q8 18 21 32q10 12 26.5 22.5t40.5 12.5q8 1 16 1q18 0 32 -7q20 -10 32 -24q14 -16 25 -37l315 -791q7 -21 7 -39q0 -7 -1 -14q-4 -23 -18 -44.5t-49 -35.5q-24 -9 -42 -9q-11 0 -19 3q-24 8 -42 24q-18 18 -28 43l-76 226h-289 l-74 -226q-10 -25 -28 -43q-16 -16 -42 -24q-9 -3 -20 -3q-19 0 -41 9q-37 14 -50 35.5t-17 44.5zM358 451h181l-90 270z" />
<glyph unicode="B" horiz-adv-x="819" d="M61 102v779q2 23 11 45q8 16 24.5 33.5t46.5 21.5v2h308q53 0 101 -9t85 -34t58.5 -69t21.5 -113q0 -41 -11.5 -72t-29 -53.5t-39 -38.5t-41.5 -27q82 -31 132 -95t50 -165q0 -147 -78.5 -227t-248.5 -80h-308v2q-31 4 -47 20.5t-24 34.5q-8 20 -11 45zM266 184h205 q39 0 70.5 27t31.5 96q0 35 -8 56.5t-20.5 36t-26.5 20.5t-26 10l-226 12v-258zM266 621l140 -17q53 20 89.5 50t36.5 83q0 31 -25.5 56.5t-66.5 25.5h-174v-198z" />
<glyph unicode="C" horiz-adv-x="792" d="M61 246v491q6 72 43 127q16 25 40 47.5t60 41t84 29.5t111 11q100 0 168 -18.5t109 -43.5t58.5 -54t17.5 -48q0 -39 -26 -65.5t-56 -26.5q-27 0 -49.5 11.5t-51 24.5t-68.5 24.5t-102 11.5q-39 -4 -67 -18q-25 -12 -45.5 -37t-20.5 -66v-393q0 -43 20.5 -66.5t45.5 -35.5 q29 -14 67 -19q61 0 101.5 11.5t69 24.5t51 24.5t49.5 11.5q31 0 56.5 -26.5t25.5 -65.5q0 -18 -17.5 -47t-58.5 -54.5t-108.5 -44t-168.5 -18.5q-63 0 -111 11t-84 28.5t-59.5 40t-40.5 47.5q-37 55 -43 129z" />
<glyph unicode="D" horiz-adv-x="819" d="M61 92v799q2 29 13 51q10 18 30.5 34.5t59.5 16.5q184 0 303 -33.5t188.5 -98t96 -158t26.5 -211.5q0 -123 -26.5 -214.5t-95 -153t-186.5 -93t-300 -31.5h-6q-39 0 -59.5 14.5t-30.5 30.5q-10 20 -13 47zM266 195q115 0 180.5 27.5t98.5 70.5t41 96.5t8 102.5t-8 103 t-41 99t-98.5 75t-180.5 30v-604z" />
<glyph unicode="E" horiz-adv-x="792" d="M61 246v491q6 72 43 127q16 25 40 47.5t60 41t84 29.5t111 11q100 0 168 -18.5t109 -43.5t58.5 -54t17.5 -48q0 -39 -26 -65.5t-56 -26.5q-27 0 -49.5 11.5t-51 24.5t-68.5 24.5t-102 11.5q-39 -4 -67 -18q-25 -12 -45.5 -37t-20.5 -66v-104h307q29 -2 52 -13 q18 -10 34.5 -27.5t16.5 -51.5q0 -35 -16.5 -52.5t-34.5 -27.5q-23 -10 -52 -13h-307v-104q0 -43 20.5 -66.5t45.5 -35.5q29 -14 67 -19q61 0 101.5 11.5t69 24.5t51 24.5t49.5 11.5q31 0 56.5 -26.5t25.5 -65.5q0 -18 -17.5 -47t-58.5 -54.5t-108.5 -44t-168.5 -18.5 q-63 0 -111 11t-84 28.5t-59.5 40t-40.5 47.5q-37 55 -43 129z" />
<glyph unicode="F" horiz-adv-x="778" d="M61 96v641q6 72 43 127q16 25 40 47.5t60 41t84 29.5t111 11q100 0 168 -18.5t109 -43.5t58.5 -54t17.5 -48q0 -39 -26 -65.5t-56 -26.5q-27 0 -49.5 11.5t-51 24.5t-68.5 24.5t-102 11.5q-39 -4 -67 -18q-25 -12 -45.5 -37t-20.5 -66v-104h266q29 -2 52 -13 q18 -10 34.5 -27.5t16.5 -51.5q0 -35 -16.5 -52.5t-34.5 -27.5q-23 -10 -52 -13h-266v-303q-2 -29 -12 -51q-10 -20 -30.5 -35.5t-59.5 -15.5t-59.5 15.5t-30.5 35.5q-11 22 -13 51z" />
<glyph unicode="G" horiz-adv-x="839" d="M61 236v501q6 72 43 127q16 25 40 47.5t60 41t84 29.5t111 11q100 0 168 -18.5t109 -44t58.5 -54t17.5 -47.5q0 -39 -26 -65.5t-56 -26.5q-27 0 -49.5 11.5t-51 24.5t-68.5 24.5t-102 11.5q-39 -4 -67 -18q-25 -12 -45.5 -37t-20.5 -66v-412q4 -29 23 -51 q16 -20 47 -35.5t84 -15.5t87 15.5t54 35.5q23 23 33 51v41q-6 8 -15.5 9.5t-19.5 1.5h-20q-23 0 -47.5 26.5t-24.5 65.5t29.5 65.5t83.5 26.5h92q53 0 79.5 -37t26.5 -104v-269q-2 -29 -12 -51q-10 -20 -30.5 -35.5t-59.5 -15.5q-35 0 -53.5 11.5t-28.5 27.5 q-35 -18 -78 -28.5t-96 -10.5q-131 0 -203 36t-106 81q-41 53 -50 119z" />
<glyph unicode="H" horiz-adv-x="870" d="M61 102v779q2 29 13 51q10 18 30.5 34.5t59.5 16.5t59.5 -16.5t30.5 -34.5q10 -23 12 -51v-267h307v267q2 29 13 51q10 18 30.5 34.5t59.5 16.5t59.5 -16.5t30.5 -34.5q10 -23 12 -51v-779q-2 -29 -12 -51q-10 -20 -30.5 -35.5t-59.5 -15.5t-59.5 15.5t-30.5 35.5 q-10 23 -13 51v328h-307v-328q-2 -29 -12 -51q-10 -20 -30.5 -35.5t-59.5 -15.5t-59.5 15.5t-30.5 35.5q-10 23 -13 51z" />
<glyph unicode="I" horiz-adv-x="389" d="M92 96v785q2 29 12 51q10 18 31 34.5t60 16.5t59 -16.5t31 -34.5q10 -23 12 -51v-785q-2 -29 -12 -51q-10 -20 -31 -35.5t-59 -15.5q-39 0 -59.5 15.5t-31.5 35.5q-10 23 -12 51z" />
<glyph unicode="J" horiz-adv-x="782" d="M0 154q0 39 25.5 65.5t56.5 26.5q27 0 49.5 -11.5t51 -24.5t68.5 -24.5t101 -11.5q37 4 66 19q25 12 46 35.5t21 66.5v197h205v-246q-6 -74 -43 -129q-33 -47 -100.5 -87t-194.5 -40q-100 0 -167.5 18.5t-108.5 44t-58.5 54t-17.5 47.5zM485 492v389q2 29 13 51 q10 18 30.5 34.5t59.5 16.5t59.5 -16.5t30.5 -34.5q10 -23 12 -51v-389h-205z" />
<glyph unicode="K" horiz-adv-x="839" d="M61 102v779q2 29 13 51q10 18 30.5 34.5t59.5 16.5t59.5 -16.5t30.5 -34.5q10 -23 12 -51v-236q96 21 169 23h25q57 0 102 -10q54 -12 91 -33t62 -45q55 -59 63 -150v-328q-2 -29 -12 -51q-10 -20 -30.5 -35.5t-59.5 -15.5t-59.5 15.5t-30.5 35.5q-10 23 -13 51v308 q0 2 -6 17t-22.5 31.5t-44 30t-70.5 13.5q-35 0 -64.5 -6.5t-52.5 -14.5q-25 -8 -47 -20v-359q-2 -29 -12 -51q-10 -20 -30.5 -35.5t-59.5 -15.5t-59.5 15.5t-30.5 35.5q-11 22 -13 51zM512 852q0 59 39 100t98 41t100.5 -41t41.5 -100t-41 -98t-101 -39q-59 0 -98 39 t-39 98z" />
<glyph unicode="L" horiz-adv-x="751" d="M61 246v246h205v-197q0 -43 20.5 -66.5t45.5 -35.5q29 -14 67 -19q61 0 101.5 11.5t69 24.5t51 24.5t49.5 11.5q31 0 56.5 -26.5t25.5 -65.5q0 -18 -17.5 -47t-58.5 -54.5t-108.5 -44t-168.5 -18.5q-63 0 -111 11t-84 28.5t-59.5 40t-40.5 47.5q-37 55 -43 129zM61 492 v389q2 29 13 51q10 18 30.5 34.5t59.5 16.5t59.5 -16.5t30.5 -34.5q10 -23 12 -51v-389h-205z" />
<glyph unicode="M" horiz-adv-x="911" d="M61 102v779q2 29 13 51q10 18 30.5 34.5t59.5 16.5q53 0 88 -31.5t62.5 -70.5t55 -71t70.5 -32t71 32t55.5 71t62.5 70.5t88 31.5q39 0 59.5 -16.5t30.5 -34.5q10 -23 12 -51v-779q-2 -29 -12 -51q-10 -20 -30.5 -35.5t-59.5 -15.5t-59.5 15.5t-30.5 35.5q-10 23 -13 51 v574q-2 -4 -18 -20.5t-41 -35t-54.5 -33t-60.5 -14.5t-62.5 15.5t-55.5 36.5q-29 23 -56 51v-574q-2 -29 -12 -51q-10 -20 -30.5 -35.5t-59.5 -15.5t-59.5 15.5t-30.5 35.5q-10 23 -13 51z" />
<glyph unicode="N" horiz-adv-x="870" d="M61 102v779q2 29 13 51q10 18 30.5 34.5t59.5 16.5h6q12 0 25 -4l4 -2h4q10 -4 16 -8l12 -8q14 -14 19 -21q4 -6 8 -10l315 -490v441q2 29 13 51q10 18 30.5 34.5t59.5 16.5t59.5 -16.5t30.5 -34.5q10 -23 12 -51v-779q-2 -29 -12 -51q-10 -20 -30.5 -35.5t-59.5 -15.5 h-8q-18 0 -33 6q-20 8 -27 17q-14 10 -20 20q-4 6 -6 10l-316 488v-439q-2 -29 -12 -51q-10 -20 -30.5 -35.5t-59.5 -15.5t-59.5 15.5t-30.5 35.5q-10 23 -13 51z" />
<glyph unicode="O" horiz-adv-x="870" d="M61 225v533q8 63 50 116q35 45 106.5 82t202.5 37t202.5 -36.5t106.5 -82.5q39 -53 49 -116v-533q-10 -66 -49 -119q-35 -45 -106.5 -80.5t-202.5 -35.5t-203 35.5t-106 80.5q-41 53 -50 119zM266 266q4 -29 23 -51q16 -20 47 -35.5t84 -15.5t84 15.5t47 35.5 q18 22 22 51v451q-4 29 -22 51q-16 18 -47 34.5t-84 16.5t-84 -16.5t-47 -34.5q-18 -23 -23 -51v-451z" />
<glyph unicode="P" horiz-adv-x="819" d="M61 102v779q2 23 11 45q8 16 24.5 33.5t46.5 21.5v2h308q170 0 248.5 -80t78.5 -227q0 -131 -82 -200.5t-204 -86.5l-226 -27v-260q-2 -29 -12 -51q-10 -20 -30.5 -35.5t-59.5 -15.5t-59.5 15.5t-30.5 35.5q-10 23 -13 51zM266 539l226 14q12 4 26 10t26.5 20.5t20.5 36 t8 56.5q0 70 -31.5 96.5t-70.5 26.5h-205v-260z" />
<glyph unicode="Q" horiz-adv-x="870" d="M61 225v533q8 63 50 116q35 45 106.5 82t202.5 37t202.5 -36.5t106.5 -82.5q39 -53 49 -116v-533q-8 -57 -43 -104q-29 -41 -91 -76t-173 -43q6 -51 33.5 -77.5t68.5 -26.5q27 0 47.5 8t38 17t34 17.5t34.5 8.5q31 0 46 -11.5t15 -50.5q0 -18 -12 -39.5t-40.5 -40 t-76 -31t-116.5 -12.5q-104 0 -159.5 36t-82.5 81q-31 53 -35 119v18q-74 20 -114.5 54t-61.5 69q-23 39 -29 84zM266 266q4 -29 23 -51q16 -20 47 -35.5t84 -15.5t84 15.5t47 35.5q18 22 22 51v451q-4 29 -22 51q-16 18 -47 34.5t-84 16.5t-84 -16.5t-47 -34.5 q-18 -23 -23 -51v-451z" />
<glyph unicode="R" horiz-adv-x="829" d="M61 102v779q2 23 11 45q8 16 24.5 33.5t46.5 21.5v2h308q170 0 248.5 -80t78.5 -227q0 -92 -42 -153.5t-111 -96.5l153 -279q10 -27 13 -51q0 -23 -9.5 -45.5t-44.5 -40.5q-29 -15 -51 -15q-6 0 -10 1q-26 4 -41 16q-20 14 -35 39l-184 328l-150 -17v-260q-2 -29 -12 -51 q-10 -20 -30.5 -35.5t-59.5 -15.5t-59.5 15.5t-30.5 35.5q-10 23 -13 51zM266 539l226 14q12 4 26 10t26.5 20.5t20.5 36t8 56.5q0 70 -31.5 96.5t-70.5 26.5h-205v-260z" />
<glyph unicode="S" horiz-adv-x="761" d="M41 154q0 39 17.5 70.5t64.5 31.5q35 0 55.5 -14.5t43 -31.5t56 -31.5t95.5 -14.5q61 0 107 31.5t46 101.5q0 41 -34.5 66.5t-87 47t-114 45t-113.5 58.5t-87 88t-35 135q0 39 12.5 83t44 83t85 64.5t135.5 25.5q100 0 164.5 -18.5t101.5 -44t51.5 -54t14.5 -47.5 q0 -39 -26 -55t-56 -16q-27 0 -49.5 8t-48 17.5t-56.5 17.5t-76 8q-31 0 -61.5 -19.5t-30.5 -72.5q0 -39 35 -63.5t87 -46t113.5 -46t114 -61.5t87 -93.5t34.5 -140.5q0 -47 -17.5 -95t-58.5 -89t-109.5 -66.5t-172.5 -25.5q-100 0 -165 18.5t-101.5 44t-51 54t-14.5 47.5z " />
<glyph unicode="T" horiz-adv-x="798" d="M31 891q0 35 15 52.5t36 27.5q23 10 51 12h533q29 -2 51 -12q18 -10 34.5 -27.5t16.5 -52.5t-16.5 -52.5t-34.5 -27.5q-23 -10 -51 -12h-164v-703q-2 -29 -13 -51q-10 -20 -30.5 -35.5t-59.5 -15.5t-59.5 15.5t-30.5 35.5q-10 23 -12 51v703h-164q-29 2 -51 12 q-20 10 -35.5 27.5t-15.5 52.5z" />
<glyph unicode="U" horiz-adv-x="870" d="M61 225v656q2 29 13 51q10 18 30.5 34.5t59.5 16.5t59.5 -16.5t30.5 -34.5q10 -23 12 -51v-615q4 -29 23 -51q16 -20 47 -35.5t84 -15.5t84 15.5t47 35.5q18 23 22 51v615q2 29 13 51q10 18 30.5 34.5t59.5 16.5t59.5 -16.5t30.5 -34.5q10 -23 12 -51v-656 q-10 -66 -49 -119q-35 -45 -106.5 -80.5t-202.5 -35.5t-203 35.5t-106 80.5q-41 53 -50 119z" />
<glyph unicode="V" horiz-adv-x="897" d="M31 905q4 23 17 44.5t50 35.5q22 8 40 8q10 0 20 -3q26 -7 43 -23q18 -18 28 -43l220 -545l219 545q10 25 28 43q16 16 41 23q9 3 20 3q19 0 42 -8q35 -14 49 -35.5t18 -44.5q1 -7 1 -15q0 -18 -7 -38l-315 -791q-8 -18 -21 -32q-10 -12 -27.5 -23.5t-39.5 -11.5 q-8 -1 -16 -1q-19 0 -33 7q-20 10 -31 25q-14 16 -25 36l-315 791q-7 21 -7 39q0 7 1 14z" />
<glyph unicode="W" horiz-adv-x="911" d="M61 102v779q2 29 13 51q10 18 30.5 34.5t59.5 16.5t59.5 -16.5t30.5 -34.5q10 -23 12 -51v-574q2 4 18.5 20.5t41 35t54.5 33t60 14.5q31 0 61.5 -16.5t55.5 -35.5q29 -23 57 -51v574q2 29 13 51q10 18 30.5 34.5t59.5 16.5t59.5 -16.5t30.5 -34.5q10 -23 12 -51v-779 q-2 -29 -12 -51q-10 -20 -30.5 -35.5t-59.5 -15.5q-53 0 -88 31.5t-62.5 70.5t-55.5 71t-71 32t-70.5 -32t-55 -71t-62.5 -70.5t-88 -31.5q-39 0 -59.5 15.5t-30.5 35.5q-10 23 -13 51z" />
<glyph unicode="X" horiz-adv-x="790" d="M43 104q2 25 14 52l217 336l-217 335q-12 27 -14 52v8q0 19 7 37q9 22 44 43q28 15 51 15h7q26 -3 45 -15q23 -14 36 -37l162 -252l162 252q14 23 37 37q18 12 43 15h7q23 0 52 -15q34 -20 44 -43q9 -19 8 -38v-7q-2 -25 -15 -52l-217 -335l217 -336q12 -27 15 -52v-7 q0 -19 -8 -39q-10 -23 -44 -42q-29 -17 -51 -17q-5 0 -9 1q-24 4 -42 16q-23 14 -37 37l-162 250l-162 -250q-14 -23 -36 -37q-18 -12 -44 -16q-4 -1 -9 -1q-23 0 -50 17q-35 18 -44 42q-7 20 -7 38v8z" />
<glyph unicode="Y" horiz-adv-x="770" d="M33 879v8q0 19 7 37q9 23 44 43q28 15 51 15h7q26 -3 44 -15q23 -14 37 -37l162 -254l162 254q14 23 37 37q18 12 42 15h8q22 0 52 -15q33 -20 43 -43q8 -19 8 -38v-7q-2 -25 -14 -52l-231 -362v-369q-2 -29 -13 -51q-10 -20 -30.5 -35.5t-59.5 -15.5t-59.5 15.5 t-30.5 35.5q-10 23 -12 51v357q-4 4 -4 6q-2 2 -2 4l-234 364q-12 27 -14 52z" />
<glyph unicode="Z" horiz-adv-x="878" d="M61 92q0 31 15 51l407 656h-278q-29 2 -51 12q-20 10 -36 27.5t-16 52.5t15.5 52.5t36.5 27.5q23 10 51 12h430q29 -2 51 -12q18 -10 34.5 -27.5t16.5 -52.5q0 -31 -14 -51l-389 -656h260v62q2 29 12 51q10 18 27.5 34.5t52.5 16.5t52.5 -16.5t27.5 -34.5q10 -23 12 -51 v-154q0 -35 -16.5 -52t-34.5 -28q-23 -10 -51 -12h-512q-29 2 -51 12q-20 10 -36 27.5t-16 52.5z" />
<glyph unicode="[" horiz-adv-x="532" d="M61 133v717q0 96 14.5 157.5t51.5 97.5t102.5 49t169.5 13q47 0 75 -22.5t28 -69.5t-28 -69.5t-75 -22.5q-31 0 -55.5 2t-41.5 -6t-26.5 -35t-9.5 -84v-737q0 -57 9.5 -84t26.5 -35t42 -6t55 2q47 0 75 -22.5t28 -69.5t-28 -69.5t-75 -22.5q-104 0 -169.5 13t-102.5 49 t-51.5 97.5t-14.5 157.5z" />
<glyph unicode="\" horiz-adv-x="565" d="M35 1020q-6 29 0 53q4 23 19.5 42.5t54.5 29.5q37 10 60.5 0t37.5 -27q16 -20 26 -47l297 -1108q6 -29 0 -53q-4 -23 -20 -42.5t-53 -29.5t-61.5 0t-39.5 27q-16 20 -24 47z" />
<glyph unicode="]" horiz-adv-x="532" d="M31 -92q0 47 27.5 69.5t74.5 22.5q31 0 55.5 -2t42 6t26.5 35t9 84v737q0 57 -9 84t-26.5 35t-42 6t-55.5 -2q-47 0 -74.5 22.5t-27.5 69.5t27.5 69.5t74.5 22.5q104 0 170 -13t102.5 -49t51 -97.5t14.5 -157.5v-717q0 -96 -14.5 -157.5t-51 -97.5t-102 -49t-170.5 -13 q-47 0 -74.5 22.5t-27.5 69.5z" />
<glyph unicode="^" horiz-adv-x="778" d="M59 487q2 25 15 52l225 391q10 14 23 26q10 10 27.5 18.5t39.5 8.5q23 0 40 -8t28 -19q12 -12 22 -26l226 -391q12 -27 14 -52q2 -23 -8.5 -46t-42.5 -42q-35 -20 -60.5 -16t-44.5 16q-23 14 -37 37l-137 281l-137 -281q-14 -23 -37 -37q-18 -12 -44 -16t-60 16 q-35 18 -44.5 42t-7.5 46z" />
<glyph unicode="_" horiz-adv-x="778" d="M61 102q0 39 15.5 59.5t36.5 31.5q23 10 51 12h450q29 -2 52 -12q18 -10 34.5 -31t16.5 -60t-16.5 -59t-34.5 -31q-23 -10 -52 -12h-450q-29 2 -51 12q-20 10 -36 30.5t-16 59.5z" />
<glyph unicode="`" horiz-adv-x="307" d="M61 778v103q2 29 13 51q10 18 30.5 34.5t59.5 16.5t59.5 -16.5t30.5 -34.5q10 -23 12 -51v-103q-2 -29 -12 -51q-10 -20 -30.5 -35.5t-59.5 -15.5t-59.5 15.5t-30.5 35.5q-10 23 -13 51z" />
<glyph unicode="a" horiz-adv-x="768" d="M51 240q4 68 39 120q14 23 37 44.5t56.5 39t79.5 27.5t106 10q39 0 71.5 -3t61.5 -7v53q0 39 -16.5 58.5t-36.5 29.5q-23 10 -54 13q-61 0 -98 -11.5t-61.5 -25t-44 -24.5t-46.5 -11q-31 0 -56.5 16.5t-25.5 55.5q0 18 14.5 44.5t51.5 51t101.5 41t164.5 16.5 q117 0 180.5 -35.5t92.5 -76.5q35 -51 39 -113v-348q0 -35 -10.5 -73t-45.5 -69.5t-101.5 -52t-180.5 -20.5q-119 0 -183.5 34.5t-94.5 78.5t-35 84t-5 53zM256 240q0 -35 16.5 -52.5t38.5 -25.5q25 -8 58 -8q47 0 78.5 7t54.5 17v127q-23 10 -54.5 16.5t-78.5 6.5 q-33 -2 -58 -11q-23 -8 -39 -26.5t-16 -50.5z" />
<glyph unicode="b" horiz-adv-x="778" d="M61 102v789q2 29 13 51q10 18 30.5 34.5t59.5 16.5t59.5 -16t30.5 -35q10 -23 12 -51v-133q29 10 61.5 15t71.5 5q119 0 184.5 -35.5t94.5 -76.5q35 -51 39 -113v-328q-4 -63 -39 -112q-29 -43 -94.5 -78t-184.5 -35q-49 0 -88 8t-71 23q-12 -14 -29.5 -22.5t-46.5 -8.5 q-39 0 -59.5 15.5t-30.5 35.5q-10 23 -13 51zM266 176q23 -10 54.5 -16t78.5 -6q31 2 56 12q23 10 40 29.5t17 58.5v270q0 39 -17.5 58.5t-39.5 29.5q-25 10 -56 13q-47 0 -78.5 -6.5t-54.5 -16.5v-426z" />
<glyph unicode="c" horiz-adv-x="751" d="M61 225v328q4 61 39 113q29 41 93.5 76.5t185.5 35.5q100 0 164.5 -16.5t101.5 -41t51.5 -51t14.5 -44.5q0 -39 -26 -55.5t-56 -16.5q-27 0 -46.5 11t-44 24.5t-61.5 25t-98 11.5q-33 -2 -57 -13q-23 -10 -39.5 -29.5t-16.5 -58.5v-270q0 -39 16.5 -58.5t39.5 -29.5 q25 -10 57 -12q61 0 98 11t61.5 24.5t44 24.5t46.5 11q31 0 56.5 -16t25.5 -55q0 -18 -14.5 -47t-51.5 -54.5t-101.5 -44t-164.5 -18.5q-121 0 -185.5 35.5t-93.5 80.5q-35 53 -39 119z" />
<glyph unicode="d" horiz-adv-x="808" d="M61 225v328q4 61 39 113q29 41 93.5 76.5t185.5 35.5q39 0 71.5 -5t61.5 -15v133q2 29 12 51q10 18 30.5 34.5t59.5 16.5t59.5 -16t31.5 -35q10 -23 12 -51v-789q-2 -29 -12 -51q-10 -20 -31 -35.5t-60 -15.5q-29 0 -47 8t-28 23q-33 -14 -73 -22.5t-87 -8.5 q-121 0 -185.5 35t-93.5 78q-35 49 -39 112zM266 254q0 -39 16.5 -58.5t39.5 -29.5q25 -10 57 -12q47 0 78.5 6t54.5 16v426q-23 10 -54.5 16.5t-78.5 6.5q-33 -2 -57 -13q-23 -10 -39.5 -29.5t-16.5 -58.5v-270z" />
<glyph unicode="e" horiz-adv-x="755" d="M61 236v296q0 39 16.5 82t53.5 80t96.5 60.5t145.5 23.5q154 0 243 -63.5t89 -173.5q0 -37 -14.5 -78t-45.5 -74t-77 -54.5t-109 -21.5q-14 -1 -27 -1q-36 0 -63 4q-37 6 -60 12q-27 8 -43 14v-78q0 -39 16.5 -58.5t36.5 -29.5q23 -10 54 -12q61 0 98 11t61.5 24.5t44 25 t46.5 11.5q31 0 56.5 -16.5t25.5 -55.5q0 -18 -14.5 -48t-51.5 -57.5t-101.5 -48t-164.5 -20.5q-117 0 -180.5 38t-92.5 85q-35 53 -39 123zM266 481q12 -4 33 -10q16 -4 42 -8t60 -4q41 0 66 8t37 19.5t15 23.5t3 20q0 33 -13 52.5t-34.5 29t-47 11.5t-48.5 2 q-33 -2 -57 -13q-23 -10 -39.5 -29.5t-16.5 -58.5v-43z" />
<glyph unicode="f" horiz-adv-x="612" d="M61 96v559q0 63 25 118.5t62.5 97.5t84 70t91.5 38q65 12 114 12q25 0 46 -3q61 -9 96.5 -31.5t49 -50t13.5 -46.5q0 -39 -19.5 -55.5t-50.5 -16.5q-25 0 -42 12.5t-42.5 30t-66.5 34t-115 24.5q-16 -14 -23.5 -26.5t-11.5 -22.5q-6 -12 -6 -23v-264h123q23 -2 41 -10 q16 -8 28.5 -24.5t12.5 -47.5t-12.5 -47t-28.5 -25q-18 -8 -41 -10h-123v-293q-2 -29 -12 -51q-10 -20 -30.5 -35.5t-59.5 -15.5t-59.5 15.5t-30.5 35.5q-11 22 -13 51z" />
<glyph unicode="g" horiz-adv-x="808" d="M61 225v328q4 61 39 113q29 41 93.5 76.5t185.5 35.5q47 0 87 -8t73 -22q10 12 28.5 21t46.5 9q39 0 59.5 -16.5t31.5 -34.5q10 -22 12 -51v-635q0 -66 -24.5 -121t-62.5 -97t-84 -70.5t-91 -37.5q-65 -12 -115 -12q-24 0 -45 3q-62 9 -97.5 31.5t-49 50.5t-13.5 46 q0 39 19.5 55.5t50.5 16.5q25 0 42 -13.5t42.5 -30t66.5 -32.5t115 -25q14 12 22.5 25.5t12.5 24.5q6 12 6 22v143q-29 -10 -61.5 -15t-71.5 -5q-121 0 -185.5 35t-93.5 78q-35 49 -39 112zM266 254q0 -39 16.5 -58.5t39.5 -29.5q24 -10 57 -12q47 0 78.5 6t54.5 16v426 q-23 10 -54.5 16.5t-78.5 6.5q-33 -2 -57 -13q-23 -10 -39.5 -29.5t-16.5 -58.5v-270z" />
<glyph unicode="h" horiz-adv-x="778" d="M61 102v789q2 29 13 51q10 18 30.5 34.5t59.5 16.5t59.5 -16t30.5 -35q10 -23 12 -51v-143q29 10 61.5 15t71.5 5q119 0 184.5 -36t94.5 -77q35 -51 39 -112v-441q-2 -29 -12 -51q-10 -20 -31 -35.5t-60 -15.5t-59 15.5t-31 35.5q-10 23 -12 51v412q0 39 -17.5 58.5 t-39.5 29.5q-25 10 -56 12q-47 0 -78.5 -6t-54.5 -16v-490q-2 -29 -12 -51q-10 -20 -30.5 -35.5t-59.5 -15.5t-59.5 15.5t-30.5 35.5q-10 23 -13 51z" />
<glyph unicode="i" horiz-adv-x="409" d="M92 881q0 47 33 79.5t80 32.5t79.5 -32.5t32.5 -79.5t-32.5 -80t-79.5 -33t-80 33t-33 80zM102 96v477q2 29 13 52q10 18 30.5 34.5t59.5 16.5t59.5 -16.5t30.5 -34.5q10 -23 12 -52v-477q-2 -29 -12 -51q-10 -20 -30.5 -35.5t-59.5 -15.5t-59.5 15.5t-30.5 35.5 q-10 23 -13 51z" />
<glyph unicode="j" horiz-adv-x="409" d="M92 881q0 47 33 79.5t80 32.5t79.5 -32.5t32.5 -79.5t-32.5 -80t-79.5 -33t-80 33t-33 80zM102 -246v819q2 29 13 52q10 18 30.5 34.5t59.5 16.5t59.5 -16.5t30.5 -34.5q10 -23 12 -52v-819q-2 -29 -12 -51q-10 -20 -30.5 -35.5t-59.5 -15.5t-59.5 15.5t-30.5 35.5 q-10 23 -13 51z" />
<glyph unicode="k" horiz-adv-x="778" d="M61 102v789q2 29 13 51q10 18 30.5 34.5t59.5 16.5t59.5 -16t30.5 -35q10 -23 12 -51v-399q88 20 154 22h21q55 0 95 -9q48 -11 79.5 -32.5t52.5 -46.5q47 -59 49 -150v-174q-2 -29 -12 -51q-10 -20 -31 -35.5t-60 -15.5t-59 15.5t-31 35.5q-10 23 -12 51v174 q-4 25 -16 46q-12 16 -36 31.5t-71 15.5q-35 0 -58.5 -6.5t-37.5 -14.5q-16 -8 -27 -20v-226q-2 -29 -12 -51q-10 -20 -30.5 -35.5t-59.5 -15.5t-59.5 15.5t-30.5 35.5q-10 23 -13 51zM483 664q0 53 35 88.5t86 35.5q53 0 89 -35.5t36 -88.5q0 -51 -36 -86t-89 -35 q-51 0 -86 35t-35 86z" />
<glyph unicode="l" horiz-adv-x="389" d="M92 96v795q2 29 12 51q10 18 31 34.5t60 16.5t59 -16t31 -35q10 -23 12 -51v-795q-2 -29 -12 -51q-10 -20 -31 -35.5t-59 -15.5q-39 0 -59.5 15.5t-31.5 35.5q-10 22 -12 51z" />
<glyph unicode="m" horiz-adv-x="1228" d="M61 102v574q2 29 13 51q10 18 30.5 34.5t59.5 16.5t59.5 -16.5t30.5 -34.5q10 -23 12 -51v-25q47 53 108.5 90t137.5 37q45 0 78 -13t55.5 -33.5t35.5 -46.5t21 -50q47 57 113 100t148 43q78 0 117.5 -35.5t60.5 -76.5q23 -51 26 -113v-451q-2 -29 -12 -51 q-10 -20 -30.5 -35.5t-59.5 -15.5t-59.5 15.5t-30.5 35.5q-10 23 -12 51v422q0 37 -14.5 57.5t-30.5 30.5q-20 10 -44 13q-66 0 -101.5 -33t-55.5 -72v-418q-2 -29 -12 -51q-10 -20 -31 -35.5t-60 -15.5t-59 15.5t-31 35.5q-10 23 -12 51v422q0 37 -14.5 57.5t-30.5 30.5 q-20 10 -43 13q-66 0 -101.5 -33t-56.5 -72v-418q-2 -29 -12 -51q-10 -20 -30.5 -35.5t-59.5 -15.5t-59.5 15.5t-30.5 35.5q-10 23 -13 51z" />
<glyph unicode="n" horiz-adv-x="778" d="M61 102v574q2 29 13 51q10 18 30.5 34.5t59.5 16.5t59.5 -16.5t30.5 -34.5q10 -23 12 -51v-25q47 53 108.5 90t137.5 37q78 0 118 -35.5t60 -76.5q23 -51 27 -113v-451q-2 -29 -12 -51q-10 -20 -31 -35.5t-60 -15.5t-59 15.5t-31 35.5q-10 23 -12 51v422q0 37 -14.5 57.5 t-30.5 30.5q-20 10 -43 13q-66 0 -101.5 -33t-56.5 -72v-418q-2 -29 -12 -51q-10 -20 -30.5 -35.5t-59.5 -15.5t-59.5 15.5t-30.5 35.5q-10 23 -13 51z" />
<glyph unicode="o" horiz-adv-x="778" d="M61 225v328q4 63 41 117q31 45 97.5 81.5t189.5 36.5t189.5 -36.5t97.5 -81.5q37 -53 41 -117v-328q-4 -66 -41 -119q-31 -45 -97.5 -80.5t-189.5 -35.5t-189.5 35.5t-97.5 80.5q-37 53 -41 119zM266 246q0 -29 15 -51q10 -20 35.5 -36t72.5 -16t70.5 15.5t36.5 36.5 q12 22 16 51v286q-4 29 -16 52q-12 18 -36 34.5t-71 16.5t-72.5 -16.5t-35.5 -34.5q-14 -23 -15 -52v-286z" />
<glyph unicode="p" horiz-adv-x="778" d="M61 -225v901q2 29 13 51q10 18 30.5 34.5t59.5 16.5q29 0 46 -9t30 -21q33 14 71.5 22t87.5 8q119 0 184.5 -35.5t94.5 -76.5q35 -51 39 -113v-328q-4 -63 -39 -112q-29 -43 -94.5 -78t-184.5 -35q-39 0 -71.5 5t-61.5 15v-245q-2 -29 -12 -51q-10 -20 -30.5 -36 t-59.5 -16t-59.5 15.5t-30.5 36.5q-10 23 -13 51zM266 176q23 -10 54.5 -16t78.5 -6q31 2 56 12q23 10 40 29.5t17 58.5v270q0 39 -17.5 58.5t-39.5 29.5q-25 10 -56 13q-47 0 -78.5 -6.5t-54.5 -16.5v-426z" />
<glyph unicode="q" horiz-adv-x="808" d="M61 225v328q4 61 39 113q29 41 93.5 76.5t185.5 35.5q47 0 87 -8t73 -22q10 12 28.5 21t46.5 9q39 0 59.5 -16.5t31.5 -34.5q10 -23 12 -51v-901q-2 -29 -12 -51q-10 -20 -31 -36t-60 -16t-59 15.5t-31 36.5q-10 23 -12 51v245q-29 -10 -61.5 -15t-71.5 -5 q-121 0 -185.5 35t-93.5 78q-35 49 -39 112zM266 254q0 -39 16.5 -58.5t39.5 -29.5q25 -10 57 -12q47 0 78.5 6t54.5 16v426q-23 10 -54.5 16.5t-78.5 6.5q-33 -2 -57 -13q-23 -10 -39.5 -29.5t-16.5 -58.5v-270z" />
<glyph unicode="r" horiz-adv-x="624" d="M61 96v580q2 29 13 51q10 18 30.5 34.5t59.5 16.5q29 0 46 -8t28 -20q27 10 56.5 17t63.5 7q76 0 127.5 -16.5t82 -41t44 -51t13.5 -44.5q0 -39 -26 -55.5t-56 -16.5q-27 0 -43.5 11t-33.5 24.5t-41 25t-67 11.5q-25 -2 -45 -13q-16 -10 -30.5 -28.5t-16.5 -53.5v-430 q-2 -29 -12 -51q-10 -20 -30.5 -35.5t-59.5 -15.5t-59.5 15.5t-30.5 35.5q-10 23 -13 51z" />
<glyph unicode="s" horiz-adv-x="737" d="M47 154q0 39 25.5 60.5t56.5 21.5q27 0 46.5 -11.5t44 -25t61 -24.5t98.5 -11q31 0 55 8q23 6 40.5 20.5t17.5 43.5q0 39 -32 58t-80 33.5t-103.5 28t-103.5 38t-80 66t-32 113.5q4 57 35 103q27 39 82 70.5t160 31.5q100 0 164.5 -16.5t101.5 -41t51.5 -51t14.5 -44.5 q0 -39 -26 -55.5t-56 -16.5q-27 0 -47.5 11t-47 24.5t-62.5 25t-93 11.5q-27 -2 -47 -11q-16 -8 -30.5 -24.5t-14.5 -46.5q0 -33 33.5 -49.5t83 -28.5t108.5 -25.5t108.5 -40t83 -71.5t33.5 -123q-4 -61 -39 -109q-29 -41 -94 -73.5t-184 -32.5q-100 0 -164.5 18.5 t-101.5 44t-51.5 54t-14.5 47.5z" />
<glyph unicode="t" horiz-adv-x="624" d="M61 328v563q2 29 13 51q10 18 30.5 34.5t59.5 16.5t59.5 -16t30.5 -35q10 -23 12 -51v-154h123q23 -2 41 -10q16 -8 28.5 -24.5t12.5 -47.5t-12.5 -47t-28.5 -24q-18 -8 -41 -11h-123v-409q0 -10 6 -23q4 -10 11.5 -23.5t23.5 -25.5q74 8 115 24.5t66.5 33t43 30 t41.5 12.5q31 0 50.5 -16t19.5 -55q0 -18 -13.5 -46t-49.5 -51q-34 -22 -96 -31q-20 -3 -46 -3q-49 0 -114 12q-45 8 -91.5 37t-84 71t-62.5 97t-25 121z" />
<glyph unicode="u" horiz-adv-x="778" d="M61 225v451q2 29 13 51q10 18 30.5 34.5t59.5 16.5t59.5 -16.5t30.5 -34.5q10 -23 12 -51v-430q0 -29 15 -51q10 -20 35.5 -36t72.5 -16t70.5 15.5t36.5 36.5q12 23 16 51v430q2 29 12 51q10 18 30.5 34.5t59.5 16.5t59.5 -16.5t31.5 -34.5q10 -23 12 -51v-451 q-4 -66 -41 -119q-31 -45 -97.5 -80.5t-189.5 -35.5t-189.5 35.5t-97.5 80.5q-37 53 -41 119z" />
<glyph unicode="v" horiz-adv-x="749" d="M33 698q4 23 17 43.5t50 34.5q21 7 39 7q11 0 21 -3q26 -8 43 -24q18 -18 28 -43l144 -365l143 365q10 25 29 43q17 16 41 24q10 3 21 3q18 0 40 -7q35 -14 49.5 -34.5t18.5 -43.5q1 -8 1 -17q0 -17 -5 -36l-232 -582q-10 -20 -24 -36q-12 -14 -33 -25.5t-49 -11.5 q-29 0 -49.5 11t-32.5 26q-14 16 -25 36l-231 582q-5 19 -5 36q0 9 1 17z" />
<glyph unicode="w" horiz-adv-x="808" d="M61 102v574q2 29 13 51q10 18 30.5 34.5t59.5 16.5t59.5 -16.5t30.5 -34.5q10 -23 12 -51v-369q2 2 13.5 15.5t28 29t38 26.5t43.5 11q23 0 45.5 -12t38.5 -29q20 -18 39 -41v369q2 29 12 51q10 18 30.5 34.5t59.5 16.5t59.5 -16.5t31.5 -34.5q10 -23 12 -51v-574 q-2 -29 -12 -51q-10 -20 -31 -35.5t-60 -15.5t-65.5 31.5t-51 70.5t-49 71t-59.5 32t-59.5 -32t-49 -71t-51 -70.5t-65.5 -31.5t-59.5 15.5t-30.5 35.5q-10 23 -13 51z" />
<glyph unicode="x" horiz-adv-x="749" d="M43 113q4 25 20 49l183 227l-183 227q-16 25 -20 50q-1 8 -1 17q0 15 4 29q7 23 40 46q30 23 56 23h2q26 0 44 -11q23 -12 39 -35l148 -205l147 205q16 23 39 35q18 10 44 11h1q26 0 58 -23q31 -22 39 -46q5 -16 5 -31q0 -8 -1 -15q-4 -25 -21 -50l-182 -227l182 -227 q16 -25 21 -49q1 -7 1 -15q0 -16 -6 -32q-8 -24 -38 -46q-32 -23 -57 -23l-1 1q-26 0 -45 10q-23 10 -39 35l-147 205l-148 -205q-16 -25 -39 -35q-18 -10 -44.5 -10t-57.5 22q-33 22 -40 46q-4 15 -4 30q0 9 1 17z" />
<glyph unicode="y" horiz-adv-x="808" d="M61 225v451q2 29 13 51q10 18 30.5 34.5t59.5 16.5t59.5 -16.5t30.5 -34.5q10 -23 12 -51v-422q0 -39 16.5 -58.5t39.5 -29.5q25 -10 57 -12q47 0 78.5 6t54.5 16v500q2 29 12 51q10 18 30.5 34.5t59.5 16.5t59.5 -16.5t31.5 -34.5q10 -23 12 -51v-635q0 -66 -24.5 -121 t-62.5 -97t-84 -70.5t-91 -37.5q-65 -12 -115 -12q-24 0 -45 3q-62 9 -97.5 31.5t-49 50.5t-13.5 46q0 39 19.5 55.5t50.5 16.5q25 0 42 -13.5t42.5 -30t66.5 -32.5t115 -25q14 12 22.5 25.5t12.5 24.5q6 12 6 22v143q-29 -10 -61.5 -15t-71.5 -5q-121 0 -185.5 35t-93.5 78 q-35 49 -39 112z" />
<glyph unicode="z" horiz-adv-x="737" d="M41 102q0 27 10 47.5t48 63.5t111 126t196 234h-242q-29 2 -51 13q-20 10 -36 30.5t-16 59.5t15.5 59.5t36.5 30.5q23 10 51 12h430q29 -2 51 -12q18 -10 34.5 -30.5t16.5 -59.5q0 -18 -4 -31.5t-17 -33t-38 -47t-66 -74t-100 -116t-141 -169.5h264q29 -2 51 -12 q18 -10 34.5 -31t16.5 -60t-16 -59t-35 -31q-23 -10 -51 -12h-451q-29 2 -51 12q-20 10 -35.5 30.5t-15.5 59.5z" />
<glyph unicode="{" horiz-adv-x="598" d="M61 492q0 35 18.5 61.5t47.5 36.5v260q0 96 14.5 157.5t51 97.5t102 49t170.5 13q47 0 74.5 -22.5t27.5 -69.5t-27.5 -69.5t-74.5 -22.5q-31 0 -55.5 2t-42 -6t-26.5 -35t-9 -84v-303l-66 -65l66 -66v-303q0 -57 9 -84t26.5 -35t42 -6t55.5 2q47 0 74.5 -22.5t27.5 -69.5 t-27.5 -69.5t-74.5 -22.5q-104 0 -170 13t-102.5 49t-51 97.5t-14.5 157.5v264q-29 10 -47.5 36t-18.5 59z" />
<glyph unicode="|" horiz-adv-x="389" d="M92 -82v1147q2 29 12 51q10 18 31 34.5t60 16.5t59 -16t31 -35q10 -23 12 -51v-1147q-2 -29 -12 -51q-10 -20 -31 -35.5t-59 -15.5q-39 0 -59.5 15t-31.5 36q-10 23 -12 51z" />
<glyph unicode="}" horiz-adv-x="614" d="M31 -92q0 47 27.5 69.5t74.5 22.5q31 0 55.5 -2t42 6t26.5 35t9 84v303l66 66l-66 65v303q0 57 -9 84t-26.5 35t-42 6t-55.5 -2q-47 0 -74.5 22.5t-27.5 69.5t27.5 69.5t74.5 22.5q104 0 170 -13t102.5 -49t51 -97.5t14.5 -157.5v-260q29 -10 47.5 -37t18.5 -61 q0 -33 -18.5 -58.5t-47.5 -36.5v-264q0 -96 -14.5 -157.5t-51 -97.5t-102 -49t-170.5 -13q-47 0 -74.5 22.5t-27.5 69.5z" />
<glyph unicode="~" horiz-adv-x="839" d="M62 379q4 27 16 43q14 20 37 35l213 123q27 12 51 14q23 2 45 -8.5t43 -44.5q4 -10 8 -18.5t6 -18.5l129 76q27 12 52 14q23 2 45 -8.5t43 -44.5q18 -35 15 -60.5t-15 -42.5q-14 -20 -37 -35l-213 -122q-27 -12 -51 -15q-23 -2 -47 8t-42 45q-10 16 -14 35l-129 -73 q-27 -12 -51 -15q-23 -2 -46.5 8.5t-41.5 44.5q-20 33 -16 60z" />
<glyph unicode="&#xa2;" horiz-adv-x="751" d="M61 389v205q4 51 29 94q23 37 67 72t130 51v70q2 29 12 51q10 18 30.5 34.5t59.5 16.5t59.5 -16.5t30.5 -34.5q10 -23 13 -51v-70q63 -10 106 -27.5t67.5 -38t35 -42t10.5 -37.5q0 -39 -26 -55.5t-56 -16.5q-27 0 -46.5 11t-44 24.5t-61.5 25t-98 11.5q-33 -2 -57 -13 q-23 -10 -39.5 -29.5t-16.5 -58.5v-147q0 -39 16.5 -58.5t39.5 -29.5q25 -10 57 -13q61 0 98 11.5t61.5 25t44 24.5t46.5 11q31 0 56.5 -16.5t25.5 -55.5q0 -16 -10.5 -38.5t-35 -45t-67.5 -42t-106 -29.5v-70q-2 -29 -13 -51q-10 -20 -30.5 -35.5t-59.5 -15.5t-59.5 15 t-30.5 36q-10 23 -12 51v68q-86 16 -130 52t-67 77q-25 45 -29 100z" />
<glyph unicode="&#xa3;" horiz-adv-x="972" d="M61 102q0 39 15.5 59.5t36.5 31.5q23 10 51 12v184q-29 2 -51 12q-20 10 -36 27.5t-16 52.5t15.5 52.5t36.5 27.5q23 10 51 12v164q6 72 43 127q16 25 39.5 47.5t59.5 41t84 29.5t112 11q100 0 167.5 -18.5t108.5 -44t58.5 -54t17.5 -47.5q0 -39 -25.5 -65.5t-56.5 -26.5 q-27 0 -49.5 11.5t-51 24.5t-68.5 24.5t-101 11.5q-39 -4 -68 -18q-25 -12 -45 -37t-20 -66v-115h245q29 -2 52 -12q18 -10 34.5 -27.5t16.5 -52.5t-16.5 -52t-34.5 -28q-23 -10 -52 -12h-245v-184h409q29 -2 51 -12q18 -10 35 -31t17 -60t-16.5 -59t-35.5 -31 q-23 -10 -51 -12h-614q-29 2 -51 12q-20 10 -36 30.5t-16 59.5z" />
<glyph unicode="&#xa4;" horiz-adv-x="944" d="M63 163q-2 25 5 46q8 23 26 45l29 27q-10 16 -13.5 32.5t-7.5 28.5q-4 14 -4 27v204q-2 10 2 25q2 23 23 61l-29 29q-18 23 -26 45q-6 20 -4 46t30 55q29 27 54.5 29.5t46.5 -3.5q23 -8 45 -26l47 -50q35 10 75.5 17.5t94.5 7.5q53 0 94 -7t76 -18l47 50q23 18 45 26 q20 6 46 3t54 -29q27 -29 30 -54.5t-3 -46.5q-8 -23 -27 -45l-28 -29q8 -16 12 -31.5t8 -27.5q4 -14 4 -27v-204q-2 -12 -4 -27q-4 -12 -7 -28.5t-13 -32.5l28 -27q18 -23 27 -45q6 -20 3 -45.5t-30 -54.5q-29 -29 -54.5 -31t-45.5 4q-23 8 -45 27l-47 47q-35 -10 -76 -16.5 t-94 -6.5t-94 6t-76 17l-47 -47q-23 -18 -45 -27q-20 -6 -46 -4t-55 31t-31 54zM303 369q2 -27 19 -47q14 -16 44.5 -31t90.5 -15q57 0 89 14.5t46 31.5q16 20 18 47v204q-2 25 -18 45q-14 16 -46 32t-89 16q-59 0 -90 -15.5t-45 -32.5q-16 -20 -19 -45v-204z" />
<glyph unicode="&#xa5;" horiz-adv-x="870" d="M61 236q0 35 15.5 52t36.5 27q23 10 51 13h153v82h-153q-29 2 -51 12q-20 10 -36 27.5t-16 52.5t15.5 52t36.5 28q23 10 51 12h63l-149 233q-12 27 -15 52q-2 23 7.5 45t44.5 43q33 18 58.5 15t43.5 -15q23 -14 37 -37l162 -254l162 254q14 23 36 37q18 12 43 15t60 -15 q33 -20 43 -43t8 -45q-2 -25 -14 -52l-150 -233h72q29 -2 51 -12q18 -10 34.5 -27.5t16.5 -52.5t-16.5 -52.5t-34.5 -27.5q-23 -10 -51 -12h-154v-82h154q29 -2 51 -13q18 -10 34.5 -27.5t16.5 -51.5q0 -35 -16.5 -52.5t-34.5 -27.5q-23 -10 -51 -13h-154v-47 q-2 -29 -12 -51q-10 -20 -30.5 -35.5t-59.5 -15.5t-59.5 15.5t-30.5 35.5q-10 23 -13 51v47h-153q-29 2 -51 13q-20 10 -36 27.5t-16 52.5z" />
<glyph unicode="&#xab;" horiz-adv-x="1058" d="M61 418q0 23 6.5 40t14.5 27q8 13 20 23l289 225q27 12 51 15q23 2 45.5 -8.5t42.5 -43.5q18 -35 15.5 -60.5t-15.5 -43.5q-14 -23 -36 -37l-220 -137l220 -137q23 -14 36 -37q12 -18 15.5 -44t-15.5 -61q-20 -35 -42.5 -44t-45.5 -7q-25 2 -51 14l-289 226 q-12 10 -20 22q-8 10 -14.5 27.5t-6.5 40.5zM512 418q0 23 6 40t14 27q9 13 21 23l289 225q27 12 51 15q23 2 45.5 -8.5t42.5 -43.5q18 -35 15 -60.5t-15 -43.5q-14 -23 -37 -37l-219 -137l219 -137q23 -14 37 -37q12 -18 15 -44t-15 -61q-20 -35 -43 -44t-45 -7 q-25 2 -51 14l-289 226q-12 10 -21 22q-8 10 -14 27.5t-6 40.5z" />
<glyph unicode="&#xad;" horiz-adv-x="778" d="M61 389q0 39 15.5 59.5t36.5 30.5q23 10 51 13h450q29 -2 52 -13q18 -10 34.5 -30.5t16.5 -59.5t-16.5 -59.5t-34.5 -30.5q-23 -10 -52 -12h-450q-29 2 -51 12q-20 10 -36 30.5t-16 59.5z" />
<glyph unicode="&#xb1;" horiz-adv-x="778" d="M61 102q0 39 15.5 59.5t36.5 31.5q23 10 51 12h450q29 -2 52 -12q18 -10 34.5 -31t16.5 -60t-16.5 -59t-34.5 -31q-23 -10 -52 -12h-450q-29 2 -51 12q-20 10 -36 30.5t-16 59.5zM61 594q0 39 15.5 59.5t36.5 30.5q23 10 51 12h123v123q2 29 12 51q10 18 30.5 35t59.5 17 t59.5 -16.5t30.5 -35.5q10 -23 13 -51v-123h122q29 -2 52 -12q18 -10 34.5 -30.5t16.5 -59.5t-16.5 -59.5t-34.5 -30.5q-23 -10 -52 -12h-122v-123q-2 -29 -13 -52q-10 -20 -30.5 -35.5t-59.5 -15.5t-59.5 15.5t-30.5 35.5q-10 23 -12 52v123h-123q-29 2 -51 12 q-20 10 -36 30.5t-16 59.5z" />
<glyph unicode="&#xbb;" horiz-adv-x="1058" d="M61.5 636q-4.5 26 16.5 60q18 33 41.5 43.5t46.5 8.5q25 -2 51 -15l289 -225q12 -10 20 -23q8 -10 14.5 -27.5t6.5 -39.5q0 -23 -6 -40.5t-15 -27.5q-8 -12 -20 -22l-289 -226q-27 -12 -51 -14q-23 -2 -46.5 7t-41.5 44q-20 35 -16 60.5t16 44.5q14 23 37 37l219 137 l-219 137q-23 14 -37 37q-12 18 -16.5 44zM512 199.5q4 25.5 16 44.5q14 23 37 37l219 137l-219 137q-23 14 -37 37q-12 18 -16 44t16 60q18 33 42 43.5t46 8.5q25 -2 52 -15l288 -225q12 -10 21 -23q8 -10 14 -27.5t6 -39.5q0 -23 -6 -40.5t-14 -27.5q-8 -12 -21 -22 l-288 -226q-27 -12 -52 -14q-23 -2 -46 7t-42 44q-20 35 -16 60.5z" />
<glyph unicode="&#xbc;" horiz-adv-x="1204" d="M61 543q0 18 7.5 29.5t17.5 15.5q10 6 27 6h82v287h-31q-16 0 -27 6q-10 4 -17 14.5t-7 30.5q0 18 7 29.5t17 15.5q10 6 27 6h82q18 0 29.5 -8t15.5 -19q6 -10 6 -24v-338h41q14 0 24 -6q10 -4 18.5 -15.5t8.5 -29.5q0 -20 -8 -30.5t-19 -14.5q-10 -6 -24 -6h-225 q-16 0 -27 6q-10 4 -17.5 14t-7.5 31zM149 59.5q-4 24.5 3 46.5q8 25 26 50l649 784q23 23 45 33q20 10 47 10.5t56 -22.5t33 -47.5t-2 -47.5q-8 -25 -27 -49l-649 -784q-23 -23 -45 -33q-20 -10 -47 -10t-56 22q-29 23 -33 47.5zM774 143q0 12 2 17l121 303q8 12 16 20 q8 6 20.5 9.5t29.5 -5.5q16 -8 22 -20t6 -23q0 -12 -4 -26l-88 -228h70v29q0 14 6 27q4 10 14.5 18t28.5 8q20 0 31.5 -8t15.5 -18q6 -12 6 -27v-29q12 0 21 -6q8 -4 14 -14t6 -27q0 -16 -6 -25t-14 -14q-8 -6 -21 -6v-57q0 -16 -6 -27q-4 -10 -15.5 -17t-31.5 -7 q-18 0 -28.5 7t-14.5 17q-6 10 -6 27v57h-146q-14 0 -24 6q-10 4 -17.5 13.5t-7.5 25.5z" />
<glyph unicode="&#xbd;" horiz-adv-x="1204" d="M61 543q0 18 7.5 29.5t17.5 15.5q10 6 27 6h82v287h-31q-16 0 -27 6q-10 4 -17 14.5t-7 30.5q0 18 7 29.5t17 15.5q10 6 27 6h82q18 0 29.5 -8t15.5 -19q6 -10 6 -24v-338h41q14 0 24 -6q10 -4 18.5 -15.5t8.5 -29.5q0 -20 -8 -30.5t-19 -14.5q-10 -6 -24 -6h-225 q-16 0 -27 6q-10 4 -17.5 14t-7.5 31zM149 59.5q-4 24.5 3 46.5q8 25 26 50l649 784q23 23 45 33q20 10 47 10.5t56 -22.5t33 -47.5t-2 -47.5q-8 -25 -27 -49l-649 -784q-23 -23 -45 -33q-20 -10 -47 -10t-56 22q-29 23 -33 47.5zM788 51q0 29 21 39l203 238v49q0 14 -8 24 q-6 10 -19.5 17.5t-36.5 7.5t-34 -7t-17 -18q-8 -10 -8 -24v-43q0 -16 -6 -27q-4 -10 -14.5 -17t-28.5 -7q-20 0 -30.5 7t-14.5 17q-6 10 -7 27v43q2 33 21 57q16 23 48 40.5t91 17.5q61 0 94 -17.5t50 -40.5q18 -25 20 -57v-39q0 -10 -3 -20.5t-7 -18.5q-6 -8 -10 -16 l-146 -183h115q14 0 24 -6q10 -4 18.5 -14t8.5 -29q0 -20 -8 -30.5t-19 -14.5q-10 -6 -24 -6h-221q-16 0 -27 6q-10 4 -17.5 14.5t-7.5 30.5z" />
<glyph unicode="&#xbe;" horiz-adv-x="1204" d="M61 608v31q0 14 7 25q4 10 14 18t31 8q18 0 29.5 -8t15.5 -18q6 -10 6 -25v-31q0 -16 8 -26q6 -10 18.5 -17.5t34.5 -7.5q23 0 35 12.5t19 28.5q8 18 8 41q0 33 -11.5 52.5t-24.5 30.5t-24.5 18.5t-11.5 17.5q0 8 11.5 15t24.5 16.5t24.5 27t11.5 47.5v10q-2 14 -8 25 q-6 10 -16.5 18.5t-33.5 8.5t-34 -8.5t-15 -18.5q-6 -10 -6 -25q0 -16 -6 -26q-4 -10 -15.5 -17.5t-29.5 -7.5q-20 0 -30.5 7.5t-14.5 17.5q-6 10 -6 26q0 33 16 60q14 23 47 41t94 18q59 0 91 -18.5t49 -40.5q18 -27 20 -60v-14q0 -23 -10 -41t-21 -33q-14 -16 -30 -28 q16 -14 30 -33q10 -16 20.5 -37.5t10.5 -48.5q-2 -41 -20 -74q-16 -29 -49 -51t-95 -22q-61 0 -94 17t-49 40q-18 25 -21 59zM149 59.5q-4 24.5 3 46.5q8 25 26 50l649 784q23 23 45 33q20 10 47 10.5t56 -22.5t33 -47.5t-2 -47.5q-8 -25 -27 -49l-649 -784q-23 -23 -45 -33 q-20 -10 -47 -10t-56 22q-29 23 -33 47.5zM774 143q0 12 2 17l121 303q8 12 16 20q8 6 20.5 9.5t29.5 -5.5q16 -8 22 -20t6 -23q0 -12 -4 -26l-88 -228h70v29q0 14 6 27q4 10 14.5 18t28.5 8q20 0 31.5 -8t15.5 -18q6 -12 6 -27v-29q12 0 21 -6q8 -4 14 -14t6 -27 q0 -16 -6 -25t-14 -14q-8 -6 -21 -6v-57q0 -16 -6 -27q-4 -10 -15.5 -17t-31.5 -7q-18 0 -28.5 7t-14.5 17q-6 10 -6 27v57h-146q-14 0 -24 6q-10 4 -17.5 13.5t-7.5 25.5z" />
<glyph unicode="&#xbf;" horiz-adv-x="737" d="M20 225v37q0 78 32 112t71 52t70.5 37.5t31.5 71.5v59q2 29 13 51q10 18 30.5 34.5t59.5 16.5t59.5 -16t30.5 -35q10 -23 12 -51v-53q0 -72 -31.5 -108t-70.5 -56.5t-71 -36.5t-32 -49v-45q0 -29 15 -51q10 -20 35.5 -36t72.5 -16t70.5 15.5t36.5 36.5q12 23 16 51v41 q2 29 12 51q10 18 30.5 34.5t59.5 16.5t59.5 -16.5t31.5 -34.5q10 -23 12 -51v-62q-4 -66 -41 -119q-31 -45 -97.5 -80.5t-189.5 -35.5t-189.5 35.5t-97.5 80.5q-37 53 -41 119zM203 872q0 51 35.5 86t89.5 35q51 0 86 -35t35 -86q0 -53 -35 -88.5t-86 -35.5q-53 0 -89 35.5 t-36 88.5z" />
<glyph unicode="&#xff;" horiz-adv-x="1572" d="M102 0v109q0 8 2 14q41 240 140 303q29 16 52 29.5t44 21.5q31 16 81 41t120 53q8 2 30.5 5.5t57.5 25.5v35q0 8 -2 10q-20 39 -21 49v2q8 0 12 -10q2 -2 3 -10q10 -27 39.5 -51.5t64.5 -51.5q45 -18 82 -18q18 0 51 8t70 27.5t69.5 52.5t51.5 82q0 -25 -31 -76 q-10 -8 -20.5 -18t-10.5 -47q0 -8 2 -13h4q43 0 62 -8q211 -78 336 -209q80 -98 79 -264l-2 -53v-16q0 -16 2 -23h-1368zM479 1061v49l39 59h8q4 0 4 2v17q55 18 68 123q27 12 46.5 19t21.5 24q14 0 24 10q16 -14 49 -14q0 12 29 30q8 -16 20 -30q6 12 9.5 21t9.5 18h12 q4 0 21 18q53 0 176 -33q12 -20 39.5 -37.5t36.5 -25.5q4 -20 15 -54t24.5 -70t24.5 -66t13 -40q0 -18 -4 -44.5t-10 -53.5t-12 -51.5t-8 -40.5l-9 12q-8 -8 -19 -28.5t-20.5 -41t-17.5 -38.5q-6 -12 -6 -17v180q-23 23 -43 115q-55 98 -189 98q-150 0 -186 -120l-57 -103 v-207h-19q-2 27 -5 58.5t-7 62.5t-11 57.5t-16 43.5q-2 -4 -4 -13.5t-4 -19.5l-8 33q-4 -16 -4 -25q0 -16 10 -51t10 -53q-51 70 -51 227zM520 905v8q6 0 6 -4t-6 -4zM549 555q14 -145 203 -240q10 0 26.5 -1t37 1t41 8.5t38.5 20.5q25 18 40 28.5t23 16.5q4 20 54 55 q51 33 51 76q-12 37 -55 37q-6 0 -7 -6q0 -6 4.5 -18.5t10.5 -20.5q-35 -78 -90 -113q4 12 8 25.5t16 13.5q2 4 5 17.5t6.5 31t5.5 34t2 24.5q0 29 -8 39q-92 -55 -154 -56q-37 0 -71 19.5t-93 66.5q2 -20 4 -20q0 -8 -14 -10q2 -10 2 -25.5t2 -36.5q-10 10 -43 21z M549 1217v6q6 0 6 -4q0 -2 -6 -2zM590 735v6q8 0 8 -4q0 -2 -8 -2zM598 705v20q8 -2 8 -20h-8zM598 1245q8 0 8 6q0 8 -8 9v-15zM635 975q2 2 4 2l2 4q12 12 41 12q23 0 42 -6t42 -20q-8 -2 -18 -2h-50q-31 0 -63 10zM649 922q6 4 17.5 13t35.5 9q39 0 54 -10l10 -10l4 -11 q0 -4 -17.5 -11t-39.5 -11l35 10l4 10h-4q-8 0 -25.5 3.5t-26.5 3.5q-31 0 -47 4zM674 926h6q4 0 16 -4q10 -2 17 -2q-8 2 -8 10q0 6 10 10h-17q-4 -2 -10 -6t-14 -8zM696 737q8 0 32 2t36 2t30.5 -5t22.5 -5q8 0 28.5 2t31.5 2q10 0 28.5 -5t22.5 -5h2q0 -14 -16.5 -27.5 t-37 -23.5t-39 -16.5t-22.5 -6.5q-6 0 -15 1t-26 3q-12 0 -25.5 8.5t-24.5 20.5t-19.5 26.5t-8.5 26.5zM721 727q2 -10 18 -25q10 -2 31 -7t41 -5q8 0 27.5 2t31.5 2q6 0 20.5 11.5t14.5 15.5t-18 4q-4 0 -27.5 -2t-34.5 -2q-16 0 -24 5t-49 5q-2 0 -12.5 -2t-14.5 -2h-4z M723 920q12 -2 20 -2h15l-4 8q-2 4 -15 8l-4 4l2 -8q0 2 -4 2t-4 -2q0 -6 4 -6h2q-4 -2 -12 -4zM735 924q2 0 4 4zM770 799q0 2 6 2q15 0 15 -8h-11l-2 2q-8 0 -8 4zM780 672h4l7 -6h10l2 4l-2 2l-13 2l-6 2zM786 905v17q9 -1 9 -9t-9 -8zM815 670h16l5 2l2 2v4h-9l-2 -2 h-12v-6zM854 788l16 5q4 0 7 -2l4 -3h-27zM881 1384q0 -4 12 -10q2 2 3 6.5t5 8.5q-20 0 -20 -5zM883 901l16 14q12 12 23 13q39 0 54 -12.5t19 -12.5l9 -8h-64q-16 0 -27.5 2t-19.5 4h-10zM895 903h25q2 0 8 -1t12 -1q8 0 16.5 1t10.5 1h4q2 -2 8 -2l-2 2l-10 8 q-4 6 -14.5 9.5t-28.5 3.5q-6 0 -11.5 -6.5t-17.5 -14.5zM899 952q14 18 27 19h35q16 0 45 -10q2 0 4 -3q12 -6 15 -8t7 -8q-4 -2 -20 -2q-10 0 -16.5 2t-43.5 10q-23 6 -30 6h-13zM915 1374q15 0 15 8q0 6 -15 7v-15zM920 911q0 11 18 11t18 -11q0 -8 -18 -8t-18 8z M922 911q0 -4 4 -4q6 0 6 4q-4 4 -6 4q-4 0 -4 -4zM924 879v6q12 0 12 -2q-4 -4 -12 -4zM1049 1319l24 -39q17 0 17 10q0 8 -13.5 18.5t-25.5 10.5h-2zM1053 735q4 23 10 27v-10q0 -12 -10 -17zM1124 864v6q7 0 9 -2q-4 -4 -9 -4z" />
<glyph unicode="&#xe01;" horiz-adv-x="808" d="M41 553q10 63 51 117q35 45 104.5 81.5t192.5 36.5q82 0 138.5 -17t92 -43t56 -56.5t30 -57t10.5 -44.5l1 -17v-451q-2 -29 -12 -51q-10 -20 -31 -35.5t-60 -15.5t-59 15.5t-31 35.5q-10 23 -12 51v451q-4 29 -16 51q-12 18 -36 34.5t-71 16.5t-73.5 -16t-41.5 -35 q-16 -23 -20 -51q12 -12 20 -29q8 -14 15.5 -32.5t7.5 -40.5q-8 -8 -16 -17q-14 -18 -15 -45v-287q-2 -29 -12 -51q-10 -20 -30.5 -35.5t-59.5 -15.5t-59.5 15.5t-30.5 35.5q-10 23 -13 51v287q0 27 15 45q8 8 16 17q0 23 -8 41t-18 32q-10 16 -25 29z" />
<glyph unicode="&#xe02;" horiz-adv-x="808" d="M41 614q0 55 30.5 94.5t76 58.5t98.5 20t98 -18t76 -57t31 -98q0 -53 -29 -92t-63.5 -73.5t-63.5 -70.5t-29 -81v-72q0 -27 15 -47q10 -16 35.5 -30.5t72.5 -14.5t70.5 14.5t36.5 30.5q12 20 16 47v451q2 29 12 51q10 18 30.5 34.5t59.5 16.5t59.5 -16.5t31.5 -34.5 q10 -23 12 -51v-451q-4 -66 -41 -119q-31 -45 -97.5 -80.5t-189.5 -35.5t-189.5 35.5t-97.5 80.5q-37 53 -41 119v62q0 53 43 91t95.5 72.5t95.5 72.5t43 91q0 35 -27.5 50.5t-59.5 14.5t-59.5 -17.5t-27.5 -47.5v-10q23 0 37 -11t14 -40q0 -31 -27.5 -45t-59.5 -8 t-59.5 33.5t-27.5 80.5z" />
<glyph unicode="&#xe03;" horiz-adv-x="808" d="M10 641q0 72 35 104.5t74 32.5q25 0 40 -7t28.5 -15t26.5 -15.5t32 -7.5q23 0 39 7.5t31.5 15.5t33 15t39.5 7q23 0 35 -10t18 -23q8 -14 9 -32v-99q0 -53 -29 -92t-63.5 -73.5t-63.5 -70.5t-29 -81v-72q0 -27 15 -47q10 -16 35.5 -30.5t72.5 -14.5t70.5 14.5t36.5 30.5 q12 20 16 47v451q2 29 12 51q10 18 30.5 34.5t59.5 16.5t59.5 -16.5t31.5 -34.5q10 -23 12 -51v-451q-4 -66 -41 -119q-31 -45 -97.5 -80.5t-189.5 -35.5t-189.5 35.5t-97.5 80.5q-37 53 -41 119v62q0 53 43 91t95.5 72.5t95.5 72.5t43 91v41q-16 -6 -33 -12 q-31 -10 -63 -10q-27 0 -43.5 4t-30.5 12q-25 14 -39 6t-18.5 -22.5t4 -28.5t32.5 -12q31 4 40.5 -14.5t5.5 -40.5q-4 -27 -25 -36t-47 -9q-57 0 -84 45t-27 104z" />
<glyph unicode="&#xe04;" horiz-adv-x="808" d="M61 102v451q4 63 41 117q31 45 97.5 81.5t189.5 36.5t189.5 -36.5t97.5 -81.5q37 -53 41 -117v-451q-2 -29 -12 -51q-10 -20 -31 -35.5t-60 -15.5t-59 15.5t-31 35.5q-10 23 -12 51v451q-4 29 -16 51q-12 18 -36 34.5t-71 16.5t-72.5 -16t-35.5 -35q-14 -23 -15 -51v-174 q2 6 9.5 17.5t20.5 23.5t31.5 21.5t41.5 9.5q47 0 64.5 -30t17.5 -73t-19.5 -72.5t-46.5 -29.5q-20 0 -41.5 19.5t-21.5 72.5q-27 -16 -41.5 -59t-14.5 -74v-103q-2 -29 -12 -51q-10 -20 -30.5 -35.5t-59.5 -15.5t-59.5 15.5t-30.5 35.5q-11 22 -13 51z" />
<glyph unicode="&#xe05;" horiz-adv-x="808" d="M61 102v588q2 23 13 43q10 16 30.5 30.5t59.5 14.5q43 0 65.5 -12t43 -25.5t45 -26t71.5 -12.5q45 0 70.5 12.5t46 26t43 25.5t65.5 12q39 0 59.5 -14t31.5 -31q10 -20 12 -43v-588q-2 -29 -12 -51q-10 -20 -31 -35.5t-60 -15.5t-59 15.5t-31 35.5q-10 23 -12 51v498 l-12 14q-16 -10 -46 -25.5t-65 -15.5t-65.5 15.5t-44.5 25.5l-13 -16v-219q2 6 9.5 17.5t20.5 23.5t31.5 21.5t41.5 9.5q47 0 64.5 -30t17.5 -73t-19.5 -72.5t-46.5 -29.5q-20 0 -41.5 19.5t-21.5 72.5q-27 -16 -41.5 -59t-14.5 -74v-103q-2 -29 -12 -51 q-10 -20 -30.5 -35.5t-59.5 -15.5t-59.5 15.5t-30.5 35.5q-10 23 -13 51z" />
<glyph unicode="&#xe06;" horiz-adv-x="808" d="M10 641q0 72 35 104.5t74 32.5q25 0 40 -7t28.5 -15t26.5 -15.5t32 -7.5q23 0 39 7.5t31.5 15.5t33 15t39.5 7q23 0 35 -10t18 -23q8 -14 9 -32v-99q0 -53 -29 -90t-63.5 -61.5t-63.5 -42t-29 -31.5l246 -143v430q2 29 12 51q10 18 30.5 34.5t59.5 16.5t59.5 -16.5 t31.5 -34.5q10 -23 12 -51v-574q-2 -29 -12 -51q-10 -20 -31 -35.5t-60 -15.5t-84 43t-108.5 98.5t-150.5 109.5t-210 77v30q0 45 43 71t95.5 49.5t95.5 53t43 82.5v41q-16 -6 -33 -12q-31 -10 -63 -10q-27 0 -43.5 4t-30.5 12q-25 14 -39 6t-18.5 -22.5t4 -28.5t32.5 -12 q31 4 40.5 -14.5t5.5 -40.5q-4 -27 -25 -36t-47 -9q-57 0 -84 45t-27 104zM47 111q0 53 35 89t86 36q53 0 89 -36t36 -89q0 -51 -36 -86t-89 -35q-51 0 -86 35t-35 86z" />
<glyph unicode="&#xe07;" horiz-adv-x="706" d="M20 225v82q2 29 13 51q10 18 30.5 35t59.5 17t59.5 -16.5t30.5 -35.5q10 -23 12 -51v-82q2 -33 13 -57q10 -23 27.5 -39t51.5 -16q35 0 52.5 16t27.5 39q10 25 13 57v359q-18 2 -31 12q-12 10 -21.5 30.5t-9.5 59.5q2 29 17 51q12 18 38.5 34.5t77.5 16.5q49 0 77 -17 t40 -40q14 -25 16 -55v-451q-4 -66 -36 -119q-29 -45 -89.5 -80.5t-171.5 -35.5q-113 0 -172 35.5t-88 80.5q-33 53 -37 119z" />
<glyph unicode="&#xe08;" horiz-adv-x="655" d="M0 625q0 18 16.5 46.5t50 54.5t88 44t132.5 18q104 0 159.5 -36.5t81.5 -81.5q31 -53 35 -117v-451q-2 -29 -12 -51q-10 -20 -30.5 -35.5t-59.5 -15.5t-59.5 15.5t-30.5 35.5q-10 23 -13 51v103q0 31 -14 74t-41 59q0 -53 -21.5 -72.5t-41.5 -19.5q-27 0 -46.5 29.5 t-19.5 72.5t17.5 73t64.5 30q23 0 40 -9.5t30.5 -21.5t21.5 -24.5t10 -16.5v145q0 63 -27.5 92t-74.5 29q-43 0 -69.5 -14.5t-47 -31.5t-38 -31.5t-40.5 -14.5q-61 0 -61 72z" />
<glyph unicode="&#xe09;" horiz-adv-x="823" d="M8 348q2 29 17 51q12 18 38.5 35t77.5 17q49 0 77 -17.5t40 -40.5q14 -25 16 -55v-113l246 205v94q0 39 -19.5 58.5t-41.5 29.5q-27 10 -62 13q-61 0 -99 -11.5t-63.5 -25t-46 -24.5t-47.5 -11q-31 0 -56.5 16.5t-25.5 55.5q0 18 14.5 46.5t52.5 54.5t103.5 44t167.5 18 q123 0 189.5 -36.5t97.5 -81.5q37 -53 41 -117v-225q-123 -23 -210 -77t-150.5 -109.5t-108.5 -98.5t-84 -43t-59.5 15.5t-30.5 35.5q-10 23 -12 51v144q-18 2 -31 12q-12 10 -21.5 30.5t-9.5 59.5zM485 111q0 53 35 89t86 36q53 0 89 -36t36 -89q0 -51 -36 -86t-89 -35 q-51 0 -86 35t-35 86z" />
<glyph unicode="&#xe0a;" horiz-adv-x="808" d="M41 614q0 63 43 103.5t101.5 54.5t121 1t101.5 -52q82 18 127 40.5t71.5 42t45 33t44.5 13.5q31 0 56.5 -16.5t25.5 -55.5q0 -14 -8 -35.5t-28.5 -43t-56.5 -37t-91 -17.5q53 -45 88 -111.5t35 -144.5v-164q-4 -66 -41 -119q-31 -45 -97.5 -80.5t-189.5 -35.5 t-189.5 35.5t-97.5 80.5q-37 53 -41 119v62q0 53 43 91t95.5 72.5t95.5 72.5t43 91q0 35 -27.5 50.5t-59.5 14.5t-59.5 -17.5t-27.5 -47.5v-10q23 0 37 -11t14 -40q0 -31 -27.5 -45t-59.5 -8t-59.5 33.5t-27.5 80.5zM266 225q0 -27 15 -47q10 -16 35.5 -30.5t72.5 -14.5 t70.5 14.5t36.5 30.5q12 20 16 47v328q0 23 -8 43q-6 16 -20.5 34.5t-39.5 28.5q6 -23 7 -45q0 -53 -29 -92t-63.5 -73.5t-63.5 -70.5t-29 -81v-72z" />
<glyph unicode="&#xe0b;" horiz-adv-x="808" d="M10 641q0 72 35 104.5t74 32.5q25 0 40 -7t28.5 -15t26.5 -15.5t32 -7.5q23 0 39 7.5t31.5 15.5t33 15t39.5 7q33 0 44 -16.5t16 -32.5q66 18 103.5 40t61 39t41 29.5t41.5 12.5q31 0 56.5 -16.5t25.5 -55.5q0 -14 -8 -35.5t-28.5 -43t-56.5 -37t-91 -17.5 q53 -45 88 -111.5t35 -144.5v-164q-4 -66 -41 -119q-31 -45 -97.5 -80.5t-189.5 -35.5t-189.5 35.5t-97.5 80.5q-37 53 -41 119v62q0 53 43 91t95.5 72.5t95.5 72.5t43 91v41q-16 -6 -33 -12q-31 -10 -63 -10q-27 0 -43.5 4t-30.5 12q-25 14 -39 6t-18.5 -22.5t4 -28.5 t32.5 -12q31 4 40.5 -14.5t5.5 -40.5q-4 -27 -25 -36t-47 -9q-57 0 -84 45t-27 104zM266 225q0 -27 15 -47q10 -16 35.5 -30.5t72.5 -14.5t70.5 14.5t36.5 30.5q12 20 16 47v328q0 20 -8 41q-6 16 -18.5 34.5t-34.5 28.5v-43q0 -53 -29 -92t-63.5 -73.5t-63.5 -70.5t-29 -81 v-72z" />
<glyph unicode="&#xe0c;" horiz-adv-x="1259" d="M41 553q10 63 51 117q35 45 104.5 81.5t192.5 36.5q82 0 138.5 -17t92 -43t56 -56.5t30 -57t10.5 -44.5l1 -17v-123l246 -205v451q2 29 12 51q10 18 30.5 34.5t59.5 16.5t59.5 -16.5t30.5 -34.5q10 -22 12 -51v-574q-2 -29 -12 -51q-10 -20 -30.5 -35.5t-59.5 -15.5 t-84 43t-108.5 98.5t-150.5 109.5t-210 77v225q-4 29 -16 51q-12 18 -36 34.5t-71 16.5t-73.5 -16t-41.5 -35q-16 -23 -20 -51q12 -12 20 -29q8 -14 15.5 -32.5t7.5 -40.5q-8 -8 -16 -17q-14 -18 -15 -45v-184q16 -2 31 -12q10 -10 20.5 -31t10.5 -60q-2 -29 -17 -51 q-12 -20 -39.5 -35.5t-76.5 -15.5q-51 0 -78 16.5t-39 38.5q-14 25 -17 58v276q0 27 15 45q8 8 16 17q0 23 -8 41t-18 32q-10 16 -25 29zM512 117q0 49 34 84t83 35t84 -35t35 -84t-35 -83t-84 -34t-83 34t-34 83z" />
<glyph unicode="&#xe0d;" horiz-adv-x="1259" d="M41 553q10 63 51 117q35 45 104.5 81.5t192.5 36.5q82 0 138.5 -17t92 -43t56 -56.5t30 -57t10.5 -35.5l1 -26v-328q0 -27 14 -47q10 -16 36 -30.5t73 -14.5q39 0 63.5 11.5t36.5 25.5t17.5 28.5t5.5 20.5v457q2 29 12 51q10 18 30.5 34.5t59.5 16.5t59.5 -16.5 t30.5 -34.5q10 -23 12 -51v-635q0 -66 -24.5 -121t-62.5 -97t-84 -70.5t-91 -37.5q-98 -18 -159.5 -9t-97.5 31.5t-49 50.5t-13 46q0 39 19.5 55.5t49.5 16.5q25 0 42.5 -13.5t43 -30t66.5 -32.5t115 -25q14 12 22 25.5t12 24.5q6 12 7 22v156q-55 -33 -123 -33 q-123 0 -189.5 35t-97.5 78q-37 49 -41 112v328q-4 29 -16 51q-12 18 -36 34.5t-71 16.5t-73.5 -16t-41.5 -35q-16 -23 -20 -51q12 -12 20 -29q8 -14 15.5 -32.5t7.5 -40.5q-8 -8 -16 -17q-14 -18 -15 -45v-184q16 -2 31 -12q10 -10 20.5 -31t10.5 -60q-2 -29 -17 -51 q-12 -20 -39.5 -35.5t-76.5 -15.5q-51 0 -78 16.5t-39 38.5q-14 25 -17 58v276q0 27 15 45q8 8 16 17q0 23 -8 41t-18 32q-10 16 -25 29z" />
<glyph unicode="&#xe0e;" horiz-adv-x="829" d="M20 102q0 39 9.5 59.5t21.5 31.5q12 10 31 12v184q0 27 14 45l17 17q0 23 -8.5 41t-18.5 32q-10 16 -25 29q10 63 52 117q35 45 104.5 81.5t192.5 36.5q82 0 138 -17t92 -43t56.5 -56.5t29.5 -57t10 -35.5l1 -26v-512q0 -66 -24.5 -121t-62.5 -97t-84 -70.5t-91 -37.5 q-98 -18 -159.5 -9t-97.5 31.5t-49 50.5t-13 46q0 39 19.5 55.5t49.5 16.5q25 0 42.5 -13.5t43 -30t66.5 -32.5t115 -25q14 12 22 25.5t12 24.5q6 12 6 22v676q-4 29 -16 51q-12 18 -35.5 34.5t-70.5 16.5t-74 -16t-41 -35q-16 -23 -21 -51q12 -12 21 -29q8 -14 15 -32.5 t7 -40.5q-8 -8 -16 -17q-14 -18 -14 -45v-276q-2 -33 -17 -58q-12 -23 -39.5 -39t-76.5 -16q-51 0 -78 15.5t-39 35.5q-14 23 -17 51z" />
<glyph unicode="&#xe0f;" horiz-adv-x="829" d="M20 102q0 39 9.5 59.5t21.5 31.5q12 10 31 12v184q0 27 14 45l17 17q0 23 -8.5 41t-18.5 32q-10 16 -25 29q10 63 52 117q35 45 104.5 81.5t192.5 36.5q82 0 138 -17t92 -43t56.5 -56.5t29.5 -57t10 -35.5l1 -26v-512q0 -66 -23.5 -121t-61.5 -98t-85 -70.5t-92 -36.5 q-51 -10 -87 -4t-60 23q-84 -33 -138.5 -28t-88 27.5t-47 53.5t-13.5 49q0 33 16.5 52.5t40.5 19.5q25 0 39.5 -12.5t30.5 -31t39.5 -38t66.5 -31.5q-8 18 -8 39q0 74 66 74q27 0 38 -16.5t24.5 -36t38 -32.5t79.5 -7q8 6 12 19t6 28q2 16 2 35v655q-4 29 -16 51 q-12 18 -35.5 34.5t-70.5 16.5t-74 -16t-41 -35q-16 -23 -21 -51q12 -12 21 -29q8 -14 15 -32.5t7 -40.5q-8 -8 -16 -17q-14 -18 -14 -45v-276q-2 -33 -17 -58q-12 -23 -39.5 -39t-76.5 -16q-51 0 -78 15.5t-39 35.5q-14 23 -17 51z" />
<glyph unicode="&#xe10;" horiz-adv-x="655" d="M-37 -164q0 33 16.5 52.5t40.5 19.5q25 0 39.5 -13.5t32 -32t41 -38t66.5 -31.5q-6 12 -8.5 23.5t-2.5 19.5q0 33 16.5 52.5t41.5 19.5q27 0 40 -16.5t29.5 -38t45 -44t88.5 -32.5q-29 22 -29 61q0 35 23.5 57.5t58.5 22.5t58.5 -22.5t23.5 -57.5q0 -45 -41 -69 q-111 -57 -180.5 -57.5t-110.5 24.5q-84 -33 -139.5 -29t-89 26.5t-47 53.5t-13.5 49zM25 553q0 45 12 87t38.5 75t66.5 51t94 18q45 0 71.5 -6t48 -12t44 -12t61.5 -6q31 0 50 15t42 15q18 0 29.5 -10t15.5 -20q6 -14 6 -31q0 -47 -32.5 -84t-110.5 -35q-31 0 -54.5 6 t-47 13.5t-48 12.5t-55.5 5q-35 0 -55.5 -17.5t-26.5 -39t4 -39t37 -17.5q16 6 39 15q18 6 44 11t60 5q33 0 70 -12.5t66.5 -37t49 -63.5t19.5 -92v-246q-2 -29 -12 -51q-10 -20 -30.5 -35.5t-59.5 -15.5q-57 0 -78 29.5t-23 52.5q-2 31 -16 74t-41 59q0 -53 -21.5 -72.5 t-41.5 -19.5q-27 0 -46.5 29.5t-19.5 72.5t17.5 73t64.5 30q23 0 40 -9.5t30.5 -21.5t21.5 -24.5t10 -16.5v92q-2 16 -14 31q-10 10 -33.5 20.5t-64.5 10.5q-47 0 -79 -15.5t-54 -15.5q-31 0 -59.5 48t-28.5 126z" />
<glyph unicode="&#xe11;" horiz-adv-x="808" d="M31 639q0 72 28.5 105.5t71.5 33.5q18 0 30.5 -4t23 -10t20.5 -10t26 -4q23 0 39.5 4t29.5 10t29.5 10t39.5 4q20 0 31.5 -8t17.5 -18.5t9 -20.5t3 -14q29 23 65.5 42t77.5 19q45 0 74 -19.5t44.5 -51t20.5 -71.5t5 -83v-451q-2 -29 -12 -51q-10 -20 -31 -35.5t-60 -15.5 t-59 15.5t-31 35.5q-10 22 -12 51v471q0 39 -21.5 52.5t-60.5 -7.5v-4q0 -53 -25.5 -92t-56.5 -73.5t-56.5 -70.5t-25.5 -81v-195q-2 -29 -12 -51q-10 -20 -30.5 -35.5t-59.5 -15.5t-59.5 15.5t-30.5 35.5q-10 23 -13 51v185q0 53 40 91t88.5 72.5t88 72.5t39.5 91v58 q-12 -8 -24 -15q-25 -14 -55 -14q-23 0 -39.5 11.5t-38.5 13.5q-10 0 -17.5 -9.5t-8.5 -21.5t7.5 -23.5t28.5 -11.5q29 -2 38 -21.5t5 -37.5q-8 -27 -28.5 -38t-47.5 -11q-53 0 -79.5 43t-26.5 102z" />
<glyph unicode="&#xe12;" horiz-adv-x="1259" d="M61 205v485q2 23 13 43q10 16 30.5 30.5t59.5 14.5q43 0 65.5 -12t43 -25.5t45 -26t71.5 -12.5q45 0 70.5 12.5t46 26t43 25.5t65.5 12q39 0 59.5 -14t31.5 -31q10 -20 12 -43v-260l246 -205v451q2 29 12 51q10 18 30.5 34.5t59.5 16.5t59.5 -16.5t30.5 -34.5 q10 -22 12 -51v-574q-2 -29 -12 -51q-10 -20 -30.5 -35.5t-59.5 -15.5t-84 43t-108.5 98.5t-150.5 109.5t-210 77v272l-12 14q-16 -10 -46 -25.5t-65 -15.5t-65.5 15.5t-44.5 25.5l-13 -16v-393q0 -27 6 -47q4 -16 14.5 -30.5t30.5 -14.5q18 0 28.5 14t14.5 31q6 20 5 47 l-5 4q-18 10 -30.5 36.5t-12.5 61.5q0 43 20.5 73t51.5 30t51.5 -30t20.5 -73q0 -90 -21 -160q-16 -59 -56 -108t-118 -49t-120 32.5t-60 73.5q-23 47 -25 109zM512 117q0 49 34 84t83 35t84 -35t35 -84t-35 -83t-84 -34t-83 34t-34 83z" />
<glyph unicode="&#xe13;" horiz-adv-x="1261" d="M41 553q10 63 51 117q35 45 104.5 81.5t192.5 36.5q82 0 138.5 -17t92 -43t56 -56.5t30 -57t10.5 -44.5l1 -17v-328l246 205v246q2 29 12 51q10 18 30.5 34.5t59.5 16.5t59.5 -16.5t30.5 -34.5q10 -23 12 -51v-348q-123 -23 -210 -77t-150.5 -109.5t-108.5 -98.5t-84 -43 t-59 15.5t-31 35.5q-10 23 -12 51v451q-4 29 -16 51q-12 18 -36 34.5t-71 16.5t-73.5 -16t-41.5 -35q-16 -23 -20 -51q12 -12 20 -29q8 -14 15.5 -32.5t7.5 -40.5q-8 -8 -16 -17q-14 -18 -15 -45v-184q16 -2 31 -12q10 -10 20.5 -31t10.5 -60q-2 -29 -17 -51 q-12 -20 -39.5 -35.5t-76.5 -15.5q-51 0 -78 16.5t-39 38.5q-14 25 -17 58v276q0 27 15 45q8 8 16 17q0 23 -8 41t-18 32q-10 16 -25 29zM932 117q0 49 33.5 84t83.5 35q49 0 83.5 -35t34.5 -84t-34.5 -83t-83.5 -34t-83 34t-34 83z" />
<glyph unicode="&#xe14;" horiz-adv-x="808" d="M61 205v348q4 63 41 117q31 45 97.5 81.5t189.5 36.5t189.5 -36.5t97.5 -81.5q37 -53 41 -117v-451q-2 -29 -12 -51q-10 -20 -31 -35.5t-60 -15.5t-59 15.5t-31 35.5q-10 23 -12 51v451q-4 29 -16 51q-12 18 -36 34.5t-71 16.5t-72.5 -16t-35.5 -35q-14 -23 -15 -51v-348 q0 -27 6 -47q4 -16 14.5 -30.5t30.5 -14.5q18 0 28.5 14t14.5 31q6 20 5 47l-5 4q-18 10 -30.5 36.5t-12.5 61.5q0 43 20.5 73t51.5 30t51.5 -30t20.5 -73q0 -90 -21 -160q-16 -59 -56 -108t-118 -49t-120 32.5t-60 73.5q-23 48 -25 109z" />
<glyph unicode="&#xe15;" horiz-adv-x="808" d="M61 205v485q2 23 13 43q10 16 30.5 30.5t59.5 14.5q43 0 65.5 -12t43 -25.5t45 -26t71.5 -12.5q45 0 70.5 12.5t46 26t43 25.5t65.5 12q39 0 59.5 -14t31.5 -31q10 -20 12 -43v-588q-2 -29 -12 -51q-10 -20 -31 -35.5t-60 -15.5t-59 15.5t-31 35.5q-10 23 -12 51v498 l-12 14q-16 -10 -46 -25.5t-65 -15.5t-65.5 15.5t-44.5 25.5l-13 -16v-393q0 -27 6 -47q4 -16 14.5 -30.5t30.5 -14.5q18 0 28.5 14t14.5 31q6 20 5 47l-5 4q-18 10 -30.5 36.5t-12.5 61.5q0 43 20.5 73t51.5 30t51.5 -30t20.5 -73q0 -90 -21 -160q-16 -59 -56 -108 t-118 -49t-120 32.5t-60 73.5q-23 47 -25 109z" />
<glyph unicode="&#xe16;" horiz-adv-x="808" d="M41 553q10 63 51 117q35 45 104.5 81.5t192.5 36.5q82 0 138.5 -17t92 -43t56 -56.5t30 -57t10.5 -44.5l1 -17v-451q-2 -31 -12 -53q-10 -20 -31 -36.5t-60 -16.5t-59 16.5t-31 36.5q-10 23 -12 53v451q-4 29 -16 51q-12 18 -36 34.5t-71 16.5t-73.5 -16t-41.5 -35 q-16 -23 -20 -51q12 -12 20 -29q8 -14 15.5 -32.5t7.5 -40.5q-8 -8 -16 -17q-14 -18 -15 -45v-184q16 -2 31 -12q10 -10 20.5 -31t10.5 -60q-2 -29 -17 -51q-12 -20 -39.5 -35.5t-76.5 -15.5q-51 0 -78 16.5t-39 38.5q-14 25 -17 58v276q0 27 15 45q8 8 16 17q0 23 -8 41 t-18 32q-10 16 -25 29z" />
<glyph unicode="&#xe17;" horiz-adv-x="819" d="M10 686q2 29 17 51q12 18 38.5 34.5t77.5 16.5q49 0 77 -17t40 -40q14 -25 16 -55v-25q47 53 108.5 90t137.5 37q78 0 118 -35.5t60 -76.5q23 -51 27 -113v-451q-2 -29 -12 -51q-10 -20 -30.5 -35.5t-59.5 -15.5t-59.5 15.5t-30.5 35.5q-10 23 -13 51v422q0 37 -14 57.5 t-31 30.5q-20 10 -43 13q-66 0 -101.5 -33t-56.5 -72v-418q-2 -29 -12 -51q-10 -20 -30.5 -35.5t-59.5 -15.5t-59.5 15.5t-30.5 35.5q-10 23 -12 51v482q-18 2 -31 12q-12 10 -21.5 30.5t-9.5 59.5z" />
<glyph unicode="&#xe18;" horiz-adv-x="788" d="M41 553q4 63 33 117q25 43 79 79.5t154 36.5q45 0 81 -6t66.5 -13t59.5 -13t59 -6q31 0 50.5 15t42.5 15q18 0 29.5 -10t15.5 -20q6 -14 6 -31q0 -47 -33 -84t-111 -35q-31 0 -57.5 8t-54 16.5t-55 15.5t-58.5 7q-47 0 -68.5 -15.5t-29.5 -31.5q-8 -20 -4 -45 q84 8 148.5 4t111.5 -18.5t78.5 -35t54.5 -44.5q49 -55 57 -131v-103q-4 -66 -41 -119q-31 -45 -97 -80.5t-189 -35.5q-115 0 -177.5 27.5t-91 66.5t-34 79t-5.5 62v62q2 23 13 41q10 16 27.5 28.5t52.5 12.5t52 -12.5t27 -28.5q10 -18 13 -41v-62q0 -16 2 -31.5t13 -29.5 t36 -22.5t72 -8.5t70.5 14.5t35.5 30.5q12 20 17 47v103q-4 35 -31 61q-23 23 -73 42.5t-142 19.5q-47 0 -82 -10.5t-58 -10.5q-29 0 -41 19.5t-18 42.5q-8 27 -6 61z" />
<glyph unicode="&#xe19;" horiz-adv-x="825" d="M10 676q2 29 17 51q12 18 38.5 34.5t77.5 16.5q49 0 77 -17.5t40 -39.5q14 -25 16 -55v-441l246 205v246q2 29 13 51q10 18 30.5 34.5t59.5 16.5t59.5 -16.5t30.5 -34.5q10 -23 12 -51v-348q-123 -23 -210 -77t-150.5 -109.5t-108.5 -98.5t-84 -43t-59.5 15.5t-30.5 35.5 q-10 23 -12 51v471q-18 2 -31 13q-12 10 -21.5 30.5t-9.5 59.5zM487 111q0 53 35 89t86 36q53 0 89 -36t36 -89q0 -51 -35.5 -86t-89.5 -35q-51 0 -86 35t-35 86z" />
<glyph unicode="&#xe1a;" horiz-adv-x="819" d="M10 676q2 29 17 51q12 18 38.5 34.5t77.5 16.5q49 0 77 -17.5t40 -39.5q14 -24 16 -55v-441q0 -27 15 -47q10 -16 35.5 -30.5t72.5 -14.5t71 14.5t36 30.5q12 20 16 47v451q2 29 13 51q10 18 30.5 34.5t59.5 16.5t59.5 -16.5t30.5 -34.5q10 -23 12 -51v-451 q-4 -66 -41 -119q-31 -45 -97.5 -80.5t-189.5 -35.5t-189.5 35.5t-96.5 80.5q-37 53 -41 119v348q-18 2 -31 13q-12 10 -21.5 30.5t-9.5 59.5z" />
<glyph unicode="&#xe1b;" horiz-adv-x="819" d="M10 676q2 29 17 51q12 18 38.5 34.5t77.5 16.5q49 0 77 -17.5t40 -39.5q14 -24 16 -55v-441q0 -27 15 -47q10 -16 35.5 -30.5t72.5 -14.5t71 14.5t36 30.5q12 20 16 47v779q2 29 13 51q10 18 30.5 34.5t59.5 16.5t59.5 -16.5t30.5 -34.5q10 -23 12 -51v-779 q-4 -66 -41 -119q-31 -45 -97.5 -80.5t-189.5 -35.5t-189.5 35.5t-96.5 80.5q-37 53 -41 119v348q-18 2 -31 13q-12 10 -21.5 30.5t-9.5 59.5z" />
<glyph unicode="&#xe1c;" horiz-adv-x="808" d="M61 102v564q2 31 17 55q12 23 38.5 40t78.5 17q49 0 76.5 -16.5t39.5 -34.5q14 -23 17 -51q0 -39 -10.5 -59.5t-20.5 -30.5q-14 -10 -31 -13v-266q2 4 13.5 17.5t28 28t38 25.5t43.5 11q23 0 44.5 -12t37.5 -27.5t27.5 -28t13.5 -14.5v369q2 29 12 51q10 18 30.5 34.5 t59.5 16.5t59.5 -16.5t31.5 -34.5q10 -23 12 -51v-574q-2 -29 -12 -51q-10 -20 -31 -35.5t-60 -15.5t-65.5 31.5t-51 70.5t-49 71t-59.5 32t-59.5 -32t-49 -71t-51 -70.5t-65.5 -31.5t-59.5 15.5t-30.5 35.5q-10 23 -13 51z" />
<glyph unicode="&#xe1d;" horiz-adv-x="808" d="M61 102v564q2 31 17 55q12 23 38.5 40t78.5 17q49 0 76.5 -16.5t39.5 -34.5q14 -23 17 -51q0 -39 -10.5 -59.5t-20.5 -30.5q-14 -10 -31 -13v-266q2 4 13.5 17.5t28 28t38 25.5t43.5 11q23 0 44.5 -12t37.5 -27.5t27.5 -28t13.5 -14.5v697q2 29 12 51q10 18 30.5 34.5 t59.5 16.5t59.5 -16.5t31.5 -34.5q10 -23 12 -51v-902q-2 -29 -12 -51q-10 -20 -31 -35.5t-60 -15.5t-65.5 31.5t-51 70.5t-49 71t-59.5 32t-59.5 -32t-49 -71t-51 -70.5t-65.5 -31.5t-59.5 15.5t-30.5 35.5q-10 23 -13 51z" />
<glyph unicode="&#xe1e;" horiz-adv-x="819" d="M10 676q2 29 17 51q12 18 38.5 34.5t77.5 16.5q49 0 77 -17.5t40 -39.5q14 -25 16 -55v-359q2 2 13.5 15.5t28 29t38 26.5t43.5 11q23 0 44.5 -12t38 -27.5t27.5 -28t13 -14.5v369q2 29 13 51q10 18 30.5 34.5t59.5 16.5t59.5 -16.5t30.5 -34.5q10 -23 12 -51v-574 q-2 -29 -12 -51q-10 -20 -30.5 -35.5t-59.5 -15.5t-66 31.5t-51.5 70.5t-49 71t-59.5 32t-59.5 -32t-49 -71t-51 -70.5t-65.5 -31.5t-59.5 15.5t-30.5 35.5q-10 23 -12 51v471q-18 2 -31 13q-12 10 -21.5 30.5t-9.5 59.5z" />
<glyph unicode="&#xe1f;" horiz-adv-x="819" d="M10 676q2 29 17 51q12 18 38.5 34.5t77.5 16.5q49 0 77 -17.5t40 -39.5q14 -25 16 -55v-359q2 4 13.5 17.5t28 28t38 25.5t43.5 11q23 0 44.5 -12t38 -27.5t27.5 -28t13 -14.5v697q2 29 13 51q10 18 30.5 34.5t59.5 16.5t59.5 -16.5t30.5 -34.5q10 -23 12 -51v-902 q-2 -29 -12 -51q-10 -20 -30.5 -35.5t-59.5 -15.5t-66 31.5t-51.5 70.5t-49 71t-59.5 32t-59.5 -32t-49 -71t-51 -70.5t-65.5 -31.5t-59.5 15.5t-30.5 35.5q-10 23 -12 51v471q-18 2 -31 13q-12 10 -21.5 30.5t-9.5 59.5z" />
<glyph unicode="&#xe20;" horiz-adv-x="829" d="M20 102q0 39 9.5 59.5t21.5 31.5q12 10 31 12v184q0 27 14 45l17 17q0 23 -8.5 41t-18.5 32q-10 16 -25 29q10 63 52 117q35 45 104.5 81.5t192.5 36.5q82 0 138 -17t92 -43t56.5 -56.5t29.5 -57t10 -44.5l1 -17v-451q-2 -31 -12 -53q-10 -20 -30.5 -36.5t-59.5 -16.5 t-59.5 16.5t-30.5 36.5q-10 23 -13 53v451q-4 29 -16 51q-12 18 -35.5 34.5t-70.5 16.5t-74 -16t-41 -35q-16 -23 -21 -51q12 -12 21 -29q8 -14 15 -32.5t7 -40.5q-8 -8 -16 -17q-14 -18 -14 -45v-276q-2 -33 -17 -58q-12 -23 -39.5 -39t-76.5 -16q-51 0 -78 15.5t-39 35.5 q-14 23 -17 51z" />
<glyph unicode="&#xe21;" horiz-adv-x="819" d="M10 676q2 29 17 51q12 18 38.5 34.5t77.5 16.5q49 0 77 -17.5t40 -39.5q14 -25 16 -55v-236l246 -205v451q2 29 13 51q10 18 30.5 34.5t59.5 16.5t59.5 -16.5t30.5 -34.5q10 -22 12 -51v-574q-2 -29 -12 -51q-10 -20 -30.5 -35.5t-59.5 -15.5t-84 43t-108.5 98.5 t-150.5 109.5t-210 77v245q-18 2 -31 13q-12 10 -21.5 30.5t-9.5 59.5zM37 111q0 53 34.5 89t86.5 36q53 0 89 -36t36 -89q0 -51 -36 -86t-89 -35q-51 0 -86 35t-35 86z" />
<glyph unicode="&#xe22;" horiz-adv-x="798" d="M41 573q0 23 6 58t24.5 67.5t50.5 56t83 23.5q47 0 72.5 -16.5t35.5 -34.5q12 -23 15 -51q0 -33 -11.5 -53.5t-25.5 -30.5q-16 -12 -35 -19q-16 -111 80 -122q25 -4 37 -17.5t12 -32t-13.5 -36t-41.5 -27.5q-16 -6 -54 -6q-12 -23 -17 -40.5t-7 -33.5q-2 -18 0 -33 q2 -27 16 -47q12 -16 38 -30.5t73 -14.5t70.5 14.5t35.5 30.5q12 20 17 47v451q2 29 12 51q10 18 30.5 34.5t59.5 16.5t59.5 -16.5t30.5 -34.5q10 -23 13 -51v-451q-4 -66 -41 -119q-31 -45 -97.5 -80.5t-189.5 -35.5q-127 0 -193.5 34.5t-95.5 77.5q-35 51 -37 115 q0 106 62 170q-33 27 -53.5 72t-20.5 114z" />
<glyph unicode="&#xe23;" horiz-adv-x="630" d="M0 553q0 45 12.5 87t39 75t66.5 51t93 18q45 0 71.5 -6t48 -12t44 -12t61.5 -6q31 0 50.5 15t41.5 15q18 0 29.5 -10t15.5 -20q6 -14 7 -31q0 -47 -33 -83t-111 -36q-31 0 -54.5 6t-47 12.5t-48 12.5t-55.5 6q-35 0 -55 -17.5t-26.5 -39t4 -39t36.5 -17.5q16 6 39 15 q18 6 44 11t61 5q33 0 69.5 -12.5t66.5 -37t49.5 -63.5t19.5 -92v-235q-2 -33 -17 -58q-12 -23 -39.5 -39t-76.5 -16q-51 0 -78 15.5t-39 35.5q-15 22 -17 51q0 39 9.5 59.5t21.5 31.5q12 10 31 12v143q-2 16 -15 31q-10 10 -33.5 20.5t-64.5 10.5q-47 0 -78.5 -15.5 t-54.5 -15.5q-31 0 -59.5 48t-28.5 126z" />
<glyph unicode="&#xe24;" horiz-adv-x="808" d="M41 553q10 61 51 113q35 41 104.5 76.5t192.5 35.5t189.5 -34.5t97.5 -76.5t36 -78l5 -36v-799q-2 -29 -12 -51q-10 -20 -31 -35.5t-60 -15.5t-59 15.5t-31 35.5q-10 23 -12 51v799q-4 29 -16 51q-12 18 -36 34.5t-71 16.5t-73.5 -16t-41.5 -35q-16 -23 -20 -51 q12 -12 20 -29q8 -14 15.5 -32.5t7.5 -40.5q-8 -8 -16 -17q-14 -18 -15 -45v-184q16 -2 31 -12q10 -10 20.5 -31t10.5 -60q-2 -29 -17 -51q-12 -20 -39.5 -35.5t-76.5 -15.5q-51 0 -78 16.5t-39 38.5q-14 25 -17 58v276q0 27 15 45q8 8 16 17q0 23 -8 41t-18 32 q-10 16 -25 29z" />
<glyph unicode="&#xe25;" horiz-adv-x="808" d="M51 625q0 18 18.5 46.5t58.5 54.5t104.5 44t156.5 18q123 0 189.5 -36.5t97.5 -81.5q37 -53 41 -117v-451q-2 -31 -12 -53q-10 -20 -31 -36.5t-60 -16.5t-59 16.5t-31 36.5q-10 23 -12 53v185q-10 12 -27 20q-14 8 -37.5 14.5t-58.5 6.5q-47 0 -85 -21.5t-38 -60.5v-41 q16 -2 31 -12q10 -10 20.5 -31t10.5 -60q-2 -29 -17 -51q-12 -20 -39.5 -35.5t-76.5 -15.5q-51 0 -78 16.5t-39 38.5q-14 25 -17 58v163q0 35 24 79t77 75t139 37t211 -37v94q0 39 -19.5 58.5t-41.5 29.5q-27 10 -62 13q-61 0 -99 -11.5t-63.5 -25t-46 -24.5t-47.5 -11 q-31 0 -56.5 16.5t-25.5 55.5z" />
<glyph unicode="&#xe26;" horiz-adv-x="808" d="M0 102q0 39 9 59.5t22 31.5q12 10 30 12v184q0 27 15 45q8 8 16 17q0 23 -8 41t-18 32q-10 16 -25 29q10 61 51 113q35 41 104.5 76.5t192.5 35.5t189.5 -34.5t97.5 -76.5t36 -78l5 -36v-799q-2 -29 -12 -51q-10 -20 -31 -35.5t-60 -15.5t-59 15.5t-31 35.5 q-10 23 -12 51v799q-4 29 -16 51q-12 18 -36 34.5t-71 16.5t-73.5 -16t-41.5 -35q-16 -23 -20 -51q12 -12 20 -29q8 -14 15.5 -32.5t7.5 -40.5q-8 -8 -16 -17q-14 -18 -15 -45v-276q-2 -33 -16 -58q-12 -23 -40 -39t-77 -16q-51 0 -77.5 15.5t-39.5 35.5q-14 22 -16 51z" />
<glyph unicode="&#xe27;" horiz-adv-x="645" d="M0 625q0 18 16.5 46.5t50 54.5t88 44t132.5 18q104 0 159.5 -36.5t81.5 -81.5q31 -53 35 -117v-440q-2 -33 -16 -58q-12 -23 -40 -39t-77 -16q-51 0 -77.5 15.5t-39.5 35.5q-14 22 -16 51q0 39 9 59.5t22 31.5q12 10 30 12v319q0 63 -27.5 92t-74.5 29q-43 0 -69.5 -14.5 t-47 -31.5t-38 -31.5t-40.5 -14.5q-61 0 -61 72z" />
<glyph unicode="&#xe28;" horiz-adv-x="808" d="M61 102v451q4 63 41 117q31 45 97.5 81.5t189.5 36.5q90 0 154 -22q33 14 53 29.5t36.5 28t31 19.5t32.5 7q31 0 56.5 -16.5t25.5 -55.5q0 -23 -20.5 -58.5t-75.5 -57.5q23 -45 29 -76q4 -18 6 -33v-451q-2 -29 -12 -51q-10 -20 -31 -35.5t-60 -15.5t-59 15.5t-31 35.5 q-10 23 -12 51v451q-4 29 -16 51q-12 18 -36 34.5t-71 16.5t-72.5 -16t-35.5 -35q-14 -23 -15 -51v-174q2 6 9.5 17.5t20.5 23.5t31.5 21.5t41.5 9.5q47 0 64.5 -30t17.5 -73t-19.5 -72.5t-46.5 -29.5q-20 0 -41.5 19.5t-21.5 72.5q-27 -16 -41.5 -59t-14.5 -74v-103 q-2 -29 -12 -51q-10 -20 -30.5 -35.5t-59.5 -15.5t-59.5 15.5t-30.5 35.5q-10 23 -13 51z" />
<glyph unicode="&#xe29;" horiz-adv-x="819" d="M10 676q2 29 17 51q12 18 38.5 34.5t77.5 16.5q49 0 77 -17.5t40 -39.5q14 -25 16 -55v-441q0 -27 15 -47q10 -16 35.5 -30.5t72.5 -14.5t71 14.5t36 30.5q12 20 16 47v113q-29 -20 -67 -21q-49 0 -83 34t-34 83t34 84t83 35q35 0 67 -23v146q2 29 13 51q10 18 30.5 34.5 t59.5 16.5t59.5 -16.5t30.5 -34.5q10 -23 12 -51v-451q-4 -66 -41 -119q-31 -45 -97.5 -80.5t-189.5 -35.5t-189.5 35.5t-96.5 80.5q-37 53 -41 119v348q-18 2 -31 13q-12 10 -21.5 30.5t-9.5 59.5z" />
<glyph unicode="&#xe2a;" horiz-adv-x="808" d="M51 625q0 18 18.5 46.5t58.5 54.5t104.5 44t156.5 18q90 0 154 -22q33 14 53 29.5t36.5 28t31 19.5t32.5 7q31 0 56.5 -16.5t25.5 -55.5q0 -23 -20.5 -58.5t-75.5 -57.5q23 -45 29 -76q4 -18 6 -33v-451q-2 -31 -12 -53q-10 -20 -31 -36.5t-60 -16.5t-59 16.5t-31 36.5 q-10 23 -12 53v185q-10 12 -27 20q-14 8 -37.5 14.5t-58.5 6.5q-47 0 -85 -21.5t-38 -60.5v-41q16 -2 31 -12q10 -10 20.5 -31t10.5 -60q-2 -29 -17 -51q-12 -20 -39.5 -35.5t-76.5 -15.5q-51 0 -78 16.5t-39 38.5q-14 25 -17 58v163q0 35 24 79t77 75t139 37t211 -37v94 q0 39 -19.5 58.5t-41.5 29.5q-27 10 -62 13q-61 0 -99 -11.5t-63.5 -25t-46 -24.5t-47.5 -11q-31 0 -56.5 16.5t-25.5 55.5z" />
<glyph unicode="&#xe2b;" horiz-adv-x="819" d="M10 676q2 29 17 51q12 18 38.5 34.5t77.5 16.5q49 0 77 -17.5t40 -39.5q14 -25 16 -55v-174q88 20 155 22t115 -9t79.5 -32.5t52.5 -46.5q47 -59 49 -150v-174q-2 -29 -12 -51q-10 -20 -30.5 -35.5t-59.5 -15.5t-59.5 15.5t-30.5 35.5q-10 23 -13 51v174q-4 25 -16 46 q-12 16 -36 31.5t-71 15.5q-35 0 -58.5 -6.5t-37.5 -14.5q-16 -8 -27 -20v-226q-2 -29 -12 -51q-10 -20 -30.5 -35.5t-59.5 -15.5t-59.5 15.5t-30.5 35.5q-10 23 -12 51v471q-18 2 -31 13q-12 10 -21.5 30.5t-9.5 59.5zM492 664q0 53 34.5 88.5t85.5 35.5q53 0 89 -35.5 t36 -88.5q0 -51 -35.5 -86t-89.5 -35q-51 0 -85.5 35t-34.5 86z" />
<glyph unicode="&#xe2c;" horiz-adv-x="819" d="M10 676q2 29 17 51q12 18 38.5 34.5t77.5 16.5q49 0 77 -17.5t40 -39.5q14 -25 16 -55v-400q2 4 13.5 20.5t28 35t38 33t43.5 14.5q23 0 44.5 -15.5t38 -34t27.5 -35t13 -18.5v256q-2 29 -10 51q-8 20 -24.5 40t-47.5 28q-29 10 -35 21.5t-6 23.5q0 20 19 31q8 6 18 8 q74 18 116 39.5t67.5 41t43 32t44.5 12.5q31 0 56 -16.5t25 -55.5q0 -12 -6 -31.5t-21.5 -39t-42 -38t-67.5 -28.5q41 -45 58.5 -109.5t17.5 -142.5v-287q-2 -29 -12 -51q-10 -20 -30.5 -35.5t-59.5 -15.5t-66 28.5t-51.5 63.5t-49 63.5t-59.5 28.5t-59.5 -28.5t-49 -63.5 t-51 -63.5t-65.5 -28.5t-59.5 15.5t-30.5 35.5q-10 23 -12 51v471q-18 2 -31 13q-12 10 -21.5 30.5t-9.5 59.5z" />
<glyph unicode="&#xe2d;" horiz-adv-x="808" d="M51 625q0 18 14.5 46.5t52.5 54.5t103.5 44t167.5 18q123 0 189.5 -36.5t97.5 -81.5q37 -54 41 -117v-328q-4 -66 -41 -119q-31 -45 -97.5 -80.5t-189.5 -35.5t-189.5 35.5t-97.5 80.5q-37 53 -41 119v113q2 31 17 55q12 23 38.5 40.5t78.5 17.5q49 0 76.5 -16.5 t39.5 -35.5q14 -23 17 -51q0 -39 -10.5 -59.5t-20.5 -30.5q-14 -10 -31 -12v-21q0 -27 15 -47q10 -16 35.5 -30.5t72.5 -14.5t70.5 14.5t36.5 30.5q12 20 16 47v299q0 39 -19.5 58.5t-41.5 29.5q-27 10 -62 13q-61 0 -99 -11.5t-63.5 -25t-46 -24.5t-47.5 -11 q-31 0 -56.5 16.5t-25.5 55.5z" />
<glyph unicode="&#xe2e;" horiz-adv-x="806" d="M51 625q0 18 14.5 46.5t52.5 54.5t103.5 44t167.5 18q90 0 154 -22q33 14 53 29.5t36.5 28t31 19.5t32.5 7q31 0 56.5 -16.5t25.5 -55.5q0 -23 -20.5 -58.5t-75.5 -57.5q23 -45 29 -76q4 -19 6 -33v-328q-4 -66 -41 -119q-31 -45 -97.5 -80.5t-189.5 -35.5t-189.5 35.5 t-97.5 80.5q-37 53 -41 119v113q2 31 17 55q12 23 38.5 40.5t78.5 17.5q49 0 76.5 -16.5t39.5 -35.5q14 -23 17 -51q0 -39 -10.5 -59.5t-20.5 -30.5q-14 -10 -31 -12v-21q0 -27 15 -47q10 -16 35.5 -30.5t72.5 -14.5t70.5 14.5t36.5 30.5q12 20 16 47v299q0 39 -19.5 58.5 t-41.5 29.5q-27 10 -62 13q-61 0 -99 -11.5t-63.5 -25t-46 -24.5t-47.5 -11q-31 0 -56.5 16.5t-25.5 55.5z" />
<glyph unicode="&#xe2f;" horiz-adv-x="737" d="M20 512v164q2 29 13 51q10 18 30.5 34.5t59.5 16.5t59.5 -16.5t30.5 -34.5q10 -23 12 -51v-144q0 -29 15 -51q10 -20 35.5 -35.5t72.5 -15.5t70.5 15.5t36.5 35.5q12 23 16 51v144q2 29 12 51q10 18 30.5 34.5t59.5 16.5t59.5 -16.5t31.5 -34.5q10 -23 12 -51v-580 q-2 -29 -12 -51q-10 -20 -31 -35.5t-60 -15.5t-59 15.5t-31 35.5q-10 23 -12 51v193q-53 -12 -123 -13q-123 0 -189.5 36t-97.5 81q-37 53 -41 119z" />
<glyph unicode="&#xe30;" horiz-adv-x="530" d="M27 193v61q2 25 12 45q10 16 30.5 31.5t59.5 15.5q53 0 73.5 -23.5t24.5 -46.5q10 2 18.5 2.5t16.5 0.5q31 0 69 -3.5t69.5 -12.5t54 -26.5t22.5 -43.5q0 -39 -25.5 -55.5t-56.5 -16.5h-286q-31 0 -56.5 16.5t-25.5 55.5zM27 522v62q2 25 12 45q10 16 30.5 31.5 t59.5 15.5q53 0 73.5 -23.5t24.5 -46.5q10 2 18.5 2h16.5q31 0 69 -3t69.5 -12t54 -26.5t22.5 -44.5q0 -39 -25.5 -55t-56.5 -16h-286q-31 0 -56.5 16t-25.5 55z" />
<glyph unicode="&#xe31;" d="M-528 1014q-6 43 17.5 76.5t66.5 44.5q43 6 73.5 -12.5t38.5 -59.5q2 -16 -2 -28.5t-8 -22.5q-6 -10 -14 -19q61 -14 105 0.5t76 39t56.5 49t48.5 32.5q33 10 50.5 -4t19.5 -37q2 -20 -6 -49t-34 -57.5t-72 -53t-121 -36.5q-47 -8 -96.5 -6.5t-90.5 18t-70.5 47.5 t-37.5 78z" />
<glyph unicode="&#xe32;" horiz-adv-x="655" d="M0 625q0 18 16.5 44.5t50 51t88 41t132.5 16.5q104 0 159.5 -35.5t81.5 -76.5q31 -51 35 -113v-451q-2 -29 -12 -51q-10 -20 -30.5 -35.5t-59.5 -15.5t-59.5 15.5t-30.5 35.5q-10 23 -13 51v422q0 37 -14 57.5t-31 30.5q-20 10 -43 13q-43 0 -67.5 -11.5t-42 -25 t-34.5 -24.5t-44 -11q-31 0 -56.5 16.5t-25.5 55.5z" />
<glyph unicode="&#xe33;" horiz-adv-x="655" d="M-369 991q0 53 35 89t86 36q53 0 89 -36t36 -89q0 -51 -36 -86t-89 -35q-51 0 -86 35t-35 86zM0 625q0 18 16.5 44.5t50 51t88 41t132.5 16.5q104 0 159.5 -35.5t81.5 -76.5q31 -51 35 -113v-451q-2 -29 -12 -51q-10 -20 -30.5 -35.5t-59.5 -15.5t-59.5 15.5t-30.5 35.5 q-10 23 -13 51v422q0 37 -14 57.5t-31 30.5q-20 10 -43 13q-43 0 -67.5 -11.5t-42 -25t-34.5 -24.5t-44 -11q-31 0 -56.5 16.5t-25.5 55.5z" />
<glyph unicode="&#xe34;" d="M-707 952q0 102 308 103q307 0 307 -103q0 -39 -25.5 -55t-56.5 -16h-451q-31 0 -56.5 16t-25.5 55z" />
<glyph unicode="&#xe35;" d="M-707 952q0 102 308 103q31 0 57.5 -1t50.5 -3q6 25 27.5 50t68.5 25q39 0 59.5 -17t31.5 -40q10 -25 12 -55v-62q0 -39 -25.5 -55t-56.5 -16h-451q-31 0 -56.5 16t-25.5 55z" />
<glyph unicode="&#xe36;" d="M-727 952q0 53 79 78t218 25q37 0 66.5 -2t58.5 -6q14 29 40.5 44t61.5 15q47 0 81 -32t34 -79q0 -51 -34 -82.5t-81 -31.5h-442q-31 0 -56.5 16t-25.5 55zM-246 999q0 -20 13.5 -33.5t33.5 -13.5t33.5 13.5t13.5 33.5t-13 34t-34 14q-20 0 -33.5 -14t-13.5 -34z" />
<glyph unicode="&#xe37;" d="M-727 952q0 47 60.5 69.5t174.5 27.5q0 6 3.5 19t10.5 26.5t21.5 22.5t36.5 9q27 0 42.5 -12t21.5 -29q8 -18 8 -41v-34h51v14q2 29 12 51q10 18 31 34.5t59 16.5q39 0 59.5 -16t31.5 -35q10 -23 12 -51v-72q0 -39 -25.5 -55t-56.5 -16h-471q-31 0 -56.5 16t-25.5 55z " />
<glyph unicode="&#xe38;" d="M-297 -174q2 29 12 51q10 18 31 34.5t59 16.5q39 0 59.5 -16t31.5 -35q10 -23 12 -51v-143q-2 -29 -12 -52q-10 -20 -31 -35.5t-60 -15.5t-59 15.5t-31 35.5q-10 23 -12 52v143z" />
<glyph unicode="&#xe39;" d="M-573 -174q2 29 12 51q10 18 30.5 34.5t59.5 16.5t59.5 -16t30.5 -35q10 -23 12 -51v-131q20 -4 35 -4q12 0 20.5 1t16.5 3v131q2 29 12 51q10 18 31 34.5t59 16.5q39 0 59.5 -16t31.5 -35q10 -23 12 -51v-66q-4 -51 -31 -88q-23 -33 -71 -59.5t-140 -26.5t-139 27 t-70 59q-27 37 -30 88v66z" />
<glyph unicode="&#xe3a;" d="M-543 -205q0 51 36 87t87 36t87 -36t36 -87t-36 -87t-87 -36t-87 36t-36 87z" />
<glyph unicode="&#xe3f;" horiz-adv-x="862" d="M104 102v779q2 23 11 45q8 16 24.5 33.5t46.5 21.5v2h144v61q2 29 12 52q10 18 30.5 34.5t59.5 16.5t59.5 -16.5t30.5 -34.5q10 -23 13 -52v-63q45 -2 86 -13.5t71.5 -37t49 -67.5t18.5 -105q0 -41 -11.5 -72t-29 -53.5t-39 -38.5t-41.5 -27q82 -31 132 -95t50 -165 q0 -137 -69.5 -216t-216.5 -89v-63q-2 -29 -13 -52q-10 -20 -30.5 -35.5t-59.5 -15.5t-59.5 15.5t-30.5 35.5q-10 23 -12 52v61h-144v2q-31 4 -47 20.5t-24 34.5q-8 20 -11 45zM309 184h205q39 0 70.5 27t31.5 96q0 35 -8 56.5t-20.5 36t-26.5 20.5t-26 10l-226 12v-258z M309 621l140 -17q53 20 89.5 50t36.5 83q0 31 -25.5 56.5t-66.5 25.5h-174v-198z" />
<glyph unicode="&#xe40;" horiz-adv-x="387" d="M61 113v563q2 29 13 51q10 18 30.5 34.5t59.5 16.5t59.5 -16.5t30.5 -34.5q10 -23 12 -51v-471q16 -2 31 -12q10 -10 20.5 -31t10.5 -60q-2 -29 -17 -51q-12 -20 -39.5 -35.5t-76.5 -15.5q-51 0 -78 16.5t-39 38.5q-14 25 -17 58z" />
<glyph unicode="&#xe41;" horiz-adv-x="757" d="M61 113v563q2 29 13 51q10 18 30.5 34.5t59.5 16.5t59.5 -16.5t30.5 -34.5q10 -23 12 -51v-471q16 -2 31 -12q10 -10 20.5 -31t10.5 -60q-2 -29 -17 -51q-12 -20 -39.5 -35.5t-76.5 -15.5q-51 0 -78 16.5t-39 38.5q-14 25 -17 58zM430 113v563q2 29 12 51q10 18 31 34.5 t59 16.5q39 0 59.5 -16.5t31.5 -34.5q10 -23 12 -51v-471q16 -2 31 -12q10 -10 20 -31t10 -60q-2 -29 -16 -51q-12 -20 -40 -35.5t-77 -15.5q-51 0 -77.5 16.5t-39.5 38.5q-14 25 -16 58z" />
<glyph unicode="&#xe42;" horiz-adv-x="419" d="M92 113v993q84 18 131 40.5t75 43t46 34t45 13.5q31 0 56.5 -16.5t25.5 -55.5q0 -14 -7 -35.5t-27.5 -42t-54.5 -36t-85 -19.5v-827q16 -2 31 -12q10 -10 20 -31t10 -60q-2 -29 -16 -51q-12 -20 -40 -35.5t-77 -15.5q-51 0 -77.5 16.5t-38.5 38.5q-14 25 -17 58z" />
<glyph unicode="&#xe43;" horiz-adv-x="440" d="M-18 1067q0 72 49 121t116 49q72 0 121 -49t49 -121v-862q16 -2 31 -12q10 -10 20.5 -31t10.5 -60q-2 -29 -17 -51q-12 -20 -39.5 -35.5t-76.5 -15.5q-51 0 -78 16.5t-39 38.5q-14 25 -16 58v790q-55 12 -93 58.5t-38 105.5zM53 1067q0 -29 16.5 -50.5t43.5 -29.5v164 q-27 -10 -43.5 -32.5t-16.5 -51.5z" />
<glyph unicode="&#xe44;" horiz-adv-x="440" d="M-61 1165q0 39 25.5 55.5t55.5 16.5q27 0 45.5 -13.5t46 -34t74.5 -43t131 -40.5v-901q16 -2 31 -12q10 -10 20.5 -31t10.5 -60q-2 -29 -17 -51q-12 -20 -39.5 -35.5t-76.5 -15.5q-51 0 -78 16.5t-39 38.5q-14 25 -16 58v919q-53 4 -86 19.5t-53.5 36t-27.5 42t-7 35.5z " />
<glyph unicode="&#xe45;" horiz-adv-x="839" d="M154 625q0 18 16 44.5t50 51t88 41t132 16.5q104 0 159.5 -35.5t82.5 -76.5q31 -51 35 -113v-799q-2 -29 -12 -51q-10 -20 -31 -35.5t-60 -15.5t-59 15.5t-31 35.5q-10 23 -12 51v770q0 37 -14.5 57.5t-30.5 30.5q-20 10 -43 13q-43 0 -67.5 -11.5t-42 -25t-35 -24.5 t-43.5 -11q-31 0 -56.5 16.5t-25.5 55.5z" />
<glyph unicode="&#xe46;" horiz-adv-x="808" d="M61 451v239q2 23 13 43q10 16 30.5 30.5t59.5 14.5q43 0 65.5 -12t43 -25.5t45 -26t71.5 -12.5q45 0 70.5 12.5t46 26t43 25.5t65.5 12q39 0 59.5 -14t31.5 -31q10 -20 12 -43v-936q-2 -29 -12 -51q-10 -20 -31 -35.5t-60 -15.5t-59 15.5t-31 35.5q-10 23 -12 51v846 l-12 14q-16 -10 -46 -25.5t-65 -15.5t-65.5 15.5t-44.5 25.5l-13 -16v-147q-2 -29 -12 -52q-10 -20 -30.5 -35.5t-59.5 -15.5t-59.5 15.5t-30.5 35.5q-10 23 -13 52z" />
<glyph unicode="&#xe47;" d="M-543 1016v12q0 35 14.5 67.5t47 57.5t88 40t135.5 15q25 0 54.5 -3t54 -11t41 -22.5t16.5 -36.5q0 -20 -11.5 -28.5t-31 -10.5t-44 1t-50.5 7q-31 4 -63 4t-57.5 -7t-41 -21.5t-15.5 -39.5q0 -33 19 -47q8 -8 18 -10q23 20 54.5 37.5t85.5 17.5q55 0 95 -31.5t40 -72.5 q0 -16 -6 -27q-6 -10 -18.5 -18t-35.5 -8q-20 0 -36.5 5t-33 12t-34.5 12t-39 5q-29 0 -50.5 -5t-37.5 -12t-32 -12t-32 -5q-27 0 -44 13t-28 32.5t-16.5 43t-5.5 46.5z" />
<glyph unicode="&#xe48;" d="M-297 1249v62q2 29 12 51q10 18 31 34.5t59 16.5q39 0 59.5 -16.5t31.5 -34.5q10 -23 12 -51v-62q-2 -29 -12 -51q-10 -20 -31 -35.5t-60 -15.5t-59 15.5t-31 35.5q-10 23 -12 51z" />
<glyph unicode="&#xe49;" d="M-473 1360q0 29 26.5 51.5t65.5 22.5t65.5 -22.5t26.5 -51.5v-6q0 -4 -2 -17.5t-14 -31.5h59q37 0 75 -2.5t69.5 -9.5t51 -22.5t19.5 -41.5q0 -39 -23.5 -50.5t-54.5 -11.5h-280q-31 0 -54.5 11.5t-23.5 50.5q0 27 19.5 41t48.5 22q-31 4 -52.5 23.5t-21.5 44.5z" />
<glyph unicode="&#xe4a;" d="M-563 1243v129q0 16 8 31q6 10 18.5 20.5t34.5 10.5q18 0 32.5 -6.5t28 -14.5t28 -14t32.5 -6q20 0 36.5 6t30 14t28 14.5t30.5 6.5q23 0 35 -10.5t18 -20.5q8 -14 8 -31q0 -23 -1 -41t-3 -35q-2 -18 -2 -32l56 30q29 16 60.5 11t41.5 -35q10 -31 -16.5 -52.5 t-75.5 -35.5q-23 -6 -55.5 -11.5t-63.5 -2.5t-52.5 20.5t-21.5 58.5v72q-8 -4 -16 -6q-16 -6 -35 -6q-18 0 -33 6q-8 2 -18 6v-45q12 0 22.5 -17.5t7.5 -39t-22.5 -39t-64.5 -17.5q-29 0 -43.5 12.5t-22.5 28.5q-8 18 -10 41z" />
<glyph unicode="&#xe4b;" d="M-348 1300q0 43 24.5 55.5t47.5 14.5q4 23 20 43.5t61 20.5q47 0 62.5 -20.5t19.5 -43.5q23 -2 47.5 -15.5t24.5 -54.5q0 -43 -24.5 -56t-47.5 -13q-4 -23 -20.5 -43.5t-61.5 -20.5t-61 20.5t-20 43.5q-23 0 -47.5 13t-24.5 56z" />
<glyph unicode="&#xe4c;" d="M-440 1288q0 20 11 46t37.5 48.5t69.5 37t107 14.5q109 0 162 -32t53 -73q0 -31 -30.5 -41t-61.5 -10h-156q0 -10 -1 -29.5t-9 -38t-26.5 -32t-51.5 -13.5q-35 0 -55.5 13.5t-31.5 32t-14 40t-3 37.5z" />
<glyph unicode="&#xe4d;" d="M-369 1032q0 57 38 96t93 39q57 0 96.5 -38.5t39.5 -96.5q0 -55 -39 -93t-97 -38q-55 0 -93 38t-38 93z" />
<glyph unicode="&#xe4e;" d="M-571 1004q0 20 10 43.5t33.5 44t60.5 36t92 19.5q12 41 63.5 78t155.5 37q109 0 162 -32t53 -73q0 -31 -30.5 -41t-61.5 -10h-133q35 -29 35 -62q0 -31 -31 -41t-61 -10h-156q0 -10 -1 -29.5t-9 -38t-26.5 -31.5t-51.5 -13q-35 0 -55.5 13t-31.5 31.5t-14 40t-3 38.5z " />
<glyph unicode="&#xe4f;" horiz-adv-x="819" d="M82 410q0 68 25.5 127t70.5 104t104.5 70.5t127.5 25.5t127 -25.5t104 -70.5t70.5 -104.5t25.5 -126.5q0 -68 -25.5 -127.5t-70.5 -104.5t-104.5 -70.5t-126.5 -25.5q-68 0 -127.5 25.5t-104.5 70.5t-70.5 104.5t-25.5 127.5zM164 410q0 -51 19.5 -95.5t53 -78t77.5 -53 t96 -19.5q51 0 95 19.5t77.5 53t53 77.5t19.5 96q0 51 -19.5 95t-53 77.5t-77.5 53t-95 19.5t-95.5 -19.5t-78 -53t-53 -77.5t-19.5 -95zM246 410q0 68 48 115.5t116 47.5t115.5 -48t47.5 -115q0 -68 -48 -116t-115 -48q-68 0 -116 48t-48 116z" />
<glyph unicode="&#xe50;" horiz-adv-x="839" d="M61 225v205q6 63 45 117q35 45 107 82t207 37q133 0 205.5 -37t107.5 -82q39 -53 45 -117v-205q-6 -66 -45 -119q-35 -45 -107.5 -80.5t-205.5 -35.5q-135 0 -207 35.5t-107 80.5q-39 53 -45 119zM266 225q2 -27 19 -47q14 -16 44.5 -30.5t90.5 -14.5q57 0 89 14.5 t46 30.5q16 20 18 47v205q-2 25 -18 45q-14 16 -46 31.5t-89 15.5q-59 0 -90 -15t-45 -32q-16 -20 -19 -45v-205z" />
<glyph unicode="&#xe51;" horiz-adv-x="839" d="M61 205v225q6 63 45 117q35 45 107 82t207 37q133 0 205.5 -37t107.5 -82q39 -53 45 -117v-389q-2 -29 -12 -51q-10 -20 -30.5 -35.5t-59.5 -15.5t-59.5 15t-30.5 36q-10 23 -13 51v389q-2 25 -18 45q-14 16 -46 31.5t-89 15.5q-59 0 -90 -15t-45 -32q-16 -20 -19 -45 v-225q0 -27 8 -47q6 -16 18.5 -30.5t35.5 -14.5t35 10t18 24q8 16 8 37q-16 0 -38.5 16.5t-22.5 55.5q0 31 22.5 51.5t69.5 20.5q39 0 65.5 -27t26.5 -96q-4 -61 -29 -109q-23 -41 -66.5 -73.5t-129.5 -32.5t-130 32.5t-67 73.5q-25 47 -29 109z" />
<glyph unicode="&#xe52;" horiz-adv-x="839" d="M61 225v533q2 29 13 51q10 18 30.5 34.5t59.5 16.5t59.5 -16.5t30.5 -34.5q10 -23 12 -51v-533q2 -27 19 -47q14 -16 44.5 -30.5t90.5 -14.5q57 0 89 14.5t46 30.5q16 20 18 47v267l-6 4q-6 -4 -19 -9.5t-36 -5.5t-37 5.5t-20 9.5l-4 -4v-62q16 0 28.5 -13.5t12.5 -37.5 q0 -61 -86 -62q-43 0 -60.5 28t-17.5 75v149q2 23 10 43q8 16 24.5 29.5t47.5 13.5q23 0 39 -7t31.5 -15t32.5 -15.5t40 -7.5t39 7.5t31.5 15.5t33 15t39.5 7q31 0 47.5 -13t24.5 -32.5t9 -42t1 -39.5v-303q-6 -66 -45 -119q-35 -45 -107.5 -80.5t-205.5 -35.5 q-135 0 -207 35.5t-107 80.5q-39 53 -45 119z" />
<glyph unicode="&#xe53;" horiz-adv-x="839" d="M61 205v321q0 35 15 64q10 25 35.5 45t72.5 20q43 0 71 -12t51.5 -25.5t49 -25.5t64.5 -12t64.5 12t49 25.5t51 25.5t70.5 12q47 0 71 -20.5t36 -44.5q12 -29 16 -64v-485q-2 -29 -12 -51q-10 -20 -30.5 -35.5t-59.5 -15.5t-59.5 15t-30.5 36q-10 23 -13 51v416l-12 14 q-16 -27 -61 -44t-80 -17q-18 0 -40 5t-42.5 13t-36.5 19.5t-22 23.5l-13 -16v-250q0 -27 8 -47q6 -16 18.5 -30.5t35.5 -14.5t35 10t18 24q8 16 8 37q-16 0 -38.5 16.5t-22.5 55.5q0 31 22.5 51.5t69.5 20.5q39 0 65.5 -27t26.5 -96q-4 -61 -29 -109q-23 -41 -66.5 -73.5 t-129.5 -32.5t-130 32.5t-67 73.5q-25 47 -29 109z" />
<glyph unicode="&#xe54;" horiz-adv-x="839" d="M61 236v194q6 63 45 117q35 45 107 82t207 37q57 0 89 14t46 31q16 20 18 47q2 29 13 51q10 18 30.5 34.5t59.5 16.5t59.5 -16.5t30.5 -34.5q10 -23 12 -51q-6 -66 -45 -119q-35 -45 -107.5 -81t-205.5 -36q-59 0 -90 -15t-45 -32q-16 -20 -19 -45v-194q2 -27 19 -48 q14 -16 44.5 -30.5t90.5 -14.5h39q-27 35 -43.5 73t-16.5 81q2 37 17 65q12 25 38.5 46.5t77.5 21.5q49 0 77 -16.5t40 -34.5q14 -23 17 -51q0 -39 -10.5 -59.5t-20.5 -30.5q-14 -10 -31 -13q0 -10 4 -23.5t13.5 -25.5t26 -22.5t40.5 -10.5h8q23 0 41 -8q16 -6 28.5 -21.5 t12.5 -41.5q0 -29 -12 -43.5t-29 -20.5q-18 -8 -41 -8h-276q-135 0 -207 36t-107 81q-39 53 -45 119z" />
<glyph unicode="&#xe55;" horiz-adv-x="839" d="M61 236v194q4 47 27 88q20 35 62.5 72t119.5 57q-2 8 -3 14.5t-1 14.5q0 47 36 79.5t87 32.5q49 0 84 -31.5t39 -76.5q23 10 35 23.5t18 25.5q8 14 8 29q2 29 13 51q10 18 30.5 34.5t59.5 16.5t59.5 -16.5t30.5 -34.5q10 -23 12 -51q-6 -66 -45 -119q-35 -45 -107.5 -81 t-205.5 -36q-59 0 -90 -15t-45 -32q-16 -20 -19 -45v-194q2 -27 19 -48q14 -16 44.5 -30.5t90.5 -14.5h39q-27 35 -43.5 73t-16.5 81q2 37 17 65q12 25 38.5 46.5t77.5 21.5q49 0 77 -16.5t40 -34.5q14 -23 17 -51q0 -39 -10.5 -59.5t-20.5 -30.5q-14 -10 -31 -13 q0 -10 4 -23.5t13.5 -25.5t26 -22.5t40.5 -10.5h8q23 0 41 -8q16 -6 28.5 -21.5t12.5 -41.5q0 -29 -12 -43.5t-29 -20.5q-18 -8 -41 -8h-276q-135 0 -207 36t-107 81q-39 53 -45 119z" />
<glyph unicode="&#xe56;" horiz-adv-x="839" d="M61 225v92q2 31 17 56q12 23 38.5 40t78.5 17q49 0 76.5 -16.5t39.5 -34.5q14 -23 17 -51q0 -39 -10.5 -59.5t-20.5 -30.5q-14 -10 -31 -13q2 -27 19 -47q14 -16 44.5 -30.5t90.5 -14.5q57 0 89 14.5t46 30.5q16 20 18 47v205q-2 25 -18 45q-14 16 -46 31.5t-89 15.5 q-135 0 -207 36t-107 81q-39 53 -45 119q2 29 13 51q10 18 30.5 34.5t59.5 16.5t59.5 -16.5t30.5 -34.5q10 -23 12 -51q2 -27 19 -47q14 -16 44.5 -30.5t90.5 -14.5q133 0 205.5 -37t107.5 -82q39 -53 45 -117v-205q-6 -66 -45 -119q-35 -45 -107.5 -80.5t-205.5 -35.5 q-135 0 -207 35.5t-107 80.5q-39 53 -45 119z" />
<glyph unicode="&#xe57;" horiz-adv-x="839" d="M61 205v321q0 35 15 64q10 25 35.5 45t72.5 20q43 0 71 -12t51.5 -25.5t49 -25.5t64.5 -12q27 0 47 6t37.5 15t34 19.5t34.5 18.5v119q2 29 13 51q10 18 30.5 34.5t59.5 16.5t59.5 -16.5t30.5 -34.5q10 -23 12 -51v-656q-2 -29 -12 -51q-10 -20 -30.5 -35.5t-59.5 -15.5 t-59.5 15.5t-30.5 35.5q-10 23 -13 51v355l-12 14q-16 -27 -61 -44t-80 -17q-18 0 -40 5t-42.5 13t-36.5 19.5t-22 23.5l-13 -16v-250q0 -27 8 -47q6 -16 18.5 -30.5t35.5 -14.5t35 10t18 24q8 16 8 37q-16 0 -38.5 16.5t-22.5 55.5q0 31 22.5 51.5t69.5 20.5q39 0 65.5 -27 t26.5 -96q-4 -61 -29 -109q-23 -41 -66.5 -73.5t-129.5 -32.5t-130 32.5t-67 73.5q-25 47 -29 109z" />
<glyph unicode="&#xe58;" horiz-adv-x="839" d="M61 129v301q6 63 45 117q35 45 107 82t207 37q57 0 89 14t46 31q16 20 18 47q2 29 13 51q10 18 30.5 34.5t59.5 16.5t59.5 -16.5t30.5 -34.5q10 -23 12 -51q-6 -66 -45 -119q-35 -45 -107.5 -81t-205.5 -36q-59 0 -90 -15t-45 -32q-16 -20 -19 -45v-231l13 -15 q16 27 61 44.5t80 17.5q18 0 39.5 -5t42 -13.5t37 -19.5t22.5 -24l12 17v65q-18 2 -30 13q-12 10 -21.5 30.5t-9.5 59.5q2 29 16 51q12 18 39 34.5t78 16.5q49 0 77 -21.5t40 -46.5q14 -29 16 -65v-209q-4 -37 -16 -66q-12 -25 -36 -44t-71 -19q-43 0 -70.5 12.5t-51 25.5 t-49 25.5t-64.5 12.5t-64.5 -12.5t-49 -25.5t-51.5 -25.5t-71 -12.5q-47 0 -72.5 19.5t-35.5 43.5q-15 29 -15 66z" />
<glyph unicode="&#xe59;" horiz-adv-x="839" d="M61 215v215q4 63 39 117q14 23 37 44t56.5 37.5t79.5 27t106 10.5h41q57 0 89 14t46 31q16 20 18 47q2 29 13 51q10 18 30.5 34.5t59.5 16.5t59.5 -16.5t30.5 -34.5q10 -23 12 -51q-2 -41 -20 -78q-16 -33 -49 -67.5t-93 -57.5q63 -74 92 -170t29 -180v-41q16 -4 31 -14 q10 -10 20.5 -25.5t10.5 -42.5q-2 -23 -15 -41q-10 -16 -33.5 -28.5t-64.5 -12.5q-43 0 -65.5 16.5t-32.5 38.5q-12 25 -15 58v92q0 33 -8 85t-29.5 102t-56.5 88t-90 42h-10q-43 0 -65.5 -15t-32.5 -32q-12 -20 -15 -45v-215q0 -27 8 -47q6 -16 18.5 -30.5t35.5 -14.5 t35 10t18 25q8 16 8 37q-16 0 -38.5 16t-22.5 55q0 31 22.5 51.5t69.5 20.5q39 0 65.5 -26.5t26.5 -96.5q-4 -61 -29 -109q-23 -41 -66.5 -73.5t-129.5 -32.5t-130 33t-67 73q-25 47 -29 109z" />
<glyph unicode="&#xe5a;" horiz-adv-x="1044" d="M20 512v164q2 29 13 51q10 18 30.5 34.5t59.5 16.5t59.5 -16.5t30.5 -34.5q10 -23 12 -51v-144q0 -29 15 -51q10 -20 35.5 -35.5t72.5 -15.5q39 0 63.5 12.5t37 28.5t17.5 31.5t5 23.5v150q2 29 12 51q10 18 30.5 34.5t59.5 16.5t59.5 -16.5t31.5 -34.5q10 -23 12 -51 v-580q-2 -29 -12 -51q-10 -20 -31 -35.5t-60 -15.5t-59 15.5t-31 35.5q-10 23 -12 51v193q-53 -12 -123 -13q-123 0 -189.5 36t-97.5 81q-37 53 -41 119zM778 96v580q2 29 13 51q10 18 30.5 34.5t59.5 16.5t59.5 -16.5t30.5 -34.5q10 -23 12 -51v-580q-2 -29 -12 -51 q-10 -20 -30.5 -35.5t-59.5 -15.5t-59.5 15.5t-30.5 35.5q-10 23 -13 51z" />
<glyph unicode="&#xe5b;" horiz-adv-x="1198" d="M61 410q0 109 32 165t71 84q45 31 102 37h62q18 -2 34 -10q14 -8 25.5 -24.5t11.5 -47.5t-11 -47t-26 -24q-16 -8 -34 -11q-12 0 -29.5 -2t-34 -13t-28 -36.5t-11.5 -70.5q0 -47 12.5 -72t31 -36t40 -13t39.5 -2l164 327h164l45 -231l78 109h256q18 -2 35 -11 q14 -8 25 -24.5t11 -46.5q0 -31 -11 -47.5t-25 -24.5q-16 -8 -35 -10h-209l-88 -123h-164l-35 174l-129 -256h-164q-57 2 -102 35q-39 27 -71 85t-32 167z" />
<glyph unicode="&#x2000;" horiz-adv-x="717" />
<glyph unicode="&#x2001;" horiz-adv-x="1434" />
<glyph unicode="&#x2002;" horiz-adv-x="717" />
<glyph unicode="&#x2003;" horiz-adv-x="1434" />
<glyph unicode="&#x2004;" horiz-adv-x="478" />
<glyph unicode="&#x2005;" horiz-adv-x="358" />
<glyph unicode="&#x2006;" horiz-adv-x="239" />
<glyph unicode="&#x2007;" horiz-adv-x="239" />
<glyph unicode="&#x2008;" horiz-adv-x="179" />
<glyph unicode="&#x2009;" horiz-adv-x="286" />
<glyph unicode="&#x200a;" horiz-adv-x="79" />
<glyph unicode="&#x2010;" horiz-adv-x="778" d="M61 389q0 39 15.5 59.5t36.5 30.5q23 10 51 13h450q29 -2 52 -13q18 -10 34.5 -30.5t16.5 -59.5t-16.5 -59.5t-34.5 -30.5q-23 -10 -52 -12h-450q-29 2 -51 12q-20 10 -36 30.5t-16 59.5z" />
<glyph unicode="&#x2011;" horiz-adv-x="778" d="M61 389q0 39 15.5 59.5t36.5 30.5q23 10 51 13h450q29 -2 52 -13q18 -10 34.5 -30.5t16.5 -59.5t-16.5 -59.5t-34.5 -30.5q-23 -10 -52 -12h-450q-29 2 -51 12q-20 10 -36 30.5t-16 59.5z" />
<glyph unicode="&#x2012;" horiz-adv-x="778" d="M61 389q0 39 15.5 59.5t36.5 30.5q23 10 51 13h450q29 -2 52 -13q18 -10 34.5 -30.5t16.5 -59.5t-16.5 -59.5t-34.5 -30.5q-23 -10 -52 -12h-450q-29 2 -51 12q-20 10 -36 30.5t-16 59.5z" />
<glyph unicode="&#x2013;" horiz-adv-x="778" d="M61 430q0 39 15.5 59.5t36.5 30.5q23 10 51 12h450q29 -2 52 -12q18 -10 34.5 -30.5t16.5 -59.5t-16.5 -59.5t-34.5 -30.5q-23 -10 -52 -12h-450q-29 2 -51 12q-20 10 -36 30.5t-16 59.5z" />
<glyph unicode="&#x2014;" horiz-adv-x="1228" d="M61 430q0 39 15.5 59.5t36.5 30.5q23 10 51 12h901q29 -2 51 -12q18 -10 34.5 -30.5t16.5 -59.5t-16 -59.5t-35 -30.5q-23 -10 -51 -12h-901q-29 2 -51 12q-20 10 -36 30.5t-16 59.5z" />
<glyph unicode="&#x2018;" horiz-adv-x="307" d="M61 778v103q2 29 13 51q10 18 30.5 34.5t59.5 16.5t59.5 -16.5t30.5 -34.5q10 -23 12 -51v-103q-2 -29 -12 -51q-10 -20 -30.5 -35.5t-59.5 -15.5t-59.5 15.5t-30.5 35.5q-10 23 -13 51z" />
<glyph unicode="&#x2019;" horiz-adv-x="307" d="M61 778v103q2 29 13 51q10 18 30.5 34.5t59.5 16.5t59.5 -16.5t30.5 -34.5q10 -23 12 -51v-103q-2 -29 -12 -51q-10 -20 -30.5 -35.5t-59.5 -15.5t-59.5 15.5t-30.5 35.5q-10 23 -13 51z" />
<glyph unicode="&#x2022;" horiz-adv-x="491" d="M82 410q0 68 48 115.5t116 47.5t116 -48t48 -115q0 -68 -48.5 -116t-115.5 -48q-68 0 -116 48t-48 116z" />
<glyph unicode="&#x2026;" horiz-adv-x="1146" d="M61 111q0 53 35 89t86 36q53 0 89 -36t36 -89q0 -51 -35.5 -86t-89.5 -35q-51 0 -86 35t-35 86zM451 111q0 53 34.5 89t85.5 36q53 0 89 -36t36 -89q0 -51 -35.5 -86t-89.5 -35q-51 0 -85.5 35t-34.5 86zM840 111q0 53 34.5 89t86.5 36q53 0 88.5 -36t35.5 -89 q0 -51 -35.5 -86t-88.5 -35q-51 0 -86 35t-35 86z" />
<glyph unicode="&#x202f;" horiz-adv-x="286" />
<glyph unicode="&#x2030;" horiz-adv-x="1660" d="M61 633v219q2 39 25 70q18 27 58 49t114 22t115 -22.5t59 -48.5q23 -31 25 -70v-219q-2 -41 -25 -72q-18 -27 -59 -48t-115 -21t-114 21.5t-58 47.5q-23 31 -25 72zM149 59.5q-4 24.5 3 46.5q8 25 26 50l649 784q23 23 45 33q20 10 47 10.5t56 -22.5t33 -47.5t-2 -47.5 q-8 -25 -27 -49l-649 -784q-23 -23 -45 -33q-20 -10 -47 -10t-56 22q-29 23 -33 47.5zM205 633q0 -18 6 -31q4 -12 15.5 -21.5t31.5 -9.5t32.5 9.5t16.5 21.5q6 13 6 31v219q0 16 -6 31q-4 10 -16 20t-33 10q-20 0 -31.5 -10t-15.5 -20q-6 -14 -6 -31v-219zM717 131v219 q2 39 24 70q18 27 58.5 49.5t113.5 22.5q74 0 115 -23t59 -49q23 -31 25 -70v-219q-2 -41 -25 -72q-18 -27 -59 -48t-115 -21t-113.5 21.5t-58.5 47.5q-23 31 -24 72zM860 131q0 -18 6 -31q4 -12 15.5 -21t31.5 -9t32.5 9t17.5 21q6 13 6 31v219q0 16 -6 31 q-4 10 -16.5 20.5t-33.5 10.5q-20 0 -31.5 -10.5t-15.5 -20.5q-6 -14 -6 -31v-219zM1174 131v219q2 39 24 70q18 27 58 49.5t114 22.5t115 -23t59 -49q23 -31 25 -70v-219q-2 -41 -25 -72q-18 -27 -59 -48t-115 -21t-113.5 21.5t-58.5 47.5q-23 31 -24 72zM1317 131 q0 -18 6 -31q4 -12 15.5 -21t31.5 -9t32.5 9t16.5 21q6 12 6 31v219q0 16 -6 31q-4 10 -16 20.5t-33 10.5q-20 0 -31.5 -10.5t-15.5 -20.5q-6 -14 -6 -31v-219z" />
<glyph unicode="&#x2031;" horiz-adv-x="2117" d="M61 633v219q2 39 25 70q18 27 58 49t114 22t115 -22.5t59 -48.5q23 -31 25 -70v-219q-2 -41 -25 -72q-18 -27 -59 -48t-115 -21t-114 21.5t-58 47.5q-23 31 -25 72zM149 59.5q-4 24.5 3 46.5q8 25 26 50l649 784q23 23 45 33q20 10 47 10.5t56 -22.5t33 -47.5t-2 -47.5 q-8 -25 -27 -49l-649 -784q-23 -23 -45 -33q-20 -10 -47 -10t-56 22q-29 23 -33 47.5zM205 633q0 -18 6 -31q4 -12 15.5 -21.5t31.5 -9.5t32.5 9.5t16.5 21.5q6 12 6 31v219q0 16 -6 31q-4 10 -16 20t-33 10q-20 0 -31.5 -10t-15.5 -20q-6 -14 -6 -31v-219zM717 131v219 q2 39 24 70q18 27 58.5 49.5t113.5 22.5q74 0 115 -23t59 -49q23 -31 25 -70v-219q-2 -41 -25 -72q-18 -27 -59 -48t-115 -21t-113.5 21.5t-58.5 47.5q-23 31 -24 72zM860 131q0 -18 6 -31q4 -12 15.5 -21t31.5 -9t32.5 9t17.5 21q6 12 6 31v219q0 16 -6 31 q-4 10 -16.5 20.5t-33.5 10.5q-20 0 -31.5 -10.5t-15.5 -20.5q-6 -14 -6 -31v-219zM1174 131v219q2 39 24 70q18 27 58 49.5t114 22.5t115 -23t59 -49q23 -31 25 -70v-219q-2 -41 -25 -72q-18 -27 -59 -48t-115 -21t-113.5 21.5t-58.5 47.5q-23 31 -24 72zM1317 131 q0 -18 6 -31q4 -12 15.5 -21t31.5 -9t32.5 9t16.5 21q6 12 6 31v219q0 16 -6 31q-4 10 -16 20.5t-33 10.5q-20 0 -31.5 -10.5t-15.5 -20.5q-6 -14 -6 -31v-219zM1630 131v219q2 39 25 70q18 27 58 49.5t114 22.5t114.5 -23t59.5 -49q22 -31 24 -70v-219q-2 -41 -24 -72 q-18 -27 -59 -48t-115 -21t-114 21.5t-58 47.5q-23 31 -25 72zM1774 131q0 -18 6 -31q4 -12 15 -21t32 -9q20 0 32.5 9t16.5 21q6 13 6 31v219q0 16 -6 31q-4 10 -16.5 20.5t-32.5 10.5t-31.5 -10.5t-15.5 -20.5q-6 -14 -6 -31v-219z" />
<glyph unicode="&#x205f;" horiz-adv-x="358" />
<glyph unicode="&#x20ac;" horiz-adv-x="966" d="M61 389q0 31 12.5 47.5t28.5 24.5q18 8 41 10h41v61h-41q-23 2 -41 11q-16 8 -28.5 24.5t-12.5 46.5q0 31 12.5 47.5t28.5 24.5q18 8 41 10h41v41q6 72 43 127q16 25 40 47.5t59.5 41t84 29.5t111.5 11q100 0 168 -18.5t109 -44t58 -54t17 -47.5q0 -39 -25.5 -65.5 t-55.5 -26.5q-27 0 -49.5 11.5t-51 24.5t-68.5 24.5t-102 11.5q-35 -4 -63 -16q-25 -10 -46.5 -34t-23.5 -63h123q23 -2 41 -10q16 -8 28.5 -24.5t12.5 -47.5t-12.5 -47t-28.5 -24q-18 -8 -41 -11h-123v-61h205q23 -2 41 -10q16 -8 28.5 -24.5t12.5 -47.5t-12.5 -47 t-28.5 -25q-18 -8 -41 -10h-205v-12q0 -43 20.5 -66.5t45.5 -35.5q29 -14 67 -19q61 0 101.5 11.5t69 24.5t51 24.5t49.5 11.5q31 0 56 -26.5t25 -65.5q0 -18 -17 -47t-58 -54.5t-108.5 -44t-168.5 -18.5q-63 0 -111.5 11t-84 28.5t-59 40t-40.5 47.5q-37 55 -43 129v61h-41 q-23 2 -41 10q-16 8 -28.5 24.5t-12.5 47.5z" />
<glyph unicode="&#x2116;" horiz-adv-x="1617" d="M61 102v779q2 29 13 51q10 18 30.5 34.5t59.5 16.5q45 0 67 -22q10 -10 19 -23q4 -6 8 -8l315 -490v441q2 29 13 51q10 18 30.5 34.5t59.5 16.5t59.5 -16.5t30.5 -34.5q10 -23 12 -51v-779q-2 -29 -12 -51q-10 -20 -30.5 -35.5t-59.5 -15.5q-18 0 -36.5 5t-31.5 18 q-14 10 -20 20q-4 6 -6 10l-316 488v-439q-2 -29 -12 -51q-10 -20 -30.5 -35.5t-59.5 -15.5t-59.5 15.5t-30.5 35.5q-10 23 -13 51zM870 92q0 35 15.5 52.5t36.5 27.5q23 10 51 12h450q29 -2 52 -12q18 -10 34.5 -27.5t16.5 -52.5t-16.5 -52t-34.5 -28q-23 -10 -52 -12h-450 q-29 2 -51 12q-20 10 -36 27.5t-16 52.5zM870 512v246q4 63 41 116q31 45 97.5 82t189.5 37t189.5 -36.5t97.5 -82.5q37 -53 41 -116v-246q-4 -66 -41 -119q-31 -45 -97.5 -81t-189.5 -36t-189.5 36t-97.5 81q-37 53 -41 119zM1075 512q0 -29 15 -51q10 -20 35.5 -35.5 t72.5 -15.5t70.5 15t36.5 36q12 22 16 51v246q-4 29 -16 51q-12 18 -36 34.5t-71 16.5t-72.5 -16.5t-35.5 -34.5q-14 -23 -15 -51v-246z" />
<glyph unicode="&#x2264;" horiz-adv-x="778" d="M61 246q0 39 15.5 59.5t36.5 30.5q23 10 51 12h450q29 -2 52 -12q18 -10 34.5 -30.5t16.5 -59.5t-16.5 -59.5t-34.5 -30.5q-23 -10 -52 -13h-450q-29 2 -51 13q-20 10 -36 30.5t-16 59.5zM62 539.5q4 25.5 16 44.5q14 23 37 37l391 225q27 12 51 14q23 2 45.5 -8 t42.5 -43q18 -35 15 -59.5t-15 -42.5q-14 -23 -37 -37l-254 -117h301q16 0 31 -8q10 -6 20.5 -18.5t10.5 -34.5q0 -23 -10.5 -35.5t-20.5 -18.5q-14 -8 -31 -8h-491q-23 0 -45.5 9t-40.5 42q-20 33 -16 58.5z" />
<glyph unicode="&#x2265;" horiz-adv-x="778" d="M61 246q0 39 15.5 59.5t36.5 30.5q23 10 51 12h450q29 -2 52 -12q18 -10 34.5 -30.5t16.5 -59.5t-16.5 -59.5t-34.5 -30.5q-23 -10 -52 -13h-450q-29 2 -51 13q-20 10 -36 30.5t-16 59.5zM61 492q0 23 9.5 35t21.5 18q12 8 31 8h299l-252 117q-23 14 -37 37 q-12 18 -16 42.5t16 59.5q18 33 42 43t46 8q25 -2 51 -14l392 -225q23 -14 36 -37q12 -18 15 -44t-15 -59q-23 -35 -47 -43t-47 -8h-483q-18 0 -31 8q-12 6 -21.5 18.5t-9.5 35.5z" />
<glyph unicode="&#x25cc;" horiz-adv-x="901" d="M82 412l94 45q-2 -25 -2 -51q0 -24 2 -44zM184 145l37 103q27 -39 66 -68zM199 674l98 -35q-41 -25 -70 -66zM401 684l48 94l49 -94q-23 2 -45 2q-27 0 -52 -2zM406 131q23 -2 47 -2q23 0 41 2l-45 -88zM610 639l105 35l-35 -101q-29 39 -70 66zM614 176q35 27 64 60 l22 -91zM727 457l92 -49l-90 -43q2 20 2 41q0 26 -4 51z" />
<glyph unicode="&#x25fc;" horiz-adv-x="778" d="M0 0v778h778v-778h-778z" />
<glyph unicode="&#xf700;" horiz-adv-x="665" d="M25 553q0 45 12 87t38.5 75t66.5 51t94 18q45 0 71.5 -6t48 -12t44 -12t61.5 -6q31 0 50 15t42 15q18 0 29.5 -10t15.5 -20q6 -14 6 -31q0 -47 -32.5 -84t-110.5 -35q-31 0 -54.5 6t-47 13.5t-48 12.5t-55.5 5q-35 0 -55.5 -17.5t-26.5 -39t4 -39t37 -17.5q16 6 39 15 q18 6 44 11t60 5q33 0 70 -12.5t66.5 -37t49 -63.5t19.5 -92v-246q-2 -29 -12 -51q-10 -20 -30.5 -35.5t-59.5 -15.5q-57 0 -78 29.5t-23 52.5q-2 31 -16 74t-41 59q0 -53 -21.5 -72.5t-41.5 -19.5q-27 0 -46.5 29.5t-19.5 72.5t17.5 73t64.5 30q23 0 40 -9.5t30.5 -21.5 t21.5 -24.5t10 -16.5v92q-2 16 -14 31q-10 10 -33.5 20.5t-64.5 10.5q-47 0 -79 -15.5t-54 -15.5q-31 0 -59.5 48t-28.5 126z" />
<glyph unicode="&#xf701;" d="M-840 952q0 27 22.5 44.5t59.5 26.5t82 12t92 3q45 0 91.5 -3t83 -12t59 -26.5t22.5 -44.5q0 -39 -25.5 -55t-56.5 -16h-348q-31 0 -56.5 16t-25.5 55z" />
<glyph unicode="&#xf702;" d="M-860 952q0 27 22.5 44.5t59.5 26.5t82 12t92 3h27.5t25.5 -2q4 25 25.5 57.5t74.5 32.5q39 0 59.5 -17t31.5 -40q10 -25 12 -55v-62q0 -39 -25.5 -55t-56.5 -16h-348q-31 0 -56.5 16t-25.5 55z" />
<glyph unicode="&#xf703;" d="M-840 952q0 53 67.5 69.5t168.5 16.5h45q8 0 14 2q14 29 41 47.5t62 18.5q47 0 80.5 -32t33.5 -79q0 -51 -33.5 -82.5t-80.5 -31.5h-316q-31 0 -56.5 16t-25.5 55zM-485 999q0 -20 13 -33.5t34 -13.5q20 0 33.5 13.5t13.5 33.5t-13.5 34t-33.5 14t-33.5 -14t-13.5 -34z " />
<glyph unicode="&#xf704;" d="M-860 952q0 41 52 61.5t122 26.5v4q0 23 8 41q6 16 20.5 28.5t43.5 12.5q27 0 42 -12t21 -29q8 -18 8 -41v-34h51v34q0 23 9 41q6 16 20 28.5t43 12.5q27 0 42.5 -12t21.5 -29q8 -18 8 -41v-92q0 -39 -25.5 -55t-56.5 -16h-348q-31 0 -56.5 16t-25.5 55z" />
<glyph unicode="&#xf705;" d="M-573 983v102q2 29 12 52q10 18 30.5 34.5t59.5 16.5t59.5 -16.5t30.5 -34.5q10 -23 12 -52v-102q-2 -29 -12 -51q-10 -20 -30.5 -35.5t-59.5 -15.5t-59.5 15t-30.5 36q-10 23 -12 51z" />
<glyph unicode="&#xf706;" d="M-725 1114q0 29 26.5 51.5t65.5 22.5t65.5 -22.5t26.5 -51.5q0 -2 -1 -31.5t-17 -64.5h33q33 0 65.5 -2t60 -9.5t45 -22.5t17.5 -42q0 -39 -20.5 -50t-47.5 -11h-245q-27 0 -47.5 11t-20.5 50q0 23 11.5 35t29.5 22q12 10 23.5 20.5t15.5 27.5q-35 2 -60.5 20t-25.5 47z " />
<glyph unicode="&#xf707;" d="M-780 969v143q0 16 8 31q6 10 18.5 20.5t34.5 10.5q29 0 54.5 -19.5t54.5 -19.5q16 0 29.5 6t25.5 13t26.5 13.5t32.5 6.5q27 0 39.5 -20.5t15.5 -48.5t-1 -56.5t-9 -44.5q20 27 54.5 30.5t44.5 -26.5q12 -35 -17.5 -68t-69.5 -46t-75 1t-35 76v88l-20 -8t-20.5 -6.5 t-22.5 -0.5q-29 0 -41 7q-8 4 -15 8v-82q14 0 22.5 -15.5t6.5 -33t-17.5 -32.5t-48.5 -15q-49 0 -62 28.5t-13 59.5z" />
<glyph unicode="&#xf708;" d="M-655 1034q0 41 23.5 54.5t45.5 15.5q0 10 3 24.5t11.5 27.5t25 22.5t44.5 9.5q29 0 46.5 -9.5t25.5 -22.5t10 -27.5t2 -24.5q23 -2 46.5 -15.5t23.5 -54.5q0 -43 -23.5 -56t-46.5 -13q0 -12 -2 -26.5t-11 -27t-25.5 -21.5t-45.5 -9t-45 9t-25.5 22.5t-11.5 27.5t-2 25 q-23 2 -46 15t-23 54z" />
<glyph unicode="&#xf709;" d="M-737 1004q0 20 13 45.5t39 48t63.5 37t89.5 14.5q90 0 142 -32t52 -73q0 -31 -30.5 -41t-61.5 -10h-115q0 -10 -1 -29.5t-8 -38t-25.5 -31.5t-51.5 -13q-35 0 -55.5 13t-31.5 31.5t-15 40t-4 38.5z" />
<glyph unicode="&#xf70a;" d="M-297 983v102q2 29 12 52q10 18 31 34.5t59 16.5q39 0 59.5 -16.5t31.5 -34.5q10 -23 12 -52v-102q-2 -29 -12 -51q-10 -20 -31 -35.5t-60 -15.5t-59 15t-31 36q-10 23 -12 51z" />
<glyph unicode="&#xf70b;" d="M-485 1112q0 31 29.5 53.5t72.5 22.5q45 0 74.5 -22.5t29.5 -53.5q0 -2 -3 -36t-21 -66h61q45 0 89 -3t78 -11.5t54.5 -23t20.5 -34.5q0 -39 -24.5 -48t-55.5 -9h-317q-31 0 -56.5 11t-25.5 50q0 20 16 37q12 14 34.5 28.5t29.5 36.5q-37 4 -61.5 23.5t-24.5 44.5z" />
<glyph unicode="&#xf70c;" d="M-522 942v170q0 16 8 31q6 10 18.5 20.5t34.5 10.5q18 0 32.5 -6.5t28 -14.5t28 -14t32.5 -6q20 0 36.5 6t30 14t28 14.5t30.5 6.5q23 0 35 -10.5t18 -20.5q8 -14 8 -31q0 -23 -1 -41t-3 -35q-2 -18 -2 -32l56 30q29 16 60.5 11t41.5 -35q10 -31 -16.5 -63t-75.5 -46 q-23 -6 -55.5 -11t-63.5 -2t-52.5 20.5t-21.5 58.5v92q-8 -4 -16 -6q-16 -6 -35 -6q-18 0 -33 6q-8 2 -18 6v-86q12 0 22.5 -14.5t7.5 -32t-22.5 -31.5t-64.5 -14q-29 0 -43.5 9t-22.5 21t-10 31z" />
<glyph unicode="&#xf70d;" d="M-348 1034q0 41 23.5 54.5t45.5 15.5q0 10 3.5 24.5t11.5 27.5t24.5 22.5t44.5 9.5q29 0 46.5 -9.5t25.5 -22.5t10 -27.5t2 -24.5q23 -2 46.5 -15.5t23.5 -54.5q0 -43 -23.5 -56t-46.5 -13q0 -12 -2 -26.5t-11 -27t-25.5 -21.5t-45.5 -9t-45 9t-25 22.5t-11.5 27.5 t-2.5 25q-23 2 -46 15t-23 54z" />
<glyph unicode="&#xf70e;" d="M-553 1004q0 57 70.5 105t212.5 48q51 0 100 -7t87 -21.5t60.5 -36t22.5 -48.5q0 -31 -25.5 -41t-56.5 -10h-246q-2 -12 -7 -30.5t-16 -37t-31.5 -31.5t-53.5 -13q-35 0 -57.5 13t-36 31.5t-18.5 40t-5 38.5z" />
<glyph unicode="&#xf70f;" horiz-adv-x="1259" d="M41 553q10 63 51 117q35 45 104.5 81.5t192.5 36.5q82 0 138.5 -17t92 -43t56 -56.5t30 -57t10.5 -35.5l1 -26v-328q0 -27 14 -47q10 -16 36 -30.5t73 -14.5t70.5 14.5t35.5 30.5q12 20 17 47v451q2 29 12 51q10 18 30.5 34.5t59.5 16.5t59.5 -16.5t30.5 -34.5 q10 -23 12 -51v-451q-4 -63 -41 -112q-31 -43 -97 -78t-189 -35t-189.5 35t-97.5 78q-37 49 -41 112v328q-4 29 -16 51q-12 18 -36 34.5t-71 16.5t-73.5 -16t-41.5 -35q-16 -23 -20 -51q12 -12 20 -29q8 -14 15.5 -32.5t7.5 -40.5q-8 -8 -16 -17q-14 -18 -15 -45v-184 q16 -2 31 -12q10 -10 20.5 -31t10.5 -60q-2 -29 -17 -51q-12 -20 -39.5 -35.5t-76.5 -15.5q-51 0 -78 16.5t-39 38.5q-14 25 -17 58v276q0 27 15 45q8 8 16 17q0 23 -8 41t-18 32q-10 16 -25 29z" />
<glyph unicode="&#xf710;" d="M-735 1014q-6 43 17.5 76.5t66.5 44.5q43 6 73.5 -12.5t38.5 -59.5q2 -16 -2 -28.5t-8 -22.5q-6 -10 -14 -19q61 -14 105 0.5t76 39t56.5 49t49.5 32.5q33 10 50 -4t19 -37q2 -20 -6 -49t-33.5 -57.5t-72 -53t-121.5 -36.5q-47 -8 -96.5 -6.5t-90.5 18t-70.5 47.5 t-37.5 78z" />
<glyph unicode="&#xf711;" d="M-592 1004q0 51 36 86.5t87 35.5t87 -35.5t36 -86.5t-36 -87t-87 -36t-87 36t-36 87z" />
<glyph unicode="&#xf712;" d="M-797 1016v12q0 35 12.5 67.5t43 57.5t82 40t127.5 15q25 0 54 -3t54 -11t41 -22.5t16 -36.5q0 -20 -11 -28.5t-29.5 -10.5t-43 1t-51.5 7q-63 10 -107 -3.5t-44 -60.5q0 -18 6 -29.5t14 -17.5q8 -8 21 -10q23 20 48 35.5t72 15.5q55 0 89 -29.5t34 -70.5q0 -16 -6 -27 q-6 -10 -18.5 -18t-34.5 -8q-20 0 -37.5 6t-34 14t-33 14.5t-34.5 6.5q-25 0 -42.5 -6.5t-32.5 -14.5t-29.5 -14t-30.5 -6q-27 0 -44.5 13t-28.5 32.5t-16.5 43t-5.5 46.5z" />
<glyph unicode="&#xf713;" d="M-471 1270v61q2 29 12 51q10 18 30.5 35t59.5 17t59.5 -16.5t30.5 -35.5q10 -23 13 -51v-61q-2 -29 -13 -51q-10 -20 -30.5 -36t-59.5 -16t-59.5 15.5t-30.5 36.5q-10 23 -12 51z" />
<glyph unicode="&#xf714;" d="M-520 1360q0 29 26.5 51.5t65.5 22.5t65.5 -22.5t26.5 -51.5v-6q0 -4 -2 -17.5t-14 -31.5h59q37 0 75 -2.5t69.5 -9.5t51 -22.5t19.5 -41.5q0 -39 -23.5 -50.5t-54.5 -11.5h-280q-31 0 -54.5 11.5t-23.5 50.5q0 27 19.5 41t48.5 22q-31 4 -52.5 23.5t-21.5 44.5z" />
<glyph unicode="&#xf715;" d="M-563 1243v129q0 16 8 31q6 10 18.5 20.5t34.5 10.5q18 0 32.5 -6.5t28 -14.5t28 -14t32.5 -6q20 0 36.5 6t30 14t28 14.5t30.5 6.5q23 0 35 -10.5t18 -20.5q8 -14 8 -31q0 -23 -1 -41t-3 -35q-2 -18 -2 -32l56 30q29 16 60.5 11t41.5 -35q10 -31 -16.5 -52.5 t-75.5 -35.5q-23 -6 -55.5 -11.5t-63.5 -2.5t-52.5 20.5t-21.5 58.5v72q-8 -4 -16 -6q-16 -6 -35 -6q-18 0 -33 6q-8 2 -18 6v-45q12 0 22.5 -17.5t7.5 -39t-22.5 -39t-64.5 -17.5q-29 0 -43.5 12.5t-22.5 28.5q-8 18 -10 41z" />
<glyph unicode="&#xf716;" d="M-563 1300q0 37 23.5 48.5t45.5 11.5q2 23 18.5 48.5t65.5 25.5q51 0 66.5 -26t17.5 -48q23 -2 46.5 -13.5t23.5 -46.5q0 -39 -23.5 -50t-46.5 -11q-2 -23 -18 -47.5t-66 -24.5q-49 0 -65.5 25t-18.5 47q-23 0 -46 12.5t-23 48.5z" />
<glyph unicode="&#xf717;" d="M-571 1288q0 20 11 46t37.5 48.5t69.5 37t107 14.5q109 0 162 -32t53 -73q0 -31 -30.5 -41t-61.5 -10h-156q0 -10 -1 -29.5t-9 -38t-26.5 -32t-51.5 -13.5q-35 0 -55.5 13.5t-31.5 32t-14 40t-3 37.5z" />
<glyph unicode="&#xf718;" d="M-297 -430q2 29 12 51q10 18 31 34.5t59 16.5q39 0 59.5 -16t31.5 -35q10 -23 12 -51v-82q-2 -29 -12 -51q-10 -20 -31 -35.5t-60 -15.5t-59 15t-31 36q-10 23 -12 51v82z" />
<glyph unicode="&#xf719;" d="M-573 -436q2 29 12 51q10 18 30.5 34.5t59.5 16.5t59.5 -16.5t30.5 -34.5q10 -23 12 -51v-92q8 -2 16.5 -2h18.5q12 0 20.5 1t16.5 1v92q2 29 12 51q10 18 31 34.5t59 16.5q39 0 59.5 -16.5t31.5 -34.5q10 -23 12 -51v-45q-4 -39 -31 -68q-23 -25 -71 -45t-140 -20 t-139 20.5t-70 44.5q-27 29 -30 68v45z" />
<glyph unicode="&#xf71a;" d="M-348 -471q0 51 36 87t87 36t87 -36t36 -87t-36 -87t-87 -36t-87 36t-36 87z" />
<glyph unicode="&#xf71d;" horiz-adv-x="819" d="M10 676q2 29 17 51q12 18 38.5 34.5t77.5 16.5q49 0 77 -17.5t40 -39.5q14 -25 16 -55v-400q2 4 13.5 20.5t28 35t38 33t43.5 14.5q23 0 44.5 -15.5t38 -34t27.5 -35t13 -18.5v256q-2 29 -10 51q-8 20 -24.5 40t-47.5 28q-29 10 -35 21.5t-6 23.5q0 20 19 31q8 6 18 8 q74 18 116 39.5t67.5 41t43 32t44.5 12.5q31 0 56 -16.5t25 -55.5q0 -12 -6 -31.5t-21.5 -39t-42 -38t-67.5 -28.5q41 -45 58.5 -109.5t17.5 -142.5v-287q-2 -29 -12 -51q-10 -20 -30.5 -35.5t-59.5 -15.5t-66 28.5t-51.5 63.5t-49 63.5t-59.5 28.5t-59.5 -28.5t-49 -63.5 t-51 -63.5t-65.5 -28.5t-59.5 15.5t-30.5 35.5q-10 23 -12 51v471q-18 2 -31 13q-12 10 -21.5 30.5t-9.5 59.5z" />
<glyph unicode="&#xf881;" horiz-adv-x="1290" d="M41 553q10 63 51 117q35 45 105.5 81.5t193.5 36.5q111 0 174.5 -29.5t98.5 -70.5q29 37 92 68.5t168 31.5q104 0 159.5 -36.5t81.5 -81.5q31 -53 33 -117v-799q-2 -29 -12 -51q-10 -20 -30.5 -35.5t-59.5 -15.5t-59.5 15.5t-30.5 35.5q-10 23 -13 51v770q0 37 -14 57.5 t-31 30.5q-20 10 -43 13q-43 0 -67.5 -11.5t-42 -25t-35 -24.5t-43.5 -11v-799q-2 -29 -12 -51q-10 -20 -31 -35.5t-60 -15.5t-59 15.5t-31 35.5q-10 23 -12 51v799q-4 29 -16 51q-12 18 -36 34.5t-71 16.5t-73.5 -16t-41.5 -35q-16 -23 -20 -51q12 -12 20 -29 q8 -14 15.5 -32.5t7.5 -40.5q-8 -8 -16 -17q-14 -18 -15 -45v-184q16 -2 31 -12q10 -10 20.5 -31t10.5 -60q-2 -29 -17 -51q-12 -20 -39.5 -35.5t-76.5 -15.5q-51 0 -78 16.5t-39 38.5q-14 25 -17 58v276q0 27 15 45q8 8 16 17q0 23 -8 41t-18 32q-10 16 -25 29z" />
<glyph unicode="&#xf882;" horiz-adv-x="1310" d="M20 102q0 39 9.5 59.5t21.5 31.5q12 10 31 12v184q0 27 14 45l17 17q0 23 -8.5 41t-18.5 32q-10 16 -25 29q10 63 52 117q35 45 104.5 81.5t192.5 36.5q111 0 174 -29.5t98 -70.5q29 37 92.5 68.5t167.5 31.5t159.5 -36.5t82.5 -81.5q31 -53 35 -117v-799q-2 -29 -13 -51 q-10 -20 -30.5 -35.5t-59.5 -15.5t-59.5 15.5t-30.5 35.5q-10 23 -12 51v770q0 37 -14.5 57.5t-30.5 30.5q-20 10 -43 13q-43 0 -67.5 -11.5t-42 -25t-35 -24.5t-44.5 -11v-799q-2 -29 -12 -51q-10 -20 -30.5 -35.5t-59.5 -15.5t-59.5 15.5t-30.5 35.5q-10 23 -13 51v799 q-4 29 -16 51q-12 18 -35.5 34.5t-70.5 16.5t-74 -16t-41 -35q-16 -23 -21 -51q12 -12 21 -29q8 -14 15 -32.5t7 -40.5q-8 -8 -16 -17q-14 -18 -14 -45v-276q-2 -33 -17 -58q-12 -23 -39.5 -39t-76.5 -16q-51 0 -78 15.5t-39 35.5q-15 22 -17 51z" />
<glyph horiz-adv-x="655" d="M-614 991q0 53 34.5 89t85.5 36q53 0 89 -36t36 -89q0 -51 -35.5 -86t-89.5 -35q-51 0 -85.5 35t-34.5 86zM0 625q0 -39 25.5 -55.5t56.5 -16.5q27 0 44 11t34.5 24.5t42 25t67.5 11.5q23 -2 43 -13q16 -10 30.5 -30.5t14.5 -57.5v-422q2 -29 13 -51q10 -20 30.5 -35.5 t59.5 -15.5t59.5 15.5t30.5 35.5q10 23 12 51v451q-4 61 -35 113q-27 41 -82 76.5t-159 35.5q-78 0 -132.5 -16.5t-88 -41t-50 -51t-16.5 -44.5z" />
<glyph d="M-737 1004q0 37 40 83t117 58q16 33 62.5 65.5t124.5 32.5q63 0 111.5 -23.5t48.5 -62.5q0 -31 -31 -41t-62 -10h-73q33 -27 32 -62q0 -31 -30.5 -41t-61.5 -10h-86q0 -10 -1 -29.5t-8 -38t-25.5 -31.5t-51.5 -13q-35 0 -55.5 13t-31.5 31.5t-15 40t-4 38.5z" />
<glyph horiz-adv-x="1257" d="M113 514q0 109 41 203t110.5 164.5t163 111.5t199.5 41q109 0 203 -41t164.5 -111.5t111.5 -164.5t41 -203q0 -106 -41 -199.5t-111.5 -163t-165 -110.5t-202.5 -41q-106 0 -199.5 41t-163 110.5t-110.5 163t-41 199.5zM348 373q0 -86 58.5 -137.5t150.5 -51.5 q23 0 45.5 1t42.5 5v111l-12 8q-14 -6 -24.5 -7t-22.5 -1q-33 0 -62.5 18.5t-29.5 65.5q0 16 7 27.5t31.5 19.5t70.5 16.5t122 20.5v-145q0 -74 20.5 -107t81.5 -33h19q29 0 47 11.5t18 44.5q0 35 -11 48t-38 13v272q0 53 -19.5 88t-45.5 58q10 4 18 4h39q10 0 20 -4h23v133 q-63 -8 -125.5 -23.5t-109.5 -42.5q-18 4 -35 5h-41q-47 0 -90 -6.5t-90 -22.5v-129h12q39 12 81 22.5t74 10.5q18 0 44 -1t50.5 -9.5t41 -27t16.5 -50.5l-168 -17q-37 -4 -74 -12t-67.5 -28.5t-49 -55.5t-18.5 -92z" />
<glyph horiz-adv-x="819" d="M82 369q0 68 25.5 127t70.5 104t104.5 70.5t127.5 25.5t127 -25.5t104 -70.5t70.5 -104.5t25.5 -126.5q0 -68 -25.5 -127.5t-70.5 -104.5t-104.5 -70.5t-126.5 -25.5q-68 0 -127.5 25.5t-104.5 70.5t-70.5 104.5t-25.5 127.5zM164 369q0 -51 19.5 -95.5t53 -78t77.5 -53 t96 -19.5q51 0 95 19.5t77.5 53t53 77.5t19.5 96q0 51 -19.5 95t-53 77.5t-77.5 53t-95 19.5t-95.5 -19.5t-78 -53t-53 -77.5t-19.5 -95zM205 1004h164l-21 -246h-123zM246 369q0 68 48 115.5t116 47.5t115.5 -48t47.5 -115q0 -68 -48 -116t-115 -48q-68 0 -116 48t-48 116z M451 1004h163l-20 -246h-123z" />
<glyph d="M-573 -174q2 29 12 51q10 18 30.5 34.5t59.5 16.5t59.5 -16t30.5 -35q10 -23 12 -51v-92q-2 -29 -12 -51q-10 -20 -30.5 -36t-59.5 -16t-59.5 15.5t-30.5 36.5q-10 23 -12 51v92z" />
<glyph d="M-748 -174q2 29 11 51q8 18 23 34.5t48 16.5q31 0 47.5 -16t24.5 -35q8 -23 10 -51v-113q8 0 16.5 -1t18.5 -1q12 0 20.5 1t16.5 1v113q2 29 10 51q8 18 24.5 34.5t47.5 16.5t47 -16t25 -35q8 -23 10 -51v-66q-2 -37 -25 -65q-18 -25 -59 -44.5t-117 -19.5t-116 19.5 t-58 44.5q-23 29 -25 65v66z" />
<glyph d="M-594 -246q0 51 36 87t87 36t87 -36t36 -87t-36 -87t-87 -36t-87 36t-36 87z" />
<glyph d="M-328 -205q0 51 36 87t87 36t87 -36t36 -87t-36 -87t-87 -36t-87 36t-36 87z" />
<glyph horiz-adv-x="1259" d="M41 553q10 63 51 117q35 45 104.5 81.5t192.5 36.5q82 0 138.5 -17t92 -43t56 -56.5t30 -57t10.5 -44.5l1 -17v-51q0 -33 14 -58q10 -23 36 -39t73 -16q35 0 58.5 9.5t37.5 21.5q16 12 27 31v225q2 29 12 51q10 18 30.5 34.5t59.5 16.5t59.5 -16.5t30.5 -34.5 q10 -23 12 -51v-574q-2 -29 -12 -51q-10 -20 -30.5 -35.5t-59.5 -15.5t-59.5 15.5t-30.5 35.5q-10 23 -12 51v185q-88 -23 -155 -24t-115 10.5t-79.5 33t-52.5 45.5q-47 59 -49 150v51q-4 29 -16 51q-12 18 -36 34.5t-71 16.5t-73.5 -16t-41.5 -35q-16 -23 -20 -51 q12 -12 20 -29q8 -14 15.5 -32.5t7.5 -40.5q-8 -8 -16 -17q-14 -18 -15 -45v-184q16 -2 31 -12q10 -10 20.5 -31t10.5 -60q-2 -29 -17 -51q-12 -20 -39.5 -35.5t-76.5 -15.5q-51 0 -78 16.5t-39 38.5q-14 25 -17 58v276q0 27 15 45q8 8 16 17q0 23 -8 41t-18 32 q-10 16 -25 29zM512 117q0 49 34 84t83 35t84 -35t35 -84t-35 -83t-84 -34t-83 34t-34 83z" />
<glyph horiz-adv-x="1259" d="M61 205v485q2 23 13 43q10 16 30.5 30.5t59.5 14.5q43 0 68.5 -12t48 -25.5t46 -26t62.5 -12.5t62.5 12.5t46 26t48 25.5t68.5 12q39 0 59.5 -14t31.5 -31q10 -20 12 -43v-188q0 -33 14 -58q10 -23 36 -39t73 -16q35 0 58.5 9.5t37.5 21.5q16 12 27 31v225q2 29 12 51 q10 18 30.5 34.5t59.5 16.5t59.5 -16.5t30.5 -34.5q10 -23 12 -51v-574q-2 -29 -12 -51q-10 -20 -30.5 -35.5t-59.5 -15.5t-59.5 15.5t-30.5 35.5q-10 23 -12 51v185q-88 -23 -155 -24t-115 10.5t-79.5 33t-52.5 45.5q-47 60 -49 150v98l-12 14q-16 -10 -46 -25.5t-65 -15.5 t-65.5 15.5t-44.5 25.5l-13 -16v-393q0 -27 6 -47q4 -16 14.5 -30.5t30.5 -14.5q18 0 28.5 14t14.5 31q6 20 5 47l-5 4q-18 10 -30.5 36.5t-12.5 61.5q0 43 20.5 73t51.5 30t51.5 -30t20.5 -73q0 -90 -21 -160q-16 -59 -56 -108t-118 -49t-120 32.5t-60 73.5q-23 47 -25 109 zM512 117q0 49 34 84t83 35t84 -35t35 -84t-35 -83t-84 -34t-83 34t-34 83z" />
<glyph horiz-adv-x="1259" d="M41 553q10 63 51 117q35 45 104.5 81.5t192.5 36.5q82 0 138.5 -17t92 -43t56 -56.5t30 -57t10.5 -44.5l1 -17v-102q10 -12 26 -21q14 -8 38 -14t59 -6q47 0 70.5 14t35.5 31q13 20 17 47v174q2 29 12 51q10 18 30.5 34.5t59.5 16.5t59.5 -16.5t30.5 -34.5q10 -23 12 -51 v-174q-2 -90 -49 -150q-20 -25 -52 -46t-80 -32.5t-114.5 -10.5t-154.5 24v-185q-2 -29 -12 -51q-10 -20 -31 -35.5t-60 -15.5t-59 15.5t-31 35.5q-10 23 -12 51v451q-4 29 -16 51q-12 18 -36 34.5t-71 16.5t-73.5 -16t-41.5 -35q-16 -23 -20 -51q12 -12 20 -29 q8 -14 15.5 -32.5t7.5 -40.5q-8 -8 -16 -17q-14 -18 -15 -45v-184q16 -2 31 -12q10 -10 20.5 -31t10.5 -60q-2 -29 -17 -51q-12 -20 -39.5 -35.5t-76.5 -15.5q-51 0 -78 16.5t-39 38.5q-14 25 -17 58v276q0 27 15 45q8 8 16 17q0 23 -8 41t-18 32q-10 16 -25 29zM932 117 q0 49 33.5 84t83.5 35q49 0 83.5 -35t34.5 -84t-34.5 -83t-83.5 -34t-83 34t-34 83z" />
<glyph horiz-adv-x="819" d="M10 676q2 29 17 51q12 18 38.5 34.5t77.5 16.5q49 0 77 -17.5t40 -39.5q14 -25 16 -55v-215q10 -12 27 -21q14 -8 38 -14t58 -6q47 0 71 14t36 31q12 20 16 47v174q2 29 13 51q10 18 30.5 34.5t59.5 16.5t59.5 -16.5t30.5 -34.5q10 -23 12 -51v-174q-2 -90 -49 -150 q-20 -25 -52 -46t-80 -32.5t-114.5 -10.5t-155.5 24v-185q-2 -29 -12 -51q-10 -20 -30.5 -35.5t-59.5 -15.5t-59.5 15.5t-30.5 35.5q-10 23 -12 51v471q-18 2 -31 13q-12 10 -21.5 30.5t-9.5 59.5zM487 111q0 53 35 89t86 36q53 0 89 -36t36 -89q0 -51 -35.5 -86t-89.5 -35 q-51 0 -86 35t-35 86z" />
<glyph horiz-adv-x="819" d="M10 676q2 29 17 51q12 18 38.5 34.5t77.5 16.5q49 0 77 -17.5t40 -39.5q14 -25 16 -55v-164q0 -27 15 -47q10 -16 35.5 -30.5t72.5 -14.5q35 0 58.5 6t38.5 14q16 8 26 21v225q2 29 13 51q10 18 30.5 34.5t59.5 16.5t59.5 -16.5t30.5 -34.5q10 -23 12 -51v-574 q-2 -29 -12 -51q-10 -20 -30.5 -35.5t-59.5 -15.5t-59.5 15.5t-30.5 35.5q-10 23 -13 51v185q-88 -23 -154.5 -24t-114.5 10.5t-80 33t-52 45.5q-47 59 -49 150v71q-18 2 -31 13q-12 10 -21.5 30.5t-9.5 59.5zM37 111q0 53 34.5 89t86.5 36q53 0 89 -36t36 -89 q0 -51 -36 -86t-89 -35q-51 0 -86 35t-35 86z" />
<glyph horiz-adv-x="819" d="M10 676q2 29 17 51q12 18 38.5 34.5t77.5 16.5q49 0 101.5 -43t118 -98t153.5 -109.5t211 -76.5v-349q-2 -29 -12 -51q-10 -20 -30.5 -35.5t-59.5 -15.5t-59.5 15.5t-30.5 35.5q-10 23 -13 51v246l-246 205v-451q-2 -29 -12 -51q-10 -20 -30.5 -35.5t-59.5 -15.5 t-59.5 15.5t-30.5 35.5q-10 23 -12 51v471q-18 2 -31 13q-12 10 -21.5 30.5t-9.5 59.5zM508 664q0 53 35 88.5t86 35.5q53 0 89 -35.5t36 -88.5q0 -51 -36 -86t-89 -35q-51 0 -86 35t-35 86z" />
<glyph horiz-adv-x="1241" d="M66 561q-10 57 9 126t54 114l104 141q35 45 97.5 83t120.5 44l172 25q59 10 127.5 -9.5t113.5 -54.5l142 -104q45 -35 82.5 -97.5t44.5 -119.5l24 -172q10 -59 -9.5 -128t-53.5 -114l-105 -141q-35 -45 -97.5 -83t-119.5 -44l-174 -25q-57 -10 -126 9.5t-114 54.5 l-141 104q-45 35 -83 97.5t-44 119.5zM286.5 764.5q-18.5 -62.5 24.5 -131.5q23 -41 53.5 -77t65.5 -71q-55 -35 -96 -75.5t-45 -85.5q-2 -39 15.5 -67t47 -43t67.5 -17t77 10q41 8 63.5 29.5t29.5 46t3 48t-17 40.5q-10 16 -30.5 40.5t-44.5 53.5q31 25 63 51 q35 29 73 51.5t73 46.5q29 -39 60.5 -72.5t59.5 -62.5q61 -59 69.5 -96t-26.5 -53q-37 -20 -75.5 -13t-38.5 43q0 18 1 38t-4 34t-19.5 22.5t-45.5 4.5q-31 -2 -47 -20.5t-18 -43t8 -53.5t33 -53q20 -23 58 -34t78 -9t78 18.5t62 48.5q18 27 19.5 51.5t-9 47t-29 42 t-36.5 35.5q-29 29 -66 68t-63 86q25 16 48 33.5t44 38.5q29 27 40 57.5t7 57t-23.5 47t-50.5 28.5q-33 8 -67.5 3t-61 -21.5t-42 -46t-9.5 -70.5q2 -31 14.5 -63.5t32.5 -65.5q-23 -14 -49.5 -28.5t-52.5 -30.5q-29 -16 -60.5 -34l-66.5 -38q-23 27 -43.5 52.5t-30.5 47.5 q-33 49 -37 84t12 62q8 12 22.5 21t30 9t28 -12t18.5 -45q10 -35 20.5 -57.5t50.5 -7.5q20 6 29.5 19t11.5 29.5t0 32t-6 25.5t-15 27.5t-31.5 33t-51.5 23.5t-76 -4q-88 -23 -106.5 -85.5zM382 338q3 21 15 35q16 18 31.5 33.5t42.5 35.5q10 -10 17.5 -19t15.5 -22 q25 -25 35 -51t6 -47.5t-22.5 -36t-51.5 -14.5t-53.5 14.5t-29.5 32.5t-6 39zM729 790.5q19 51.5 70 57.5q49 4 53 -28t-18 -66q-8 -20 -34 -40t-61 -42q0 4 -2 6q-27 61 -8 112.5z" />
</font>
</defs>
</svg>
